<?xml version="1.0" standalone="no"?>
<!DOCTYPE svg PUBLIC "-//W3C//DTD SVG 20010904//EN"
 "http://www.w3.org/TR/2001/REC-SVG-20010904/DTD/svg10.dtd">
<svg version="1.0" xmlns="http://www.w3.org/2000/svg"
 width="512.000000pt" height="512.000000pt" viewBox="0 0 512.000000 512.000000"
 preserveAspectRatio="xMidYMid meet">

<g transform="translate(0.000000,512.000000) scale(0.100000,-0.100000)"
fill="#000000" stroke="none">
<path d="M2021 4390 c-333 -70 -594 -320 -671 -643 -27 -112 -27 -282 0 -394
39 -164 123 -307 247 -423 96 -90 200 -151 323 -192 81 -26 114 -31 225 -35
93 -4 150 -1 200 10 403 86 685 430 685 836 0 178 -45 327 -142 472 -108 162
-258 276 -446 339 -88 30 -110 33 -237 36 -77 2 -160 -1 -184 -6z m359 -218
c196 -64 361 -231 423 -427 32 -100 32 -290 0 -390 -62 -196 -229 -364 -423
-426 -91 -30 -263 -37 -350 -15 -193 49 -347 171 -430 341 -53 106 -70 180
-70 295 0 115 17 189 70 295 81 166 232 288 420 339 81 23 274 16 360 -12z"/>
<path d="M1443 2695 c-383 -99 -670 -379 -771 -754 -24 -92 -26 -110 -30 -417
-4 -367 -7 -353 80 -427 159 -136 392 -239 669 -297 186 -38 322 -51 595 -57
383 -8 751 20 1028 77 l98 20 73 -35 c138 -65 210 -80 390 -80 187 0 237 11
390 84 184 88 330 232 420 416 167 339 106 742 -153 1017 -116 123 -270 214
-437 259 -104 28 -316 32 -416 6 l-66 -16 -95 63 c-102 66 -214 116 -336 147
-113 29 -136 26 -221 -27 -296 -184 -650 -187 -950 -8 -106 63 -127 66 -268
29z m210 -225 c335 -179 684 -183 1027 -13 70 35 124 56 140 54 39 -5 159 -50
222 -83 l57 -30 -57 -43 c-67 -50 -175 -161 -219 -225 -150 -222 -195 -534
-112 -784 31 -93 86 -198 145 -274 l52 -70 -71 -11 c-271 -43 -808 -64 -1067
-42 -397 34 -733 140 -895 283 l-35 30 0 252 c0 206 4 267 19 342 53 259 236
481 489 596 52 24 122 46 209 67 1 1 45 -22 96 -49z m2051 -154 c318 -61 553
-328 573 -651 19 -313 -181 -610 -478 -710 -111 -37 -274 -46 -382 -20 -453
107 -680 603 -465 1018 56 108 182 236 283 289 160 82 306 105 469 74z"/>
<path d="M3539 2056 c-56 -18 -69 -58 -69 -208 l0 -128 -136 0 c-74 0 -144 -5
-155 -10 -53 -29 -61 -116 -13 -161 24 -23 34 -24 164 -27 l138 -3 4 -141 3
-140 34 -30 c29 -26 39 -30 75 -25 27 4 49 15 63 32 22 24 23 35 23 166 l0
139 130 0 c150 0 183 10 206 66 17 42 10 74 -23 106 -23 21 -35 23 -166 28
l-142 5 -3 140 c-2 134 -4 141 -28 166 -31 33 -60 39 -105 25z"/>
</g>
</svg>
