<?xml version="1.0" standalone="no"?>
<!DOCTYPE svg PUBLIC "-//W3C//DTD SVG 20010904//EN"
 "http://www.w3.org/TR/2001/REC-SVG-20010904/DTD/svg10.dtd">
<svg version="1.0" xmlns="http://www.w3.org/2000/svg"
 width="500.000000pt" height="500.000000pt" viewBox="0 0 500.000000 500.000000"
 preserveAspectRatio="xMidYMid meet">

<g transform="translate(0.000000,500.000000) scale(0.100000,-0.100000)"
fill="#000000" stroke="none">
<path d="M3780 4679 c-201 -26 -384 -127 -523 -288 -58 -67 -139 -230 -162
-324 -18 -77 -24 -221 -12 -314 l8 -62 -676 -337 -676 -338 -24 31 c-69 87
-266 202 -410 238 -101 26 -275 24 -380 -4 -239 -64 -433 -225 -536 -444 -96
-207 -96 -468 1 -676 133 -284 414 -463 730 -464 217 -1 407 76 566 229 l57
55 674 -336 674 -337 -8 -61 c-35 -272 50 -522 239 -705 154 -149 340 -224
558 -224 250 1 462 102 626 300 189 229 232 568 105 839 -56 118 -153 237
-261 319 -55 41 -208 110 -290 130 -106 26 -278 23 -385 -5 -157 -42 -321
-145 -409 -258 -23 -28 -44 -52 -48 -52 -9 -1 -1328 659 -1328 664 0 2 7 32
17 67 22 85 22 271 0 356 -10 35 -17 66 -17 68 0 2 299 154 665 336 l665 332
17 -24 c91 -131 279 -253 460 -297 94 -22 266 -22 363 1 292 70 524 298 601
591 28 110 29 279 0 390 -101 390 -489 656 -881 604z m209 -314 c248 -59 420
-305 384 -551 -59 -409 -553 -576 -844 -285 -107 107 -158 242 -145 388 25
305 311 517 605 448z m-2767 -1376 c90 -19 177 -67 249 -139 199 -197 199
-504 0 -700 -159 -158 -369 -192 -569 -94 -146 71 -246 207 -274 372 -25 147
31 315 141 422 123 120 293 172 453 139z m2823 -1400 c177 -65 301 -218 328
-403 46 -316 -243 -605 -559 -559 -409 59 -576 553 -285 844 69 69 145 113
234 135 74 19 207 11 282 -17z"/>
</g>
</svg>
