<?xml version="1.0" standalone="no"?>
<!DOCTYPE svg PUBLIC "-//W3C//DTD SVG 20010904//EN"
 "http://www.w3.org/TR/2001/REC-SVG-20010904/DTD/svg10.dtd">
<svg version="1.0" xmlns="http://www.w3.org/2000/svg"
 width="500.000000pt" height="500.000000pt" viewBox="0 0 500.000000 500.000000"
 preserveAspectRatio="xMidYMid meet">

<g transform="translate(0.000000,500.000000) scale(0.100000,-0.100000)"
fill="#000000" stroke="none">
<path d="M1997 4989 c-61 -15 -136 -57 -184 -105 -70 -70 -97 -142 -133 -348
-22 -132 -37 -190 -54 -220 -57 -97 -148 -150 -256 -149 -55 0 -91 10 -230 62
-192 72 -259 83 -359 57 -127 -33 -179 -80 -287 -262 -204 -344 -385 -671
-399 -717 -32 -109 -9 -245 58 -336 18 -24 97 -98 177 -165 175 -147 201 -186
201 -306 1 -120 -25 -158 -205 -310 -158 -133 -202 -186 -231 -276 -24 -78
-17 -191 17 -264 28 -63 392 -697 447 -780 75 -113 206 -177 344 -167 56 4
109 19 237 67 140 54 175 63 230 63 108 1 199 -52 256 -149 17 -30 32 -88 54
-220 46 -267 98 -356 248 -427 l67 -32 505 0 505 0 67 32 c150 71 202 160 247
426 33 191 48 231 108 289 56 54 124 82 203 81 55 0 90 -10 230 -63 127 -48
181 -63 236 -67 123 -9 246 42 318 131 65 81 471 790 491 859 32 108 11 236
-55 331 -17 25 -79 85 -137 133 -166 136 -191 161 -219 218 -20 43 -26 69 -26
126 0 118 27 159 202 305 80 67 160 141 177 165 42 56 73 155 73 228 0 109 8
93 -424 844 -88 153 -154 212 -276 243 -103 26 -169 16 -360 -57 -140 -53
-175 -62 -230 -62 -108 -1 -199 52 -256 149 -17 30 -32 88 -54 220 -46 267
-98 356 -248 427 l-67 32 -485 2 c-267 1 -502 -3 -523 -8z m917 -406 c3 -16
17 -92 31 -171 28 -158 49 -221 99 -305 92 -153 242 -266 416 -313 79 -21 243
-24 317 -5 29 7 117 37 195 67 112 42 145 51 154 41 29 -30 405 -700 398 -706
-5 -4 -60 -49 -121 -100 -62 -51 -135 -117 -162 -148 -216 -242 -216 -644 0
-886 28 -31 100 -98 162 -148 62 -51 116 -95 121 -100 7 -6 -369 -676 -398
-706 -8 -9 -43 0 -154 42 -189 71 -229 80 -347 79 -116 -1 -199 -20 -299 -70
-209 -105 -325 -268 -373 -526 -14 -73 -29 -157 -35 -186 l-9 -52 -409 0 -408
0 -6 28 c-3 15 -17 90 -31 168 -14 78 -31 159 -39 181 -75 214 -254 379 -476
439 -79 21 -243 24 -317 5 -29 -7 -117 -37 -195 -67 -112 -42 -145 -51 -154
-41 -7 6 -101 167 -209 355 -163 285 -195 346 -184 356 8 7 62 51 120 99 59
47 130 112 157 143 217 243 217 645 1 887 -28 31 -100 98 -162 148 -62 51
-116 95 -121 100 -7 6 369 676 398 706 9 10 42 1 154 -41 78 -30 166 -60 195
-67 73 -19 238 -16 316 5 189 51 353 183 438 350 39 78 51 119 78 270 14 78
28 153 31 169 l6 27 408 0 408 0 6 -27z"/>
<path d="M2337 3450 c-301 -54 -562 -251 -698 -525 -77 -156 -93 -228 -93
-425 0 -197 16 -269 93 -425 120 -242 332 -420 597 -501 82 -26 103 -28 259
-28 200 -1 266 14 430 94 241 117 421 331 501 596 25 82 28 103 28 259 0 202
-15 273 -93 430 -121 243 -335 423 -597 501 -74 22 -113 27 -234 30 -80 1
-167 -1 -193 -6z m307 -396 c97 -25 174 -71 256 -154 119 -119 170 -238 170
-400 0 -162 -51 -281 -170 -400 -119 -119 -238 -170 -400 -170 -162 0 -281 51
-400 170 -119 119 -170 238 -170 400 0 162 51 281 170 400 119 120 232 168
394 169 50 1 114 -6 150 -15z"/>
</g>
</svg>
