<?xml version="1.0" standalone="no"?>
<!DOCTYPE svg PUBLIC "-//W3C//DTD SVG 20010904//EN"
 "http://www.w3.org/TR/2001/REC-SVG-20010904/DTD/svg10.dtd">
<svg version="1.0" xmlns="http://www.w3.org/2000/svg"
 width="500.000000pt" height="500.000000pt" viewBox="0 0 500.000000 500.000000"
 preserveAspectRatio="xMidYMid meet">

<g transform="translate(0.000000,500.000000) scale(0.100000,-0.100000)"
fill="#000000" stroke="none">
<path d="M4105 4826 c-101 -20 -173 -50 -251 -105 -83 -59 -2308 -2283 -2322
-2321 -5 -14 -71 -241 -147 -505 -155 -540 -154 -529 -86 -596 67 -67 56 -69
596 85 265 76 495 144 511 152 16 8 545 531 1176 1162 l1146 1147 41 85 c67
138 85 273 55 417 -58 282 -275 466 -571 487 -47 3 -105 0 -148 -8z m246 -328
c137 -63 208 -223 166 -369 -16 -53 -91 -159 -129 -183 -15 -9 -49 20 -233
204 -118 118 -215 220 -215 225 0 13 62 73 105 102 83 57 210 65 306 21z
m-416 -568 l220 -220 -905 -905 c-498 -498 -907 -905 -910 -905 -7 0 -440 433
-440 440 0 6 1803 1810 1810 1810 3 0 104 -99 225 -220z m-1913 -2181 c-11
-11 -373 -111 -379 -106 -4 5 93 362 104 381 3 4 68 -54 144 -130 76 -76 135
-141 131 -145z"/>
<path d="M501 4044 c-149 -40 -282 -172 -325 -324 -15 -50 -16 -216 -14 -1630
l3 -1575 23 -57 c54 -133 165 -237 299 -278 64 -20 91 -20 1623 -20 1498 0
1561 1 1619 19 33 10 80 30 103 44 55 32 149 131 177 185 52 101 51 88 51
1068 l0 911 -23 33 c-37 55 -72 75 -132 75 -58 0 -91 -18 -129 -69 -21 -27
-21 -38 -26 -941 -5 -907 -5 -914 -26 -942 -11 -15 -36 -38 -54 -50 l-33 -23
-1525 0 -1524 0 -38 21 c-21 12 -47 38 -59 59 l-21 38 0 1524 0 1525 23 33
c12 18 35 43 50 54 28 21 35 21 942 26 903 5 914 5 941 26 51 38 69 71 69 129
0 60 -20 95 -75 133 l-33 22 -916 -1 c-769 0 -925 -3 -970 -15z"/>
</g>
</svg>
