<?xml version="1.0" standalone="no"?>
<!DOCTYPE svg PUBLIC "-//W3C//DTD SVG 20010904//EN"
 "http://www.w3.org/TR/2001/REC-SVG-20010904/DTD/svg10.dtd">
<svg version="1.0" xmlns="http://www.w3.org/2000/svg"
 width="500.000000pt" height="500.000000pt" viewBox="0 0 500.000000 500.000000"
 preserveAspectRatio="xMidYMid meet">

<g transform="translate(0.000000,500.000000) scale(0.100000,-0.100000)"
fill="#000000" stroke="none">
<path d="M1247 4366 c-38 -14 -488 -448 -983 -948 -258 -260 -270 -278 -262
-386 3 -48 11 -68 40 -108 20 -27 290 -302 600 -610 618 -616 603 -603 707
-591 169 20 261 198 177 341 -13 22 -238 254 -500 515 l-476 474 483 483 c504
506 527 533 526 614 -1 156 -163 269 -312 216z"/>
<path d="M2470 4359 c-34 -15 -183 -159 -617 -593 -617 -618 -617 -618 -616
-718 1 -27 10 -67 22 -91 26 -53 1151 -1181 1208 -1211 80 -43 198 -20 265 51
63 66 63 64 64 555 0 246 3 450 6 453 8 8 174 -21 268 -46 259 -70 542 -214
740 -377 328 -271 573 -651 671 -1045 35 -140 48 -233 58 -412 10 -182 35
-234 136 -281 116 -55 254 -5 306 111 30 65 26 235 -12 452 -35 210 -56 292
-105 433 -210 601 -627 1082 -1184 1365 -263 133 -550 223 -800 251 -36 3 -71
11 -77 17 -10 7 -13 111 -13 456 0 505 -2 519 -67 583 -71 69 -166 87 -253 47z"/>
</g>
</svg>
