<?xml version="1.0" standalone="no"?>
<!DOCTYPE svg PUBLIC "-//W3C//DTD SVG 20010904//EN"
 "http://www.w3.org/TR/2001/REC-SVG-20010904/DTD/svg10.dtd">
<svg version="1.0" xmlns="http://www.w3.org/2000/svg"
 width="500.000000pt" height="500.000000pt" viewBox="0 0 500.000000 500.000000"
 preserveAspectRatio="xMidYMid meet">
<metadata>
Created by potrace 1.16, written by Peter Selinger 2001-2019
</metadata>
<g transform="translate(0.000000,500.000000) scale(0.100000,-0.100000)"
fill="#000000" stroke="none">
<path d="M996 4970 c-238 -100 -352 -337 -317 -663 7 -59 29 -178 51 -264 65
-265 74 -324 74 -488 1 -220 -20 -297 -181 -674 -271 -638 -376 -1102 -360
-1591 15 -459 152 -854 407 -1174 95 -120 80 -116 502 -116 290 0 362 3 391
15 77 32 227 235 327 440 209 431 254 961 130 1539 -63 294 -175 632 -303 906
-52 112 -125 303 -149 389 -26 97 -35 308 -18 435 7 50 32 170 55 266 55 222
65 292 65 432 0 202 -46 335 -150 439 -99 100 -199 139 -350 138 -92 0 -113
-4 -174 -29z m274 -162 c92 -28 167 -109 200 -216 22 -71 28 -239 11 -328 -5
-27 -12 -69 -16 -94 -3 -25 -15 -76 -25 -115 -10 -38 -28 -119 -40 -179 -11
-59 -23 -112 -26 -117 -3 -5 -94 -9 -203 -9 l-197 0 -13 78 c-7 42 -31 149
-52 237 -50 202 -66 338 -52 438 34 238 207 366 413 305z m101 -1343 c5 -99
12 -149 25 -196 4 -15 -17 -17 -217 -18 l-222 -2 7 48 c20 129 25 182 26 231
l0 52 188 -2 187 -3 6 -110z m90 -422 c7 -21 34 -87 61 -148 134 -298 247
-604 298 -804 26 -106 58 -278 64 -347 3 -33 10 -104 16 -159 18 -183 10 -389
-25 -630 -24 -164 -119 -402 -229 -573 -46 -73 -129 -179 -154 -199 -12 -10
-92 -13 -321 -13 l-304 0 -45 46 c-108 113 -225 330 -296 550 -71 221 -90 377
-83 673 7 294 47 526 147 846 18 55 33 107 35 115 2 8 4 16 4 18 1 1 1 4 1 7
1 9 51 139 70 180 46 101 164 375 182 423 l19 52 274 0 273 0 13 -37z"/>
<path d="M744 2178 c-12 -5 -27 -20 -32 -32 -29 -56 -70 -248 -87 -396 -2 -25
-9 -85 -15 -135 -13 -117 -13 -388 0 -495 6 -47 13 -101 15 -120 20 -165 106
-383 222 -557 61 -93 84 -113 129 -113 50 0 79 30 79 82 -1 35 -11 59 -59 130
-83 128 -137 252 -175 403 -39 160 -46 227 -45 430 0 224 14 341 68 580 30
133 32 154 21 182 -21 49 -70 66 -121 41z"/>
<path d="M2821 3499 c-274 -29 -568 -137 -801 -295 -146 -98 -170 -122 -177
-171 -5 -35 -2 -45 20 -67 46 -46 83 -37 189 44 163 124 423 242 628 284 41 9
128 21 193 28 327 32 709 -66 992 -255 349 -234 580 -569 674 -977 83 -359 36
-713 -141 -1065 -95 -188 -217 -342 -378 -477 -245 -206 -527 -328 -840 -363
-92 -11 -313 -8 -390 4 -36 6 -87 13 -115 17 -113 14 -299 89 -495 199 -25 14
-55 25 -67 25 -69 0 -115 -71 -83 -131 25 -46 234 -153 417 -214 197 -65 299
-80 553 -80 242 0 322 10 494 60 90 26 114 35 271 108 662 305 1075 1056 980
1782 -61 465 -267 846 -620 1144 -350 297 -843 448 -1304 400z"/>
<path d="M3527 2999 c-69 -11 -130 -50 -163 -106 -24 -42 -28 -59 -28 -133 -1
-75 2 -90 26 -131 35 -59 107 -125 166 -152 62 -28 171 -30 224 -3 85 42 128
119 128 230 0 80 -32 147 -97 207 -83 78 -156 102 -256 88z m106 -196 c56 -28
89 -132 52 -163 -20 -17 -77 -7 -115 20 -59 42 -80 125 -38 154 23 17 53 13
101 -11z"/>
<path d="M3949 2447 c-72 -27 -103 -52 -132 -107 -26 -49 -28 -63 -25 -130 4
-92 33 -155 96 -211 72 -63 125 -84 213 -84 67 0 81 4 124 30 73 45 100 104
100 215 0 75 -3 91 -30 138 -16 30 -43 65 -60 79 -75 64 -212 97 -286 70z
m154 -195 c55 -52 73 -115 41 -146 -48 -49 -168 27 -179 112 -9 71 77 92 138
34z"/>
<path d="M3306 2396 c-60 -23 -89 -47 -115 -101 -62 -123 -29 -252 92 -352 59
-50 134 -75 213 -72 136 6 207 92 206 250 0 115 -55 204 -157 257 -62 32 -178
40 -239 18z m132 -160 c15 -8 39 -27 53 -43 59 -63 66 -114 18 -139 -30 -15
-33 -14 -78 8 -80 42 -115 124 -71 168 24 24 41 25 78 6z"/>
<path d="M4287 1829 c-33 -19 -47 -65 -47 -151 -1 -133 -49 -319 -119 -459
-96 -193 -218 -343 -380 -465 -187 -142 -473 -244 -683 -244 -71 0 -124 -20
-139 -54 -16 -35 -3 -91 26 -110 31 -21 148 -21 270 -1 516 83 948 439 1126
926 53 147 95 456 70 517 -19 45 -81 66 -124 41z"/>
</g>
</svg>
