<?xml version="1.0" standalone="no"?>
<!DOCTYPE svg PUBLIC "-//W3C//DTD SVG 20010904//EN"
 "http://www.w3.org/TR/2001/REC-SVG-20010904/DTD/svg10.dtd">
<svg version="1.0" xmlns="http://www.w3.org/2000/svg"
 width="500.000000pt" height="500.000000pt" viewBox="0 0 500.000000 500.000000"
 preserveAspectRatio="xMidYMid meet">

<g transform="translate(0.000000,500.000000) scale(0.100000,-0.100000)"
fill="#000000" stroke="none">
<path d="M1585 4561 c-74 -33 -125 -113 -125 -197 l0 -31 -85 -12 c-347 -48
-648 -284 -778 -608 -74 -184 -70 -126 -74 -1228 -3 -666 -1 -1027 7 -1103 44
-461 383 -805 840 -852 138 -14 2122 -14 2260 0 451 47 793 389 840 841 13
133 13 1936 0 2068 -48 464 -410 834 -867 886 -62 7 -63 7 -63 38 0 117 -94
216 -206 217 -50 0 -133 -40 -160 -77 -27 -36 -44 -88 -44 -129 l0 -34 -630 0
-630 0 0 39 c0 23 -11 60 -28 92 -49 94 -162 133 -257 90z m1559 -670 c15 -51
82 -117 135 -131 102 -27 207 30 242 130 14 38 31 38 137 5 187 -59 339 -217
386 -401 12 -47 16 -112 16 -268 l0 -206 -1560 0 -1560 0 0 206 c0 228 9 282
62 388 39 78 162 201 243 243 59 31 163 63 203 63 13 0 24 -10 31 -30 46 -133
212 -180 314 -90 33 29 48 52 67 103 l10 27 632 -2 632 -3 10 -34z m-1387
-1412 c73 -35 123 -115 123 -196 0 -51 -48 -132 -98 -164 -88 -55 -182 -47
-257 22 -50 46 -67 88 -67 160 2 146 164 243 299 178z m821 5 c188 -78 168
-343 -30 -396 -159 -42 -306 128 -242 280 44 107 168 160 272 116z m853 -7
c127 -67 150 -235 46 -333 -76 -73 -170 -81 -261 -23 -35 22 -53 43 -71 82
-39 82 -30 152 27 221 62 76 173 98 259 53z m-1652 -844 c51 -31 101 -114 101
-166 0 -129 -108 -227 -235 -214 -110 11 -185 92 -185 199 0 71 17 112 63 156
71 68 170 77 256 25z m782 26 c152 -46 198 -243 83 -351 -106 -99 -274 -65
-335 67 -38 82 -14 186 55 241 63 51 125 64 197 43z m833 0 c49 -13 122 -80
136 -125 49 -147 -51 -285 -204 -284 -110 1 -206 101 -206 216 0 40 48 133 81
157 31 23 96 46 129 47 14 0 42 -5 64 -11z"/>
</g>
</svg>
