<?xml version="1.0" standalone="no"?>
<!DOCTYPE svg PUBLIC "-//W3C//DTD SVG 20010904//EN"
 "http://www.w3.org/TR/2001/REC-SVG-20010904/DTD/svg10.dtd">
<svg version="1.0" xmlns="http://www.w3.org/2000/svg"
 width="500.000000pt" height="500.000000pt" viewBox="0 0 500.000000 500.000000"
 preserveAspectRatio="xMidYMid meet">

<g transform="translate(0.000000,500.000000) scale(0.100000,-0.100000)"
fill="#000000" stroke="none">
<path d="M2052 4987 c-46 -21 -123 -213 -142 -350 -15 -102 -1 -181 50 -282
32 -64 40 -91 40 -135 0 -71 -22 -154 -66 -253 -32 -70 -34 -81 -24 -112 6
-19 21 -42 33 -50 28 -20 87 -19 115 1 46 32 116 210 132 340 14 108 0 188
-49 286 -31 62 -41 93 -41 131 0 65 24 155 66 250 41 90 39 122 -8 162 -31 27
-68 31 -106 12z"/>
<path d="M2840 4987 c-56 -28 -137 -243 -147 -387 -7 -100 9 -165 63 -267 23
-44 34 -78 34 -107 0 -59 -32 -178 -69 -256 -39 -82 -39 -113 -2 -151 32 -31
84 -39 122 -18 24 13 81 127 111 224 18 55 22 95 23 190 l0 120 -42 85 c-38
74 -43 93 -43 151 0 72 27 173 66 251 33 66 32 112 -5 149 -32 32 -69 37 -111
16z"/>
<path d="M3616 4979 c-33 -26 -65 -89 -102 -199 -24 -74 -28 -101 -28 -210
l-1 -125 44 -85 c43 -83 43 -85 39 -165 -4 -62 -13 -101 -43 -175 -20 -52 -40
-114 -42 -137 -4 -36 -1 -46 22 -68 37 -34 102 -35 132 -2 30 32 66 109 98
207 24 71 28 103 29 196 l1 111 -44 87 c-27 53 -46 105 -48 134 -6 62 19 165
62 259 19 42 35 84 35 94 0 78 -93 126 -154 78z"/>
<path d="M1034 4411 c-46 -28 -77 -77 -82 -131 -6 -63 12 -112 53 -149 153
-134 371 51 265 224 -43 69 -166 99 -236 56z"/>
<path d="M4501 4358 c-4 -13 -19 -52 -31 -88 -13 -36 -29 -71 -36 -79 -7 -8
-46 -28 -86 -46 -106 -47 -105 -63 8 -117 l87 -43 30 -85 c16 -47 33 -90 39
-97 19 -24 37 0 68 92 l33 93 89 41 c68 31 89 45 86 59 -2 10 -36 33 -88 58
l-85 41 -35 94 c-37 99 -62 123 -79 77z"/>
<path d="M472 3757 c-6 -7 -31 -67 -55 -132 l-44 -120 -69 -32 c-150 -71 -159
-76 -159 -103 0 -27 9 -32 160 -103 l70 -33 43 -119 c67 -187 81 -188 142 -12
24 67 48 127 54 133 6 5 60 32 119 59 104 46 108 49 105 77 -3 27 -12 33 -110
77 -60 26 -111 51 -115 55 -4 4 -28 64 -53 134 -45 126 -62 150 -88 119z"/>
<path d="M2606 3569 c-437 -45 -817 -168 -1100 -356 -110 -73 -243 -195 -313
-286 -95 -124 -172 -308 -189 -455 l-6 -59 -64 -7 c-100 -10 -244 -51 -324
-91 -183 -92 -269 -247 -270 -483 -1 -425 355 -818 821 -907 98 -18 280 -21
369 -5 l62 11 41 -36 c35 -29 194 -150 260 -197 17 -13 17 -14 0 -48 -13 -25
-18 -57 -18 -110 0 -64 4 -83 30 -128 96 -174 377 -324 730 -388 139 -25 449
-25 590 0 424 76 728 273 761 492 5 37 -9 106 -32 160 -3 6 39 42 93 80 128
90 326 283 423 412 267 356 405 782 387 1202 -12 276 -101 477 -301 675 -260
259 -678 438 -1187 510 -135 20 -626 28 -763 14z m699 -204 c647 -83 1115
-338 1286 -701 59 -125 73 -195 72 -364 -3 -402 -157 -800 -432 -1117 -292
-337 -737 -555 -1187 -581 -330 -20 -601 35 -889 178 -570 284 -932 837 -962
1472 -13 275 59 467 247 655 272 271 692 424 1310 477 92 8 439 -4 555 -19z
m-2303 -1229 l3 -69 -46 -12 c-65 -17 -147 -64 -175 -100 -27 -36 -54 -131
-54 -190 0 -199 164 -395 397 -476 31 -10 87 -22 125 -26 l68 -6 55 -74 c30
-41 55 -76 55 -79 0 -2 -33 -4 -73 -4 -462 0 -873 404 -817 802 16 114 47 170
118 216 33 21 93 48 133 60 81 24 190 42 201 33 4 -3 8 -37 10 -75z m59 -304
c31 -120 101 -303 150 -391 17 -29 29 -55 26 -57 -7 -7 -110 27 -162 53 -64
33 -165 135 -195 198 -48 99 -36 231 24 270 33 22 97 45 114 42 9 -1 25 -46
43 -115z m1107 -1276 c123 -53 288 -103 413 -127 145 -26 405 -36 549 -20 194
22 428 85 590 159 48 22 70 16 70 -20 0 -97 -200 -229 -452 -298 -262 -72
-609 -66 -875 15 -117 36 -253 107 -319 168 -66 60 -87 99 -71 134 5 13 11 23
13 23 1 0 38 -15 82 -34z"/>
<path d="M2667 3260 c-781 -75 -1334 -417 -1304 -807 25 -335 490 -594 1197
-669 214 -22 665 -15 860 15 630 94 1017 321 1071 627 14 81 0 157 -47 253
-131 267 -575 490 -1124 566 -134 19 -524 28 -653 15z m544 -120 c363 -37 674
-134 899 -281 94 -62 201 -172 236 -244 39 -80 41 -186 5 -254 -50 -95 -162
-191 -309 -265 -418 -211 -1161 -274 -1768 -151 -388 79 -689 242 -770 419
-22 49 -26 68 -22 129 5 93 32 150 115 237 188 200 558 353 963 399 52 6 109
13 125 15 71 8 432 5 526 -4z"/>
<path d="M2627 3019 c-78 -18 -137 -67 -137 -114 0 -41 38 -72 207 -171 162
-95 170 -98 228 -99 57 0 68 4 200 79 77 44 159 92 181 107 84 57 75 131 -20
178 -40 20 -65 25 -131 25 -76 1 -88 -2 -155 -37 l-72 -38 -47 26 c-84 48
-173 63 -254 44z"/>
<path d="M2367 2569 c-122 -16 -231 -64 -274 -119 -7 -8 -13 -30 -13 -48 0
-64 36 -86 390 -236 363 -155 411 -168 530 -148 71 12 652 251 717 295 121 82
51 194 -154 244 -45 10 -113 16 -198 16 -146 0 -219 -15 -359 -76 l-78 -35
-91 40 c-50 21 -118 45 -151 53 -83 19 -236 26 -319 14z"/>
<path d="M3989 1392 c-9 -4 -49 -41 -88 -83 -77 -84 -88 -116 -49 -143 12 -9
29 -16 38 -16 8 0 51 36 94 79 86 87 98 119 56 153 -24 19 -27 20 -51 10z"/>
<path d="M3525 1038 c-142 -73 -327 -122 -519 -137 -88 -6 -112 -12 -123 -26
-19 -27 -16 -59 7 -80 17 -16 32 -17 119 -12 187 13 381 61 544 136 111 51
139 89 97 131 -27 27 -54 25 -125 -12z"/>
</g>
</svg>
