<?xml version="1.0" standalone="no"?>
<!DOCTYPE svg PUBLIC "-//W3C//DTD SVG 20010904//EN"
 "http://www.w3.org/TR/2001/REC-SVG-20010904/DTD/svg10.dtd">
<svg version="1.0" xmlns="http://www.w3.org/2000/svg"
 width="500.000000pt" height="500.000000pt" viewBox="0 0 500.000000 500.000000"
 preserveAspectRatio="xMidYMid meet">

<g transform="translate(0.000000,500.000000) scale(0.100000,-0.100000)"
fill="#000000" stroke="none">
<path d="M1055 4333 c-78 -6 -219 -35 -289 -60 -511 -184 -826 -693 -755
-1220 65 -486 433 -875 918 -969 92 -18 301 -20 394 -4 37 7 70 10 72 8 3 -2
-2 -39 -10 -82 -21 -111 -19 -319 4 -431 52 -247 181 -469 363 -626 224 -193
457 -280 748 -280 260 0 497 79 689 231 44 35 51 45 51 75 0 41 -29 75 -63 75
-13 0 -66 -29 -119 -63 -104 -70 -207 -117 -326 -149 -111 -30 -353 -30 -464
0 -292 80 -525 267 -655 527 -130 260 -135 582 -14 841 124 264 337 452 610
538 171 54 395 57 557 8 57 -17 58 -18 106 -102 118 -205 277 -358 479 -460
l76 -39 21 -73 c73 -251 48 -506 -74 -737 -51 -97 -55 -131 -18 -160 32 -25
52 -26 81 -6 54 38 148 258 177 415 20 105 21 314 1 416 -8 43 -13 80 -10 82
2 2 35 -1 72 -8 93 -16 302 -14 394 4 324 63 609 264 772 544 194 333 207 727
36 1077 -52 108 -92 155 -130 155 -61 0 -90 -72 -50 -128 55 -79 110 -219 137
-352 24 -122 15 -322 -20 -445 -102 -351 -370 -609 -721 -696 -326 -80 -682
19 -921 256 -216 215 -317 488 -292 795 9 115 38 222 92 335 128 269 369 464
663 537 126 31 332 31 457 0 116 -29 231 -80 323 -142 87 -59 123 -63 156 -18
17 22 19 33 11 55 -12 35 -87 92 -197 149 -172 89 -329 127 -522 127 -366 -1
-695 -168 -920 -468 -98 -131 -179 -334 -206 -515 -14 -98 -7 -296 15 -383
l14 -59 -47 7 c-146 23 -324 22 -446 -1 -41 -7 -40 -11 -20 101 40 224 -1 489
-111 706 -48 96 -78 129 -119 129 -34 0 -75 -36 -75 -66 0 -8 20 -51 45 -97
90 -167 126 -304 126 -483 0 -120 -11 -199 -41 -297 -18 -58 -23 -63 -63 -80
-72 -29 -219 -130 -296 -202 -85 -81 -154 -170 -217 -282 l-46 -82 -91 -22
c-123 -30 -325 -33 -442 -5 -301 70 -545 262 -675 531 -78 161 -95 239 -95
435 1 170 8 219 55 348 94 255 304 469 561 570 125 50 218 67 369 66 212 0
374 -49 551 -167 47 -32 95 -57 108 -57 25 0 71 42 71 65 0 21 -19 57 -39 72
-211 166 -503 255 -776 236z"/>
<path d="M3410 3631 c-51 -16 -89 -41 -122 -81 -56 -64 -75 -158 -40 -198 44
-53 114 -26 127 47 4 22 18 51 32 65 52 52 143 23 158 -51 16 -78 66 -111 114
-76 70 53 19 208 -89 267 -54 29 -136 42 -180 27z"/>
<path d="M4184 3626 c-94 -30 -164 -121 -164 -212 0 -55 5 -66 37 -83 49 -26
95 9 107 81 14 76 106 105 159 50 15 -15 27 -35 27 -44 0 -63 51 -108 103 -89
36 14 50 46 43 98 -20 148 -172 245 -312 199z"/>
<path d="M570 3480 c-26 -26 -26 -81 -2 -103 16 -14 43 -17 169 -17 138 0 151
2 168 20 26 29 24 79 -4 102 -20 16 -42 18 -167 18 -131 0 -146 -2 -164 -20z"/>
<path d="M1370 3480 c-24 -24 -26 -67 -4 -98 14 -21 21 -22 168 -22 141 0 154
2 171 20 26 29 24 79 -4 102 -20 16 -42 18 -167 18 -131 0 -146 -2 -164 -20z"/>
<path d="M1013 3066 c-155 -50 -271 -195 -281 -351 -5 -78 5 -99 55 -111 44
-11 77 23 85 89 12 96 60 169 140 213 44 23 65 28 123 28 59 0 79 -5 124 -29
86 -47 141 -134 141 -222 0 -39 37 -83 70 -83 59 0 82 46 68 136 -20 130 -107
247 -227 307 -58 28 -76 32 -161 34 -59 2 -111 -3 -137 -11z"/>
<path d="M3474 3059 c-14 -15 -18 -33 -16 -72 6 -157 110 -299 262 -359 42
-17 76 -22 145 -22 69 0 103 5 145 22 151 60 256 203 263 359 3 63 -20 93 -70
93 -41 0 -73 -30 -73 -68 0 -52 -29 -128 -67 -171 -94 -110 -261 -123 -369
-28 -50 44 -79 94 -89 152 -11 72 -15 83 -31 99 -22 23 -77 20 -100 -5z"/>
<path d="M2152 2187 c-20 -21 -22 -34 -22 -155 0 -119 2 -134 20 -152 26 -26
81 -26 104 -1 36 40 32 275 -5 312 -26 26 -71 24 -97 -4z"/>
<path d="M2750 2190 c-18 -18 -20 -33 -20 -158 0 -122 2 -141 18 -155 25 -23
78 -21 102 3 18 18 20 33 20 149 0 115 -2 131 -21 155 -25 32 -70 35 -99 6z"/>
<path d="M2097 1513 c-27 -31 -26 -74 3 -103 19 -19 33 -20 400 -20 367 0 381
1 400 20 26 26 26 81 2 103 -17 15 -59 17 -404 17 -354 0 -386 -1 -401 -17z"/>
</g>
</svg>
