<?xml version="1.0" standalone="no"?>
<!DOCTYPE svg PUBLIC "-//W3C//DTD SVG 20010904//EN"
 "http://www.w3.org/TR/2001/REC-SVG-20010904/DTD/svg10.dtd">
<svg version="1.0" xmlns="http://www.w3.org/2000/svg"
 width="500.000000pt" height="500.000000pt" viewBox="0 0 500.000000 500.000000"
 preserveAspectRatio="xMidYMid meet">

<g transform="translate(0.000000,500.000000) scale(0.100000,-0.100000)"
fill="#000000" stroke="none">
<path d="M2739 4985 c-39 -21 -47 -54 -53 -228 -17 -462 -146 -898 -362 -1222
-103 -155 -81 -150 -215 -56 -272 191 -455 262 -562 217 -40 -16 -83 -66 -95
-109 -5 -18 -80 -201 -167 -407 -209 -500 -629 -1498 -885 -2110 -374 -890
-400 -953 -400 -971 0 -49 49 -99 97 -99 17 0 492 196 1148 473 138 58 502
211 810 340 308 129 772 324 1030 432 259 109 485 202 503 207 45 13 99 62
113 105 37 112 -52 322 -252 593 -38 52 -65 97 -61 101 29 26 336 134 482 170
73 18 96 28 116 51 41 50 23 123 -36 148 -26 11 -43 10 -108 -5 -118 -27 -341
-101 -454 -152 -57 -25 -112 -47 -123 -50 -15 -3 -35 14 -85 74 -91 109 -471
494 -614 621 -66 59 -135 121 -154 138 l-35 30 45 60 c215 283 368 672 429
1089 20 142 40 454 31 500 -6 33 -57 75 -90 75 -15 -1 -39 -7 -53 -15z m-1027
-1496 c77 -30 235 -129 377 -235 2 -2 -6 -16 -18 -32 -43 -61 -15 -145 53
-158 36 -6 66 5 103 39 l22 20 34 -26 c161 -122 640 -597 766 -759 l21 -26
-35 -22 c-71 -44 -81 -116 -23 -165 38 -32 71 -31 136 4 l52 29 80 -106 c119
-160 244 -381 226 -400 -21 -20 -249 114 -441 258 -205 154 -351 285 -611 544
-320 320 -536 577 -689 816 -72 113 -131 240 -110 240 2 0 28 -9 57 -21z m-77
-371 c234 -349 318 -534 370 -823 25 -137 31 -423 11 -571 -19 -148 -70 -354
-121 -489 -44 -119 -126 -289 -158 -327 -13 -17 -58 -43 -117 -67 -52 -21 -96
-38 -98 -36 -1 1 6 36 18 76 32 116 41 194 41 339 -1 311 -93 630 -299 1032
l-95 188 38 92 c21 51 43 105 49 121 6 15 14 27 18 27 14 0 134 -170 184 -259
53 -96 76 -120 116 -121 61 0 102 40 100 99 -1 56 -116 246 -246 408 -36 45
-66 84 -66 88 0 3 35 90 77 192 63 152 79 183 88 168 5 -10 46 -71 90 -137z
m978 -1087 c75 -68 137 -128 137 -135 0 -46 -26 -208 -46 -285 -40 -152 -126
-314 -207 -390 -24 -21 -467 -214 -476 -206 -1 2 15 48 37 102 166 408 213
902 123 1296 -9 37 -3 32 142 -110 84 -82 214 -204 290 -272z m-1462 55 c99
-211 172 -417 210 -597 19 -85 23 -136 23 -279 0 -201 -16 -278 -80 -401 -60
-114 -91 -141 -233 -198 l-123 -50 6 32 c33 163 32 346 -3 497 -24 107 -71
242 -118 342 -22 48 -33 84 -29 95 47 129 283 670 289 666 6 -3 31 -52 58
-107z m1871 -387 c45 -33 119 -83 165 -111 46 -28 82 -53 80 -54 -7 -7 -440
-185 -443 -182 -1 2 12 44 31 94 19 50 44 141 57 202 12 62 24 112 25 112 2 0
40 -27 85 -61z m-2300 -510 c37 -106 59 -238 59 -353 0 -120 -9 -179 -40 -269
-39 -111 -35 -108 -255 -201 -110 -47 -201 -84 -202 -83 -2 1 64 160 145 352
81 193 172 410 202 482 30 73 58 132 63 130 5 -2 18 -28 28 -58z"/>
<path d="M1631 2226 c-53 -30 -66 -97 -26 -144 30 -36 69 -45 112 -27 39 16
53 42 53 93 0 70 -76 113 -139 78z"/>
<path d="M3712 4981 c-74 -25 -122 -67 -159 -140 -28 -54 -33 -73 -33 -134 1
-302 400 -402 544 -137 37 67 44 146 22 225 -14 46 -29 70 -75 116 -87 86
-185 109 -299 70z m155 -196 c29 -20 46 -75 34 -107 -5 -14 -22 -35 -37 -47
-91 -71 -207 58 -125 140 34 33 91 40 128 14z"/>
<path d="M1309 4885 c-54 -30 -61 -104 -14 -151 45 -44 133 -23 154 38 30 86
-58 157 -140 113z"/>
<path d="M1847 4636 c-88 -33 -157 -102 -185 -185 -17 -48 -15 -139 4 -194 20
-60 79 -126 140 -157 67 -34 198 -36 260 -3 63 34 97 66 129 125 27 47 30 63
30 138 0 75 -3 91 -29 138 -31 55 -74 95 -136 127 -46 24 -163 30 -213 11z
m129 -191 c84 -35 72 -161 -18 -180 -59 -13 -118 35 -118 98 0 40 52 93 93 96
4 1 23 -6 43 -14z"/>
<path d="M847 4544 c-22 -22 -27 -36 -29 -92 l-3 -67 -68 -5 c-62 -5 -72 -8
-98 -38 -38 -42 -38 -82 0 -124 26 -30 35 -33 100 -36 l71 -4 0 -65 c0 -58 3
-67 29 -94 38 -37 88 -39 128 -5 24 21 28 32 31 95 l4 71 52 0 c98 0 159 60
134 131 -17 48 -43 63 -119 67 l-69 4 0 65 c0 58 -3 67 -29 94 -40 39 -97 41
-134 3z"/>
<path d="M3228 4254 c-34 -18 -48 -43 -48 -87 0 -68 59 -109 126 -87 81 27 83
151 3 179 -40 14 -48 14 -81 -5z"/>
<path d="M4460 4005 c-312 -52 -591 -177 -778 -347 -65 -58 -76 -93 -47 -147
17 -33 64 -56 98 -47 13 3 56 32 95 65 176 147 417 247 702 290 110 17 127 22
147 45 35 41 32 97 -8 130 -35 30 -83 33 -209 11z"/>
<path d="M4851 3997 c-69 -40 -66 -138 6 -172 44 -21 85 -12 118 27 33 39 32
80 -2 118 -33 36 -86 47 -122 27z"/>
<path d="M3173 3623 c-12 -2 -34 -18 -48 -34 -21 -26 -25 -41 -25 -95 l0 -64
-64 0 c-55 0 -69 -4 -95 -26 -42 -35 -44 -98 -5 -138 24 -23 35 -26 95 -26
l69 0 0 -60 c0 -73 13 -103 55 -126 26 -13 40 -15 65 -8 50 14 73 53 78 129
l4 65 65 0 c58 0 67 3 94 29 21 22 29 39 29 66 0 27 -8 44 -29 66 -27 26 -36
29 -95 29 l-66 0 0 43 c0 108 -48 165 -127 150z"/>
<path d="M4310 3283 c-61 -22 -142 -104 -163 -167 -27 -80 -22 -162 14 -234
32 -65 66 -99 133 -135 33 -17 58 -22 126 -22 96 0 143 18 205 80 62 62 80
109 80 205 0 77 -3 90 -31 140 -34 61 -105 121 -164 139 -52 15 -146 12 -200
-6z m168 -198 c39 -33 48 -74 27 -115 -45 -86 -166 -64 -182 33 -5 32 -1 41
30 72 43 43 82 46 125 10z"/>
<path d="M4264 2223 c-32 -6 -64 -45 -71 -86 -5 -32 -1 -41 31 -73 32 -32 41
-36 73 -31 41 7 79 38 87 73 10 39 -19 93 -58 109 -20 8 -37 14 -38 14 -2 -1
-13 -4 -24 -6z"/>
<path d="M4516 1464 c-39 -40 -37 -103 5 -138 71 -60 172 -2 155 90 -14 71
-108 100 -160 48z"/>
<path d="M4125 1106 c-39 -17 -54 -48 -57 -121 l-3 -60 -65 -5 c-80 -7 -105
-20 -120 -64 -9 -27 -8 -42 3 -69 20 -46 30 -51 112 -57 l70 -5 5 -71 c5 -77
15 -95 60 -114 35 -14 68 -8 101 19 20 16 25 31 29 93 l5 73 70 5 c82 6 92 11
112 57 11 27 12 42 3 69 -15 44 -40 57 -120 64 l-65 5 -3 60 c-3 74 -18 104
-59 122 -39 16 -40 16 -78 -1z"/>
</g>
</svg>
