<?xml version="1.0" standalone="no"?>
<!DOCTYPE svg PUBLIC "-//W3C//DTD SVG 20010904//EN"
 "http://www.w3.org/TR/2001/REC-SVG-20010904/DTD/svg10.dtd">
<svg version="1.0" xmlns="http://www.w3.org/2000/svg"
 width="500.000000pt" height="500.000000pt" viewBox="0 0 500.000000 500.000000"
 preserveAspectRatio="xMidYMid meet">

<g transform="translate(0.000000,500.000000) scale(0.100000,-0.100000)"
fill="#000000" stroke="none">
<path d="M2415 4878 c-52 -19 -114 -68 -136 -106 -12 -20 -150 -338 -308 -707
l-286 -670 -740 -67 c-800 -73 -783 -70 -858 -137 -61 -55 -82 -103 -82 -191
0 -93 20 -133 101 -210 33 -31 277 -246 544 -479 267 -233 496 -434 509 -447
l24 -22 -46 -204 c-26 -111 -99 -430 -162 -708 -127 -549 -133 -592 -95 -672
42 -89 146 -158 240 -158 62 0 138 41 605 320 270 161 554 331 633 378 l142
84 98 -57 c53 -32 338 -202 632 -378 338 -202 553 -326 585 -334 93 -26 193 4
258 77 50 55 69 101 70 170 0 50 -64 347 -218 1010 -107 457 -109 470 -89 490
11 10 260 228 554 485 294 257 547 486 563 508 53 78 60 182 18 265 -26 51
-98 115 -149 131 -22 8 -370 43 -773 80 l-734 66 -86 200 c-47 110 -180 420
-295 690 -224 524 -231 537 -319 580 -47 22 -156 30 -200 13z m340 -966 c137
-323 267 -622 288 -664 40 -82 83 -121 156 -146 19 -7 340 -40 715 -73 375
-34 685 -65 689 -69 4 -4 -221 -207 -501 -453 -280 -245 -523 -462 -540 -482
-40 -45 -66 -133 -58 -193 3 -24 26 -131 50 -236 24 -105 63 -272 85 -371 22
-99 70 -308 105 -465 36 -156 63 -286 61 -288 -2 -2 -268 155 -592 349 -323
193 -605 358 -627 365 -47 17 -121 18 -167 3 -19 -7 -301 -171 -627 -366 -327
-195 -595 -353 -597 -351 -2 2 40 197 94 433 215 938 216 946 203 1006 -23
101 11 67 -675 668 -235 206 -427 377 -427 380 0 3 310 34 689 69 379 34 704
68 723 74 52 18 99 54 129 98 16 23 149 324 296 670 147 347 270 630 273 630
3 0 117 -265 255 -588z"/>
</g>
</svg>
