<?xml version="1.0" standalone="no"?>
<!DOCTYPE svg PUBLIC "-//W3C//DTD SVG 20010904//EN"
 "http://www.w3.org/TR/2001/REC-SVG-20010904/DTD/svg10.dtd">
<svg version="1.0" xmlns="http://www.w3.org/2000/svg"
 width="500.000000pt" height="500.000000pt" viewBox="0 0 500.000000 500.000000"
 preserveAspectRatio="xMidYMid meet">

<g transform="translate(0.000000,500.000000) scale(0.100000,-0.100000)"
fill="#000000" stroke="none">
<path d="M2230 3975 c-370 -41 -722 -152 -1032 -326 -405 -228 -750 -522
-1067 -913 -118 -146 -131 -169 -131 -239 0 -64 20 -98 153 -260 351 -427 745
-743 1190 -957 415 -199 856 -287 1305 -260 363 21 684 104 1009 260 457 219
856 544 1211 984 131 162 132 164 132 235 0 51 -5 66 -35 111 -103 152 -374
448 -568 618 -639 561 -1418 830 -2167 747z m496 -449 c299 -65 575 -282 718
-564 135 -267 139 -628 8 -904 -99 -210 -315 -422 -529 -519 -315 -143 -711
-109 -998 84 -250 168 -418 427 -462 712 -57 373 80 730 373 974 143 119 296
191 481 226 96 18 306 14 409 -9z"/>
<path d="M2330 3038 c-135 -48 -239 -131 -315 -252 -55 -89 -76 -166 -76 -281
0 -169 46 -282 160 -395 120 -119 239 -170 401 -170 246 0 469 164 540 399 30
96 25 276 -9 363 -51 131 -154 239 -291 306 l-95 46 -125 4 c-109 2 -133 0
-190 -20z"/>
</g>
</svg>
