<?xml version="1.0" standalone="no"?>
<!DOCTYPE svg PUBLIC "-//W3C//DTD SVG 20010904//EN"
 "http://www.w3.org/TR/2001/REC-SVG-20010904/DTD/svg10.dtd">
<svg version="1.0" xmlns="http://www.w3.org/2000/svg"
 width="500.000000pt" height="500.000000pt" viewBox="0 0 500.000000 500.000000"
 preserveAspectRatio="xMidYMid meet">

<g transform="translate(0.000000,500.000000) scale(0.100000,-0.100000)"
fill="#000000" stroke="none">
<path d="M2270 4990 c-455 -47 -894 -213 -1240 -468 -567 -418 -914 -1005
-1011 -1712 -17 -124 -17 -487 0 -610 42 -302 117 -553 247 -815 255 -519 728
-965 1254 -1183 697 -289 1452 -264 2115 71 231 117 417 250 614 442 399 388
652 897 732 1475 20 144 17 507 -5 655 -167 1106 -1003 1951 -2101 2125 -149
24 -468 34 -605 20z m140 -705 l0 -535 -23 0 c-192 0 -808 77 -835 105 -7 7
56 160 115 279 180 361 398 588 643 667 30 10 65 18 78 18 l22 1 0 -535z m291
509 c277 -100 516 -380 698 -819 38 -89 48 -125 37 -125 -3 0 -50 -9 -105 -20
-196 -38 -390 -62 -633 -75 l-118 -7 0 536 0 536 24 0 c14 0 57 -12 97 -26z
m639 -119 c276 -106 602 -317 794 -513 l49 -50 -52 -26 c-130 -66 -475 -191
-508 -184 -8 2 -31 48 -52 103 -94 247 -244 489 -423 680 -32 34 -58 65 -58
68 0 8 148 -38 250 -78z m-1440 70 c0 -2 -9 -12 -19 -22 -51 -48 -181 -209
-244 -303 -79 -119 -184 -327 -223 -442 -19 -58 -30 -78 -43 -78 -53 0 -353
110 -495 182 l-69 35 112 101 c247 222 527 387 834 493 105 35 147 45 147 34z
m-1079 -819 c141 -66 262 -114 399 -157 58 -18 106 -33 108 -34 1 -1 -13 -65
-32 -141 -68 -271 -112 -558 -121 -797 -3 -72 -8 -151 -11 -174 l-5 -43 -500
0 -501 0 6 38 c3 20 8 69 11 107 35 404 198 823 452 1168 36 48 68 87 73 87 4
0 58 -24 121 -54z m3524 -3 c25 -32 79 -110 119 -173 213 -334 334 -698 361
-1082 l6 -88 -500 0 -501 0 0 73 c0 93 -25 377 -46 515 -19 134 -66 360 -98
475 -18 63 -21 89 -13 92 7 3 73 25 148 50 132 43 301 114 404 168 28 14 56
26 62 27 7 0 33 -26 58 -57z m-2729 -253 c206 -43 515 -80 663 -80 47 0 96 -3
109 -6 l22 -6 0 -499 0 -499 -541 0 -541 0 7 128 c15 292 53 553 121 835 23
93 41 147 49 147 7 0 57 -9 111 -20z m1916 -95 c70 -278 113 -571 125 -837 l6
-158 -541 0 -542 0 0 499 0 499 23 6 c12 3 61 6 108 6 154 0 468 38 659 80
136 29 129 33 162 -95z m-2366 -1195 c1 -14 5 -90 8 -170 9 -249 59 -573 126
-829 29 -111 30 -131 7 -131 -44 0 -340 -112 -495 -187 -63 -30 -117 -51 -121
-47 -61 71 -185 258 -254 384 -143 265 -242 594 -262 880 -4 47 -8 95 -11 108
l-4 22 501 -2 502 -3 3 -25z m1244 -469 l0 -498 -122 -7 c-240 -13 -472 -41
-672 -82 -66 -13 -120 -23 -121 -22 -6 9 -70 283 -91 388 -29 150 -61 418 -70
593 l-6 127 541 0 541 0 0 -499z m1246 342 c-9 -199 -28 -366 -66 -563 -28
-142 -83 -377 -92 -385 -1 -2 -70 10 -153 25 -227 43 -562 79 -727 80 l-38 0
0 500 0 500 541 0 542 0 -7 -157z m1168 65 c-25 -371 -152 -749 -362 -1078
-53 -82 -161 -230 -169 -230 -2 0 -38 17 -81 39 -123 62 -260 117 -410 167
l-140 46 24 86 c76 280 144 743 144 990 l0 72 500 0 501 0 -7 -92z m-2414
-1613 c0 -294 -4 -535 -8 -535 -28 0 -133 35 -189 64 -197 99 -379 302 -529
591 -65 123 -138 305 -127 315 8 7 170 38 318 61 115 17 333 36 438 38 l97 1
0 -535z m485 520 c195 -18 372 -45 532 -80 21 -5 21 -5 -13 -90 -187 -465
-440 -764 -726 -859 -42 -14 -84 -26 -92 -26 -14 0 -16 55 -16 535 l0 535 83
0 c45 0 150 -7 232 -15z m-1469 -241 c94 -250 236 -480 410 -663 37 -39 64
-74 61 -77 -3 -3 -70 16 -149 42 -247 82 -514 229 -723 399 -93 76 -212 191
-204 199 11 10 135 69 206 97 101 41 335 119 348 115 5 -1 28 -52 51 -112z
m2359 63 c66 -22 161 -57 210 -79 50 -22 111 -49 138 -60 26 -11 47 -24 47
-29 0 -13 -191 -183 -279 -248 -123 -91 -251 -167 -406 -242 -132 -64 -376
-154 -397 -147 -6 2 17 33 51 69 213 231 352 467 456 777 6 15 22 12 180 -41z"/>
</g>
</svg>
