<?xml version="1.0" standalone="no"?>
<!DOCTYPE svg PUBLIC "-//W3C//DTD SVG 20010904//EN"
 "http://www.w3.org/TR/2001/REC-SVG-20010904/DTD/svg10.dtd">
<svg version="1.0" xmlns="http://www.w3.org/2000/svg"
 width="500.000000pt" height="500.000000pt" viewBox="0 0 500.000000 500.000000"
 preserveAspectRatio="xMidYMid meet">

<g transform="translate(0.000000,500.000000) scale(0.100000,-0.100000)"
fill="#000000" stroke="none">
<path d="M2350 4835 c-8 -2 -49 -9 -90 -15 -322 -52 -657 -267 -846 -545 -144
-210 -219 -422 -239 -672 l-6 -83 79 0 79 0 6 83 c3 45 13 115 22 155 l17 72
134 0 134 0 0 75 0 75 -105 0 c-58 0 -105 3 -105 6 0 4 14 34 31 68 43 84 117
189 189 266 l60 64 88 -87 88 -87 54 55 54 55 -79 80 c-43 44 -77 82 -74 85
21 20 177 100 248 126 99 35 239 68 293 69 l37 0 3 -112 3 -113 75 0 75 0 3
113 3 112 37 0 c92 -1 264 -50 397 -115 146 -70 142 -62 60 -144 l-69 -71 49
-50 c27 -27 54 -50 59 -50 6 0 43 32 82 71 l72 71 30 -22 c75 -56 242 -286
267 -367 6 -23 6 -23 -99 -23 l-106 0 0 -75 0 -75 134 0 c120 0 135 -2 140
-17 12 -43 36 -202 36 -245 l0 -48 81 0 82 0 -7 83 c-41 483 -314 890 -744
1106 -73 37 -210 84 -308 106 -63 15 -385 30 -424 20z"/>
<path d="M2831 4029 l-174 -99 -50 25 c-204 101 -413 -109 -312 -312 39 -78
114 -123 206 -123 61 0 114 21 157 63 47 45 64 82 71 152 l6 60 168 96 c93 53
171 99 174 102 4 5 -64 138 -70 136 -1 0 -80 -45 -176 -100z m-297 -210 c58
-27 55 -115 -5 -139 -63 -26 -125 36 -100 99 19 44 60 60 105 40z"/>
<path d="M186 3339 l-26 -20 0 -1558 c0 -1553 0 -1557 20 -1579 l21 -22 2299
0 c2287 0 2300 0 2320 20 20 20 20 33 20 1575 l0 1556 -25 24 -24 25 -2289 0
-2289 0 -27 -21z m4032 -138 l472 -1 0 -1445 0 -1445 -2190 0 -2190 0 0 1445
0 1445 1613 2 c886 2 1659 2 1717 2 58 -1 318 -2 578 -3z"/>
<path d="M840 2484 c-135 -49 -210 -157 -210 -304 0 -55 5 -78 30 -126 16 -32
30 -59 30 -60 0 0 -25 -18 -54 -38 -64 -44 -97 -84 -134 -164 -27 -56 -27 -59
-30 -309 -2 -170 0 -259 8 -273 6 -11 42 -36 80 -55 l70 -35 0 -304 0 -305 26
-20 c25 -20 39 -21 286 -21 l259 0 24 25 25 24 0 304 0 304 39 18 c39 17 41
17 78 -2 l38 -20 3 -306 2 -306 26 -20 c25 -20 39 -21 286 -21 l259 0 24 25
25 24 0 300 0 301 40 20 c37 19 41 19 80 4 l40 -16 0 -305 0 -304 25 -24 24
-25 261 0 261 0 24 25 25 24 0 300 0 301 41 21 c41 20 43 20 80 3 l39 -17 0
-304 0 -304 25 -24 24 -25 259 0 c247 0 261 1 286 21 l26 20 0 305 0 304 41
21 c41 20 43 20 80 3 l39 -17 0 -304 0 -304 25 -24 24 -25 259 0 c247 0 261 1
286 21 l26 20 0 305 0 304 70 35 c38 19 74 44 80 56 8 14 10 100 8 272 -3 249
-3 253 -30 309 -37 80 -70 120 -134 164 -30 21 -53 40 -51 43 49 88 59 125 55
205 -7 125 -58 204 -171 263 -44 23 -64 28 -132 28 -67 0 -89 -4 -137 -28 -65
-32 -121 -90 -151 -156 -16 -35 -22 -66 -22 -126 0 -71 4 -86 32 -138 l31 -57
-30 -16 c-17 -9 -50 -34 -74 -56 l-44 -41 -48 44 c-26 24 -57 51 -69 59 l-23
15 28 55 c23 47 27 67 27 140 0 99 -21 152 -83 214 -63 65 -124 90 -217 90
-68 1 -89 -3 -137 -27 -158 -78 -223 -269 -141 -420 l30 -55 -31 -17 c-17 -10
-50 -36 -73 -58 l-42 -40 -48 44 c-26 24 -58 51 -71 59 l-24 15 29 55 c24 47
28 65 28 140 0 73 -4 92 -27 135 -59 111 -154 170 -278 170 -124 0 -219 -59
-278 -170 -23 -43 -27 -62 -27 -135 0 -75 4 -93 28 -140 l29 -55 -24 -15 c-13
-8 -44 -35 -70 -59 l-48 -44 -43 40 c-23 21 -56 47 -73 57 l-31 18 31 57 c27
49 31 65 31 136 0 60 -6 91 -22 126 -30 66 -86 124 -151 156 -48 24 -69 28
-137 27 -93 0 -154 -25 -217 -90 -63 -63 -83 -115 -83 -219 0 -80 3 -95 28
-140 l28 -50 -23 -15 c-13 -8 -44 -35 -70 -59 l-48 -44 -43 40 c-23 21 -56 47
-73 57 l-30 18 31 61 c60 122 33 273 -67 362 -22 21 -61 46 -87 58 -61 27
-163 32 -221 11z m178 -164 c52 -32 74 -75 70 -140 -5 -68 -27 -102 -86 -131
-134 -66 -271 77 -200 210 14 26 38 51 58 62 46 25 116 24 158 -1z m780 0
c102 -63 96 -222 -12 -271 -75 -34 -144 -16 -194 48 -34 46 -38 127 -6 170 53
72 144 94 212 53z m771 5 c43 -22 78 -69 86 -115 14 -86 -67 -180 -155 -180
-88 0 -169 94 -155 179 17 102 135 163 224 116z m791 -7 c56 -38 75 -73 74
-133 0 -41 -6 -60 -26 -88 -30 -39 -82 -67 -124 -67 -43 0 -111 38 -134 74
-27 44 -27 120 0 164 44 71 143 95 210 50z m793 -3 c15 -11 36 -39 48 -63 65
-131 -72 -268 -203 -203 -59 29 -81 63 -86 131 -4 64 18 108 70 141 42 26 131
23 171 -6z m-3045 -460 c51 -21 114 -90 130 -143 7 -24 12 -112 12 -226 l0
-186 -59 -29 c-97 -50 -91 -27 -91 -325 0 -145 -3 -278 -6 -295 l-7 -32 -151
3 -151 3 -5 290 c-3 160 -9 296 -13 303 -5 7 -40 28 -78 47 l-69 35 0 158 c0
86 4 184 10 216 17 104 87 178 187 196 72 13 242 4 291 -15z m784 -3 c53 -23
113 -89 128 -139 7 -24 10 -109 8 -227 l-3 -190 -55 -29 c-97 -50 -89 -22 -92
-351 l-3 -291 -155 0 -155 0 -5 291 c-4 205 -9 295 -17 305 -7 8 -39 28 -72
44 -33 15 -62 33 -64 39 -3 6 -2 101 2 211 6 195 7 201 34 247 31 53 97 98
161 110 72 13 241 1 288 -20z m786 -1 c20 -11 51 -34 69 -53 58 -60 63 -86 63
-306 l0 -198 -60 -29 c-33 -16 -67 -36 -75 -45 -12 -13 -15 -68 -17 -306 l-3
-289 -155 0 -155 0 -3 289 c-2 238 -5 293 -17 306 -8 9 -42 29 -75 45 l-60 29
0 198 c0 220 5 246 63 306 65 68 122 83 285 76 75 -3 112 -9 140 -23z m795 -9
c65 -36 111 -107 120 -184 9 -73 8 -340 -1 -354 -4 -6 -35 -25 -69 -42 -34
-18 -65 -37 -70 -44 -4 -7 -10 -143 -13 -303 l-5 -290 -155 0 -155 0 -3 289
c-3 330 3 308 -94 357 l-58 29 0 188 c0 103 5 204 11 225 12 44 68 111 113
135 45 24 108 31 224 27 92 -4 110 -7 155 -33z m772 8 c25 -12 57 -36 71 -53
52 -62 58 -87 62 -299 l4 -197 -70 -35 c-39 -20 -74 -41 -79 -48 -4 -7 -10
-143 -13 -303 l-5 -290 -152 -3 -151 -3 -4 288 c-2 159 -7 295 -12 305 -4 9
-39 33 -77 53 l-69 36 0 186 c0 208 7 244 58 303 62 73 122 91 285 85 84 -3
118 -8 152 -25z"/>
</g>
</svg>
