<?xml version="1.0" standalone="no"?>
<!DOCTYPE svg PUBLIC "-//W3C//DTD SVG 20010904//EN"
 "http://www.w3.org/TR/2001/REC-SVG-20010904/DTD/svg10.dtd">
<svg version="1.0" xmlns="http://www.w3.org/2000/svg"
 width="500.000000pt" height="500.000000pt" viewBox="0 0 500.000000 500.000000"
 preserveAspectRatio="xMidYMid meet">

<g transform="translate(0.000000,500.000000) scale(0.100000,-0.100000)"
fill="#000000" stroke="none">
<path d="M974 4934 c-58 -21 -120 -77 -152 -138 l-27 -51 0 -2245 0 -2245 27
-51 c15 -29 46 -68 69 -87 83 -72 -29 -67 1604 -67 1625 0 1532 -4 1611 64 22
18 53 58 69 87 l30 54 0 2245 0 2245 -27 51 c-15 29 -46 68 -69 87 -83 72 30
67 -1613 66 -1271 0 -1487 -3 -1522 -15z m3019 -147 c16 -10 37 -32 47 -50 20
-31 20 -69 20 -2232 0 -2075 -1 -2202 -18 -2234 -9 -19 -30 -44 -45 -55 l-28
-21 -1468 0 c-1397 0 -1468 1 -1494 18 -16 10 -37 32 -47 50 -20 31 -20 69
-20 2235 0 2366 -3 2229 49 2276 11 10 35 22 53 26 18 5 683 7 1478 7 1375 -2
1447 -3 1473 -20z"/>
<path d="M1412 4424 l-22 -15 0 -345 c0 -331 1 -345 20 -364 29 -29 74 -26 99
6 19 24 21 40 21 155 l0 129 80 0 c122 0 199 40 239 124 58 125 -4 277 -128
315 -60 18 -281 15 -309 -5z m289 -153 c36 -36 37 -73 4 -106 -21 -22 -33 -25
-100 -25 l-75 0 0 80 0 80 71 0 c65 0 73 -2 100 -29z"/>
<path d="M1950 4420 c-19 -19 -20 -33 -20 -358 l0 -339 23 -21 c22 -21 32 -22
200 -22 164 0 179 2 197 20 30 30 27 83 -6 109 -24 19 -40 21 -150 21 l-124 0
0 285 c0 272 -1 286 -20 305 -11 11 -33 20 -50 20 -17 0 -39 -9 -50 -20z"/>
<path d="M2562 4414 c-29 -14 -64 -40 -77 -58 -53 -69 -55 -86 -55 -370 0
-260 0 -266 22 -286 26 -24 65 -26 93 -4 17 13 21 30 25 127 l5 112 98 3 97 3
0 -106 c0 -99 2 -107 25 -130 29 -30 64 -32 96 -6 24 19 24 20 27 266 2 198 0
257 -12 298 -43 148 -207 219 -344 151z m181 -154 c24 -27 27 -38 27 -100 l0
-70 -100 0 -100 0 0 58 c0 133 96 196 173 112z"/>
<path d="M3061 4414 c-20 -26 -21 -38 -21 -356 l0 -329 25 -24 c29 -30 64 -32
96 -6 23 19 24 24 29 222 l5 204 124 -180 c170 -246 186 -265 222 -265 16 0
38 9 49 20 19 19 20 33 20 360 0 327 -1 341 -20 360 -23 23 -68 26 -96 6 -17
-13 -19 -31 -24 -222 l-5 -209 -139 200 c-76 110 -148 210 -159 223 -29 32
-79 30 -106 -4z"/>
<path d="M2031 3071 c-69 -59 -127 -113 -129 -119 -2 -6 54 -60 125 -121 l128
-110 768 -1 767 0 0 230 0 230 -767 0 -768 -1 -124 -108z m972 -53 c31 -16 46
-39 46 -68 0 -29 -15 -52 -46 -68 -15 -9 -131 -12 -397 -12 l-375 0 -27 23
c-20 17 -27 33 -27 57 0 24 7 40 27 57 l27 23 375 0 c266 0 382 -3 397 -12z"/>
<path d="M1505 3040 c-55 -55 -103 -100 -108 -100 -5 0 -20 9 -34 20 -37 29
-87 26 -112 -6 -12 -15 -21 -36 -21 -46 0 -11 29 -50 64 -86 95 -98 95 -98
272 80 114 114 144 150 144 171 0 37 -33 67 -73 67 -28 0 -46 -14 -132 -100z"/>
<path d="M2025 2209 c-71 -61 -131 -112 -133 -114 -2 -2 58 -55 133 -119 l137
-116 764 0 764 0 0 230 0 230 -767 0 -768 0 -130 -111z m1000 -64 c32 -31 32
-66 1 -102 l-24 -28 -379 -3 c-410 -2 -416 -2 -441 52 -16 31 -2 79 27 96 9 5
179 10 404 10 l388 0 24 -25z"/>
<path d="M1610 2283 c-8 -3 -61 -50 -117 -106 l-101 -100 -33 27 c-26 22 -39
26 -63 22 -43 -9 -60 -30 -60 -72 0 -31 8 -44 61 -95 94 -91 96 -90 270 84
156 156 166 175 118 222 -23 24 -44 29 -75 18z"/>
<path d="M2026 1353 c-111 -94 -135 -118 -124 -128 7 -7 67 -58 132 -114 l120
-101 768 -2 768 -3 0 233 0 232 -763 0 -764 0 -137 -117z m1003 -69 c28 -35
26 -69 -4 -99 l-24 -25 -385 0 c-211 0 -392 3 -401 6 -24 10 -46 60 -39 89 14
55 15 55 440 55 l393 0 20 -26z"/>
<path d="M1499 1323 l-109 -107 -28 27 c-35 34 -75 35 -107 2 -29 -28 -31 -45
-10 -85 17 -33 120 -120 141 -120 32 0 74 34 197 158 139 141 151 166 104 210
-45 43 -70 32 -188 -85z"/>
</g>
</svg>
