<?xml version="1.0" standalone="no"?>
<!DOCTYPE svg PUBLIC "-//W3C//DTD SVG 20010904//EN"
 "http://www.w3.org/TR/2001/REC-SVG-20010904/DTD/svg10.dtd">
<svg version="1.0" xmlns="http://www.w3.org/2000/svg"
 width="500.000000pt" height="500.000000pt" viewBox="0 0 500.000000 500.000000"
 preserveAspectRatio="xMidYMid meet">

<g transform="translate(0.000000,500.000000) scale(0.100000,-0.100000)"
fill="#000000" stroke="none">
<path d="M925 4519 c-27 -6 -88 -28 -134 -50 -115 -56 -204 -145 -260 -260
-54 -114 -65 -187 -58 -379 29 -686 245 -1332 630 -1875 123 -174 226 -295
392 -461 477 -478 1046 -792 1698 -938 326 -73 728 -106 890 -71 162 34 312
153 385 305 57 119 64 174 60 461 -4 218 -6 251 -26 310 -45 136 -153 262
-281 327 -145 75 -531 221 -612 232 -174 24 -343 -33 -469 -159 -37 -36 -74
-76 -82 -88 l-15 -23 -54 19 c-294 103 -582 295 -770 514 -147 171 -276 394
-350 606 l-19 54 23 15 c12 8 52 45 88 82 126 126 184 296 159 470 -11 81
-158 468 -231 610 -66 128 -184 231 -322 281 -58 21 -81 23 -327 25 -146 1
-287 -2 -315 -7z m571 -326 c85 -46 105 -78 215 -347 90 -223 102 -258 102
-312 0 -111 -57 -190 -182 -253 -99 -50 -131 -110 -111 -208 32 -153 146 -426
250 -599 280 -462 740 -805 1269 -945 128 -33 185 -9 242 103 62 123 143 181
253 180 55 0 88 -10 309 -100 250 -101 287 -122 327 -179 44 -64 49 -96 50
-319 0 -249 -7 -282 -80 -354 -79 -80 -149 -92 -426 -70 -643 51 -1240 289
-1749 695 -130 103 -379 352 -483 483 -403 505 -638 1099 -691 1745 -23 274
-11 348 69 428 73 73 101 79 370 76 210 -2 228 -3 266 -24z"/>
</g>
</svg>
