<?xml version="1.0" standalone="no"?>
<!DOCTYPE svg PUBLIC "-//W3C//DTD SVG 20010904//EN"
 "http://www.w3.org/TR/2001/REC-SVG-20010904/DTD/svg10.dtd">
<svg version="1.0" xmlns="http://www.w3.org/2000/svg"
 width="500.000000pt" height="500.000000pt" viewBox="0 0 500.000000 500.000000"
 preserveAspectRatio="xMidYMid meet">
<metadata>
Created by potrace 1.16, written by Peter Selinger 2001-2019
</metadata>
<g transform="translate(0.000000,500.000000) scale(0.100000,-0.100000)"
fill="#000000" stroke="none">
<path d="M2390 4271 c-36 -16 -247 -108 -470 -204 -223 -96 -463 -201 -535
-232 -71 -32 -168 -73 -215 -92 -47 -19 -125 -54 -175 -77 -49 -24 -130 -60
-180 -81 -174 -73 -601 -257 -663 -286 -35 -16 -66 -29 -71 -29 -10 0 -56 -50
-70 -77 -19 -38 -13 -116 11 -154 33 -49 123 -92 693 -331 105 -44 196 -83
203 -87 10 -6 13 -120 15 -537 2 -389 6 -544 16 -584 7 -30 33 -97 58 -148
138 -283 516 -513 993 -606 190 -37 288 -46 498 -46 291 0 526 35 769 115 371
122 626 317 744 569 55 117 59 167 59 725 l0 508 73 31 72 30 5 -863 c5 -858
5 -864 26 -892 79 -105 248 -77 284 48 6 21 10 381 10 940 l0 906 168 72 c207
89 240 108 269 150 31 47 32 125 1 172 -32 47 -82 71 -783 373 -82 35 -242
104 -355 154 -1435 624 -1330 586 -1450 533z m302 -390 c101 -44 255 -111 343
-149 220 -96 434 -188 595 -257 74 -31 277 -119 450 -195 173 -76 323 -140
333 -144 20 -7 14 -26 -8 -26 -8 0 -35 -10 -60 -22 l-46 -22 -232 28 c-127 15
-412 50 -632 77 -220 28 -526 66 -679 85 l-279 35 -46 -23 c-62 -31 -91 -76
-91 -143 0 -60 27 -108 76 -137 19 -11 77 -24 145 -33 63 -8 332 -41 599 -74
267 -34 498 -64 513 -68 28 -8 26 -9 -35 -35 -271 -116 -481 -207 -782 -337
-192 -83 -352 -151 -356 -151 -4 0 -201 84 -436 186 -236 102 -501 217 -589
254 -88 38 -311 135 -495 215 -184 81 -350 153 -367 159 -18 7 -35 15 -38 18
-3 3 32 21 77 40 46 20 261 113 478 207 217 95 519 226 670 291 151 66 367
160 480 209 113 49 210 90 217 90 6 1 94 -35 195 -78z m-1240 -1495 c857 -373
1007 -436 1048 -436 41 0 185 60 1038 431 112 49 205 89 208 89 9 0 3 -807 -6
-863 -13 -80 -45 -140 -112 -213 -135 -144 -361 -257 -648 -323 -80 -19 -106
-23 -240 -38 -95 -10 -410 -7 -529 6 -140 15 -344 66 -476 120 -219 90 -376
214 -443 349 l-37 76 -3 443 c-2 244 -1 443 2 443 3 0 92 -38 198 -84z"/>
</g>
</svg>
