<?xml version="1.0" standalone="no"?>
<!DOCTYPE svg PUBLIC "-//W3C//DTD SVG 20010904//EN"
 "http://www.w3.org/TR/2001/REC-SVG-20010904/DTD/svg10.dtd">
<svg version="1.0" xmlns="http://www.w3.org/2000/svg"
 width="500.000000pt" height="500.000000pt" viewBox="0 0 500.000000 500.000000"
 preserveAspectRatio="xMidYMid meet">

<g transform="translate(0.000000,500.000000) scale(0.100000,-0.100000)"
fill="#000000" stroke="none">
<path d="M2265 4989 c-673 -69 -1284 -396 -1704 -913 -161 -197 -318 -473
-406 -710 -48 -130 -108 -370 -131 -521 -27 -180 -25 -533 4 -715 86 -532 313
-990 681 -1373 241 -250 594 -480 925 -602 130 -48 371 -108 521 -131 147 -22
513 -25 650 -6 414 59 775 194 1086 407 614 419 985 1022 1091 1770 19 139 16
504 -6 650 -23 151 -83 391 -131 521 -124 334 -355 689 -606 929 -251 239
-561 435 -873 550 -130 48 -371 109 -516 130 -136 20 -456 28 -585 14z m480
-229 c421 -46 857 -228 1185 -494 96 -77 259 -240 336 -336 266 -329 448 -765
493 -1182 14 -125 14 -371 0 -496 -45 -417 -227 -853 -493 -1182 -77 -96 -240
-259 -336 -336 -329 -266 -765 -448 -1182 -493 -122 -14 -375 -14 -493 -1
-421 46 -857 228 -1185 494 -96 77 -259 240 -336 336 -209 258 -382 615 -453
936 -67 303 -67 685 0 988 71 321 244 678 453 936 77 96 240 259 336 336 319
258 734 436 1140 488 127 17 411 20 535 6z"/>
<path d="M2643 3732 c-182 -65 -263 -241 -182 -398 111 -216 465 -216 576 0
36 69 38 180 5 243 -71 137 -253 207 -399 155z"/>
<path d="M2310 2894 c-36 -7 -127 -35 -202 -61 l-137 -48 -17 -68 c-9 -37 -15
-70 -12 -72 2 -2 32 5 67 15 133 42 263 19 292 -52 31 -76 11 -192 -96 -558
-83 -283 -96 -343 -97 -455 -1 -71 3 -100 19 -136 32 -71 85 -122 171 -165 73
-36 82 -38 192 -42 139 -5 210 9 390 76 l125 48 17 64 c10 35 16 66 14 68 -2
2 -28 -4 -57 -12 -68 -21 -206 -21 -257 -1 -54 22 -72 58 -72 145 0 90 15 156
106 470 87 300 94 336 96 455 1 171 -75 274 -243 326 -73 23 -202 24 -299 3z"/>
</g>
</svg>
