<?xml version="1.0" standalone="no"?>
<!DOCTYPE svg PUBLIC "-//W3C//DTD SVG 20010904//EN"
 "http://www.w3.org/TR/2001/REC-SVG-20010904/DTD/svg10.dtd">
<svg version="1.0" xmlns="http://www.w3.org/2000/svg"
 width="512.000000pt" height="512.000000pt" viewBox="0 0 512.000000 512.000000"
 preserveAspectRatio="xMidYMid meet">

<g transform="translate(0.000000,512.000000) scale(0.100000,-0.100000)"
fill="#000000" stroke="none">
<path d="M2510 5053 c-8 -3 -568 -228 -1245 -500 -771 -310 -1237 -502 -1247
-515 -16 -17 -18 -43 -18 -184 0 -179 8 -214 58 -267 54 -57 72 -62 272 -67
l185 -5 5 -140 c4 -124 8 -144 27 -171 25 -35 78 -64 117 -64 20 0 26 -5 26
-21 0 -33 -119 -1976 -125 -2056 l-7 -73 -30 0 c-49 0 -97 -29 -123 -75 -23
-39 -25 -52 -25 -173 l0 -132 -111 0 c-121 0 -156 -10 -205 -58 -49 -49 -64
-97 -64 -208 0 -146 28 -211 113 -257 l42 -22 2405 0 2405 0 42 22 c85 46 113
111 113 257 0 111 -15 159 -64 208 -49 48 -84 58 -205 58 l-111 0 0 132 c0
121 -2 134 -25 173 -27 46 -74 75 -124 75 -23 0 -31 5 -32 18 0 9 -4 68 -8
130 -9 128 -22 153 -80 154 -56 2 -74 -27 -72 -119 0 -43 4 -102 7 -130 l6
-53 -256 0 c-244 0 -256 1 -256 19 0 31 119 1980 126 2059 l6 72 124 0 124 0
0 -24 c0 -39 89 -1497 94 -1539 6 -51 31 -77 73 -77 49 0 73 29 73 88 0 26
-20 376 -45 777 -25 402 -45 740 -45 753 0 17 6 22 26 22 39 0 92 29 117 64
19 27 23 47 27 171 l5 140 185 5 c200 5 218 10 272 67 50 53 58 88 58 267 0
141 -2 167 -17 184 -26 30 -2474 1014 -2533 1018 -25 2 -52 1 -60 -3z m1093
-560 l1038 -418 -1752 -5 -1751 -5 -19 -24 c-25 -31 -24 -69 3 -98 l21 -23
1914 0 1913 0 0 -107 c0 -85 -3 -110 -17 -125 -15 -17 -103 -18 -2391 -18
-2196 0 -2377 1 -2394 17 -15 14 -18 32 -18 125 l0 108 350 0 351 0 24 25 c14
13 25 31 25 39 0 24 -21 64 -39 73 -9 4 -98 10 -199 13 l-183 5 1033 417 c568
229 1038 417 1043 417 6 1 477 -187 1048 -416z m-2335 -1090 l3 -113 -301 0
-300 0 0 115 0 115 298 -2 297 -3 3 -112z m844 -22 c3 -123 5 -143 24 -168 30
-40 82 -73 115 -73 l29 0 -1 -67 c0 -38 -28 -520 -62 -1073 l-62 -1005 -43 -6
c-46 -6 -84 -30 -116 -73 -18 -24 -21 -45 -24 -167 l-4 -139 -203 0 -203 0 -4
133 c-3 110 -7 138 -24 167 -28 48 -78 80 -125 80 -34 0 -39 3 -39 23 0 30
-118 1963 -125 2053 l-6 71 42 6 c55 7 89 33 117 87 19 39 22 59 22 167 l0
123 344 0 344 0 4 -139z m748 24 l0 -115 -300 0 -300 0 0 115 0 115 300 0 300
0 0 -115z m840 -8 c0 -108 3 -128 23 -167 27 -54 61 -80 116 -87 l42 -6 -6
-71 c-7 -90 -125 -2023 -125 -2053 0 -20 -5 -23 -39 -23 -47 0 -97 -32 -125
-80 -17 -29 -21 -57 -24 -167 l-4 -133 -203 0 -203 0 -4 139 c-3 122 -6 143
-24 167 -32 43 -70 67 -116 73 l-43 6 -62 1005 c-34 553 -62 1035 -62 1073
l-1 67 29 0 c33 0 85 33 115 73 19 25 21 45 24 168 l4 139 344 0 344 0 0 -123z
m750 8 l0 -115 -300 0 -300 0 0 108 c0 60 3 112 7 115 3 4 138 7 300 7 l293 0
0 -115z m-3356 -337 c7 -79 126 -2028 126 -2059 0 -18 -12 -19 -256 -19 l-255
0 6 68 c7 78 125 2022 125 2058 0 24 0 24 124 24 l124 0 6 -72z m1590 50 c5
-26 127 -2045 126 -2095 l0 -33 -250 0 -250 0 0 33 c-1 50 121 2069 126 2095
4 21 8 22 124 22 116 0 120 -1 124 -22z m-1279 -2393 l0 -110 -437 -3 -438 -2
0 115 0 115 438 -2 437 -3 0 -110z m1593 3 l-3 -113 -435 0 -435 0 -3 113 -3
112 441 0 441 0 -3 -112z m1592 -3 l0 -115 -437 2 -438 3 -3 99 c-1 55 0 106
2 113 4 10 89 13 441 13 l435 0 0 -115z m362 -282 c15 -13 18 -32 18 -103 0
-59 -5 -92 -14 -106 -14 -19 -50 -19 -2396 -19 -2346 0 -2382 0 -2396 19 -21
30 -19 183 3 208 15 17 103 18 2391 18 2196 0 2377 -1 2394 -17z"/>
</g>
</svg>
