<?xml version="1.0" standalone="no"?>
<!DOCTYPE svg PUBLIC "-//W3C//DTD SVG 20010904//EN"
 "http://www.w3.org/TR/2001/REC-SVG-20010904/DTD/svg10.dtd">
<svg version="1.0" xmlns="http://www.w3.org/2000/svg"
 width="500.000000pt" height="500.000000pt" viewBox="0 0 500.000000 500.000000"
 preserveAspectRatio="xMidYMid meet">

<g transform="translate(0.000000,500.000000) scale(0.100000,-0.100000)"
fill="#000000" stroke="none">
<path d="M530 4734 c-112 -30 -209 -116 -252 -222 l-23 -57 0 -1955 0 -1955
23 -57 c33 -81 108 -160 190 -200 l67 -33 982 -3 983 -2 -2 247 -3 248 -835 5
c-906 5 -859 2 -894 61 -16 28 -20 80 -8 111 4 9 48 63 98 120 657 748 813
925 827 936 22 19 86 26 118 14 15 -6 120 -116 235 -246 114 -130 210 -236
213 -236 6 0 127 188 572 884 214 335 232 356 299 356 64 0 89 -26 190 -204
71 -123 99 -165 110 -160 65 25 206 68 282 86 86 20 128 21 571 25 l477 5 -2
976 -3 977 -23 57 c-44 108 -142 193 -258 223 -87 22 -3850 22 -3934 -1z
m1442 -868 c94 -20 170 -59 238 -122 137 -127 192 -292 156 -464 -21 -101 -57
-170 -127 -245 -136 -145 -342 -198 -526 -134 -226 78 -372 318 -333 550 34
202 195 371 394 414 80 18 117 18 198 1z"/>
<path d="M3945 1991 c-72 -18 -138 -73 -172 -140 -16 -32 -18 -71 -21 -318
l-3 -282 -282 -3 c-273 -3 -283 -4 -326 -26 -89 -48 -134 -123 -135 -222 0
-112 67 -205 172 -236 33 -10 114 -14 308 -14 l263 0 3 -282 c3 -254 5 -287
22 -321 78 -157 281 -191 403 -68 65 65 68 77 71 389 l3 282 268 0 c303 0 333
5 399 69 55 54 76 104 76 181 0 101 -49 181 -140 226 -35 17 -66 19 -321 22
l-282 3 -3 282 c-3 247 -5 286 -21 318 -23 47 -72 96 -116 119 -43 21 -124 32
-166 21z"/>
</g>
</svg>
