<?xml version="1.0" standalone="no"?>
<!DOCTYPE svg PUBLIC "-//W3C//DTD SVG 20010904//EN"
 "http://www.w3.org/TR/2001/REC-SVG-20010904/DTD/svg10.dtd">
<svg version="1.0" xmlns="http://www.w3.org/2000/svg"
 width="500.000000pt" height="500.000000pt" viewBox="0 0 500.000000 500.000000"
 preserveAspectRatio="xMidYMid meet">

<g transform="translate(0.000000,500.000000) scale(0.100000,-0.100000)"
fill="#000000" stroke="none">
<path d="M2395 4986 c-110 -18 -203 -50 -272 -95 -35 -22 -338 -308 -733 -691
-371 -360 -821 -796 -1000 -969 -214 -206 -335 -332 -355 -365 -70 -120 -19
-273 115 -342 52 -26 153 -24 208 5 40 20 504 465 1658 1588 203 197 369 350
392 362 54 28 130 28 184 0 23 -12 184 -160 377 -347 185 -180 548 -532 806
-782 259 -250 549 -532 646 -627 97 -94 196 -182 220 -194 59 -31 157 -31 214
-2 89 47 139 127 140 223 0 104 -17 126 -400 496 -187 181 -633 613 -991 960
-358 347 -670 644 -695 661 -153 105 -337 148 -514 119z"/>
<path d="M687 2236 c-63 -17 -116 -62 -147 -122 l-25 -48 0 -716 c0 -809 -4
-768 81 -937 95 -190 267 -328 485 -390 61 -17 137 -18 1424 -18 1533 0 1406
-6 1580 80 188 92 305 227 383 438 l27 72 3 734 c3 726 2 734 -18 777 -49 100
-161 156 -269 135 -71 -14 -127 -53 -166 -116 l-30 -48 -5 -701 c-5 -694 -5
-701 -27 -741 -28 -52 -68 -89 -123 -114 -45 -20 -58 -21 -1350 -20 -1064 0
-1312 2 -1343 13 -57 21 -100 58 -132 117 l-30 54 -5 700 c-6 775 0 714 -69
788 -57 62 -156 88 -244 63z"/>
</g>
</svg>
