<?xml version="1.0" standalone="no"?>
<!DOCTYPE svg PUBLIC "-//W3C//DTD SVG 20010904//EN"
 "http://www.w3.org/TR/2001/REC-SVG-20010904/DTD/svg10.dtd">
<svg version="1.0" xmlns="http://www.w3.org/2000/svg"
 width="500.000000pt" height="500.000000pt" viewBox="0 0 500.000000 500.000000"
 preserveAspectRatio="xMidYMid meet">

<g transform="translate(0.000000,500.000000) scale(0.100000,-0.100000)"
fill="#000000" stroke="none">
<path d="M1220 4713 c-172 -27 -293 -64 -430 -133 -402 -202 -677 -587 -761
-1069 -24 -136 -29 -381 -10 -506 58 -380 229 -714 554 -1082 122 -138 385
-397 580 -572 317 -284 1185 -1023 1227 -1043 63 -31 177 -31 240 0 42 20 916
764 1228 1044 578 519 867 873 1023 1254 149 364 165 752 47 1124 -167 525
-577 890 -1094 975 -105 17 -301 19 -410 4 -171 -24 -360 -98 -522 -206 -94
-63 -270 -226 -339 -315 -24 -32 -48 -58 -52 -58 -4 0 -28 26 -53 58 -66 82
-202 214 -294 283 -154 116 -385 213 -568 238 -73 10 -311 13 -366 4z m287
-284 c161 -18 301 -70 447 -167 87 -59 246 -218 311 -311 128 -185 147 -201
233 -201 82 0 117 25 189 133 265 399 610 584 1016 547 140 -13 237 -40 362
-99 319 -152 540 -451 622 -841 25 -120 25 -402 0 -520 -95 -444 -374 -819
-1072 -1441 -77 -68 -313 -273 -524 -454 -212 -182 -430 -369 -485 -417 -56
-48 -104 -86 -108 -85 -10 3 -851 726 -1073 921 -568 502 -829 801 -990 1131
-98 201 -133 338 -142 550 -14 350 101 680 321 922 165 181 422 308 671 332
117 12 118 12 222 0z"/>
</g>
</svg>
