<?xml version="1.0" standalone="no"?>
<!DOCTYPE svg PUBLIC "-//W3C//DTD SVG 20010904//EN"
 "http://www.w3.org/TR/2001/REC-SVG-20010904/DTD/svg10.dtd">
<svg version="1.0" xmlns="http://www.w3.org/2000/svg"
 width="500.000000pt" height="500.000000pt" viewBox="0 0 500.000000 500.000000"
 preserveAspectRatio="xMidYMid meet">

<g transform="translate(0.000000,500.000000) scale(0.100000,-0.100000)"
fill="#000000" stroke="none">
<path d="M1910 4985 c-212 -47 -385 -216 -435 -428 -22 -93 -22 -2771 0 -2864
50 -214 226 -384 443 -428 63 -14 232 -15 1240 -13 1161 3 1167 3 1222 24 155
59 278 162 338 280 66 130 62 41 62 1569 0 1528 4 1439 -62 1569 -41 82 -154
193 -237 236 -139 70 -33 64 -1331 67 -982 1 -1186 -1 -1240 -12z m2392 -311
c61 -20 120 -73 149 -131 l24 -48 0 -1370 0 -1370 -30 -54 c-16 -29 -45 -66
-64 -82 -75 -62 -14 -59 -1265 -59 l-1141 0 -50 24 c-61 28 -112 77 -136 131
-18 38 -19 105 -19 1410 0 1305 1 1372 19 1410 24 54 75 103 136 131 l50 24
1141 0 c1005 0 1146 -2 1186 -16z"/>
<path d="M595 3922 c-187 -64 -325 -214 -370 -403 -22 -95 -22 -2981 0 -3077
50 -211 226 -382 440 -427 105 -22 2725 -22 2830 0 216 45 390 214 440 428 8
34 15 109 15 165 0 118 -13 159 -64 195 -43 30 -132 31 -173 1 -53 -40 -66
-77 -73 -203 -3 -67 -12 -127 -20 -141 -31 -57 -65 -91 -123 -120 l-60 -30
-1356 0 -1356 0 -50 24 c-55 26 -94 60 -128 115 l-22 36 -3 1470 c-2 1138 0
1480 10 1515 8 30 28 61 62 96 63 64 121 84 245 84 68 0 93 4 119 20 95 58 98
200 6 261 -25 16 -48 19 -159 19 -115 0 -139 -4 -210 -28z"/>
</g>
</svg>
