<?xml version="1.0" standalone="no"?>
<!DOCTYPE svg PUBLIC "-//W3C//DTD SVG 20010904//EN"
 "http://www.w3.org/TR/2001/REC-SVG-20010904/DTD/svg10.dtd">
<svg version="1.0" xmlns="http://www.w3.org/2000/svg"
 width="500.000000pt" height="500.000000pt" viewBox="0 0 500.000000 500.000000"
 preserveAspectRatio="xMidYMid meet">
<metadata>
Created by potrace 1.16, written by Peter Selinger 2001-2019
</metadata>
<g transform="translate(0.000000,500.000000) scale(0.100000,-0.100000)"
fill="#000000" stroke="none">
<path d="M2325 4982 c-106 -37 -194 -120 -220 -206 -19 -62 -19 -97 -1 -166
l15 -55 -39 -40 c-51 -54 -85 -111 -110 -184 -18 -56 -20 -85 -20 -384 0 -341
4 -376 51 -469 28 -55 124 -154 189 -194 l57 -35 -13 -65 c-18 -84 -49 -156
-81 -186 -23 -22 -34 -23 -201 -29 -195 -6 -232 -15 -348 -85 -134 -80 -193
-167 -285 -419 -34 -93 -77 -212 -97 -264 -27 -75 -33 -104 -30 -143 8 -75 26
-94 146 -155 2 -1 -11 -50 -28 -110 -18 -59 -34 -118 -37 -130 -6 -26 39 -27
-401 8 -279 22 -361 19 -497 -16 -61 -16 -232 -94 -257 -117 -7 -7 -26 -21
-41 -31 -88 -56 -90 -208 -4 -269 24 -17 61 -25 205 -40 97 -10 177 -20 179
-21 1 -2 -13 -33 -32 -69 -106 -199 -21 -471 175 -566 38 -18 764 -230 1203
-352 76 -21 139 -40 140 -42 1 -1 13 -25 27 -53 17 -34 37 -57 65 -72 38 -22
50 -23 279 -23 132 0 269 5 305 11 36 6 138 33 226 59 88 27 264 79 390 115
127 37 340 100 475 140 135 40 333 99 440 131 223 65 293 97 355 159 134 136
158 380 53 528 -11 16 -18 30 -15 33 3 3 72 12 153 19 209 21 210 21 255 66
37 37 39 42 39 103 0 67 -24 120 -65 141 -11 5 -36 22 -56 37 -54 42 -178 96
-276 120 -65 16 -119 21 -208 22 -104 0 -450 -23 -600 -40 l-50 -6 -34 119
c-19 65 -36 125 -38 133 -3 10 11 21 42 34 60 24 97 73 103 135 4 42 -8 81
-88 302 -51 140 -106 281 -123 314 -62 119 -202 232 -342 275 -22 7 -117 15
-211 19 -150 5 -175 8 -193 25 -29 27 -66 109 -84 188 l-15 67 58 35 c65 40
161 139 189 194 47 93 51 128 51 468 0 292 -2 328 -20 386 -22 71 -61 136
-114 187 -31 30 -33 36 -24 60 6 14 11 64 12 111 1 75 -2 90 -26 131 -47 80
-120 135 -217 165 -67 20 -271 18 -336 -4z m245 -153 c113 -18 170 -68 170
-149 0 -29 -3 -32 -22 -26 -103 29 -143 36 -218 36 -75 0 -115 -7 -217 -36
-21 -6 -23 -3 -23 31 0 78 54 126 161 144 75 12 76 12 149 0z m39 -320 c120
-27 225 -117 256 -219 l7 -25 -25 24 c-15 13 -37 39 -49 58 -52 76 -157 82
-261 14 -83 -54 -172 -89 -282 -112 -106 -22 -135 -23 -135 -6 0 6 13 39 29
72 78 163 259 239 460 194z m76 -288 c10 -33 89 -102 148 -129 l59 -27 -4
-215 c-4 -206 -5 -217 -30 -270 -109 -235 -463 -285 -652 -93 -77 78 -89 122
-94 364 l-4 206 90 12 c153 19 334 81 429 145 45 31 50 32 58 7z m-72 -1102
c10 -45 36 -114 57 -155 l39 -74 -44 -25 c-60 -36 -99 -46 -173 -46 -63 0
-137 25 -187 64 -19 14 -19 15 9 52 32 41 70 146 81 218 l7 47 97 0 96 0 18
-81z m-446 -344 c59 -50 172 -101 256 -116 133 -22 285 19 397 107 l56 44 105
0 c57 0 130 -4 163 -10 120 -19 247 -101 301 -195 21 -36 91 -215 100 -255 2
-8 24 -73 49 -143 l45 -128 -26 -10 c-15 -5 -56 -23 -92 -39 -116 -50 -345
-140 -358 -140 -16 0 5 70 68 226 65 160 64 212 -6 230 -29 7 -76 -7 -87 -27
-27 -48 -103 -239 -123 -309 -7 -25 -21 -70 -30 -100 -9 -30 -18 -66 -20 -80
-3 -14 -10 -43 -15 -65 -16 -66 -30 -265 -24 -336 l7 -66 -54 -7 c-178 -24
-579 -24 -756 -1 l-52 7 6 102 c11 203 -66 526 -196 818 -17 36 -29 49 -55 58
-41 13 -83 4 -96 -20 -18 -33 -11 -78 26 -167 31 -73 94 -249 94 -260 0 -11
-46 5 -196 66 -296 121 -289 118 -286 136 2 10 21 66 43 126 22 60 42 117 44
126 8 41 78 221 100 258 52 89 181 176 287 194 29 5 105 9 169 10 l115 1 41
-35z m-587 -965 c41 -17 75 -32 76 -33 2 -2 -30 -113 -71 -247 -47 -155 -80
-249 -91 -257 -10 -7 -38 -13 -63 -13 -92 0 -457 41 -511 57 -36 11 -84 16
-140 15 -104 -2 -590 39 -584 50 10 16 131 77 191 97 136 43 191 45 554 16
183 -14 348 -24 367 -20 39 7 95 54 110 92 6 16 26 80 43 143 30 110 36 130
43 130 2 0 36 -14 76 -30z m1944 -42 c44 -177 58 -212 97 -249 22 -22 52 -39
73 -43 20 -4 185 5 368 20 363 29 417 27 550 -17 71 -23 180 -79 185 -95 4
-13 -456 -53 -587 -52 -66 1 -107 -4 -135 -15 -24 -10 -128 -24 -256 -37 -259
-24 -303 -25 -319 -5 -6 8 -25 58 -41 112 -33 110 -51 133 -109 133 -44 0 -80
-35 -80 -77 0 -37 68 -238 91 -267 34 -43 105 -79 173 -86 46 -5 56 -9 41 -15
-11 -5 -80 -37 -154 -72 -73 -34 -136 -63 -138 -63 -2 0 -26 46 -52 103 -128
272 -136 300 -135 467 0 155 5 175 45 189 45 15 46 15 53 -24 4 -19 18 -48 32
-65 33 -39 84 -41 119 -5 29 28 31 53 10 120 -8 27 -13 50 -11 52 5 6 141 61
152 62 5 1 18 -32 28 -71z m-1666 -69 c40 -14 47 -44 46 -199 0 -119 -17 -206
-54 -285 -10 -22 -35 -75 -54 -118 -40 -89 -25 -85 -151 -40 -38 13 -78 27
-87 30 -26 8 -22 15 30 48 62 40 83 87 163 357 35 120 67 218 70 218 3 0 20
-5 37 -11z m321 -519 c194 -19 645 -10 772 16 23 4 28 0 44 -38 10 -24 44
-100 75 -170 l58 -127 -201 -99 -201 -98 -240 88 c-160 59 -247 86 -263 82
-32 -8 -63 -50 -63 -85 0 -51 35 -74 182 -123 76 -25 146 -49 155 -55 16 -9
16 -11 -7 -19 -14 -6 -131 -62 -260 -126 -219 -109 -237 -116 -270 -107 -19 5
-255 73 -525 151 -269 78 -508 146 -530 150 -86 18 -205 62 -251 93 -66 45
-107 120 -107 196 0 112 69 211 171 245 65 23 101 20 200 -15 48 -17 155 -55
237 -84 83 -29 300 -107 483 -174 183 -67 347 -121 365 -121 47 0 77 31 77 79
0 47 -21 68 -98 97 -36 14 -56 27 -54 35 2 8 24 63 49 122 44 102 48 107 72
103 15 -3 73 -10 130 -16z m2097 -25 c123 -36 205 -175 174 -296 -15 -59 -70
-132 -123 -163 -39 -23 -172 -69 -236 -82 -13 -3 -157 -45 -320 -93 -163 -49
-395 -119 -516 -154 -121 -36 -280 -85 -354 -107 -149 -47 -144 -48 -176 30
-10 25 -29 69 -42 98 -14 29 -23 55 -22 56 9 8 301 152 427 210 76 35 252 120
392 189 440 215 614 299 650 313 46 17 86 17 146 -1z m-1730 -877 c37 -82 40
-94 25 -102 -9 -5 -114 -12 -233 -14 -200 -4 -218 -3 -218 12 0 11 18 25 53
39 28 12 113 51 187 88 74 37 137 68 140 68 3 1 24 -41 46 -91z"/>
</g>
</svg>
