<?xml version="1.0" standalone="no"?>
<!DOCTYPE svg PUBLIC "-//W3C//DTD SVG 20010904//EN"
 "http://www.w3.org/TR/2001/REC-SVG-20010904/DTD/svg10.dtd">
<svg version="1.0" xmlns="http://www.w3.org/2000/svg"
 width="500.000000pt" height="500.000000pt" viewBox="0 0 500.000000 500.000000"
 preserveAspectRatio="xMidYMid meet">

<g transform="translate(0.000000,500.000000) scale(0.100000,-0.100000)"
fill="#000000" stroke="none">
<path d="M51 4987 c-51 -30 -50 -14 -51 -730 0 -745 1 -754 66 -864 19 -32 57
-81 85 -108 l49 -51 0 -774 c0 -692 -2 -796 -19 -975 -51 -520 -86 -1030 -78
-1127 23 -270 311 -434 555 -316 65 31 143 107 175 170 43 85 49 141 37 343
-12 210 -38 560 -45 625 l-6 45 43 -50 c296 -348 623 -568 1033 -694 595 -182
1259 -82 1782 271 208 139 438 373 578 586 15 23 30 41 32 38 2 -2 -7 -140
-21 -307 -14 -167 -31 -397 -37 -510 -11 -199 -11 -209 9 -275 102 -337 552
-381 716 -71 44 84 50 140 37 362 -14 234 -43 598 -71 880 -19 190 -20 282
-20 1832 0 1015 -4 1641 -10 1657 -13 35 -64 59 -107 51 -28 -5 -45 -21 -102
-98 -135 -183 -267 -417 -354 -627 -48 -114 -120 -328 -142 -417 -9 -40 -21
-73 -25 -73 -4 0 -15 12 -24 26 -34 50 -233 248 -327 324 -417 336 -981 504
-1510 449 -471 -48 -914 -250 -1241 -567 l-78 -75 -1 34 c-1 19 -2 244 -3 501
l-1 467 -26 26 c-14 14 -41 28 -61 31 -30 5 -41 1 -69 -24 l-34 -30 -3 -607
-2 -606 -97 3 -96 3 -1 602 -1 603 -26 25 c-14 14 -41 28 -61 31 -30 5 -41 1
-69 -24 l-34 -30 -3 -607 -2 -606 -97 3 -97 3 3 571 c3 590 0 633 -38 668 -25
23 -81 29 -110 13z m4659 -1442 l0 -1035 -128 0 -128 0 -67 68 -68 69 4 484 3
484 32 128 c65 264 166 525 287 738 31 54 58 99 61 99 2 0 4 -466 4 -1035z
m-1881 821 c511 -96 941 -372 1233 -789 l57 -82 1 -447 c0 -285 4 -457 10
-474 6 -15 51 -69 100 -119 l90 -91 0 -220 c0 -220 0 -220 -30 -303 -206 -565
-694 -1020 -1264 -1180 -199 -56 -280 -66 -536 -65 -216 0 -245 2 -362 27
-158 33 -256 64 -387 122 -382 167 -697 454 -907 826 l-54 97 0 782 0 782 55
60 c79 85 134 202 135 288 1 45 11 62 98 164 188 219 460 410 739 520 115 46
297 94 422 111 128 19 484 13 600 -9z m-2069 -838 c0 -23 -39 -72 -105 -134
l-65 -60 0 -412 0 -412 -100 0 -100 0 0 399 c0 226 -4 410 -9 424 -6 14 -31
40 -56 57 -45 31 -105 109 -105 137 0 10 55 13 270 13 209 0 270 -3 270 -12z
m-247 -1217 l77 -1 0 -95 0 -95 -100 0 -100 0 0 93 c0 52 3 96 6 99 3 3 13 5
22 3 9 -2 52 -4 95 -4z m4197 -96 l0 -95 -100 0 -100 0 0 95 0 95 100 0 100 0
0 -95z m-4197 -294 l77 -1 0 -164 c0 -91 7 -245 15 -343 38 -460 75 -954 75
-1014 0 -55 -5 -72 -29 -112 -19 -28 -46 -54 -70 -67 -49 -25 -129 -26 -177
-4 -45 22 -90 75 -103 121 -11 38 4 274 64 996 14 164 25 363 25 441 0 78 3
145 6 148 3 3 13 5 22 3 9 -2 52 -4 95 -4z m4197 -158 c0 -87 9 -264 20 -393
34 -412 70 -907 70 -970 0 -121 -74 -200 -189 -200 -62 0 -89 10 -135 50 -67
59 -68 74 -35 511 16 211 38 489 49 618 11 129 20 303 20 388 l0 153 100 0
100 0 0 -157z"/>
<path d="M2379 3849 c-589 -49 -1090 -494 -1216 -1079 -26 -121 -26 -439 0
-560 117 -543 557 -968 1104 -1066 118 -21 341 -20 462 1 278 48 530 179 732
380 538 534 539 1392 2 1928 -219 220 -527 369 -806 392 -147 12 -184 12 -278
4z m316 -205 c458 -79 818 -412 943 -874 23 -86 26 -113 26 -280 0 -167 -3
-194 -26 -280 -126 -464 -492 -801 -952 -875 -597 -97 -1168 281 -1323 875
-64 245 -30 567 84 795 165 330 488 574 848 638 108 20 290 20 400 1z"/>
<path d="M3354 2583 c-46 -9 -66 -46 -75 -140 -11 -116 -31 -191 -78 -288 -70
-145 -158 -243 -296 -330 -94 -59 -105 -72 -105 -122 0 -58 33 -93 87 -93 85
1 291 159 401 308 105 142 163 297 182 486 9 93 1 137 -31 162 -18 14 -58 22
-85 17z"/>
<path d="M2473 1695 c-99 -43 -47 -199 60 -178 34 7 77 56 77 89 0 40 -27 81
-61 93 -39 13 -37 13 -76 -4z"/>
</g>
</svg>
