<?xml version="1.0" standalone="no"?>
<!DOCTYPE svg PUBLIC "-//W3C//DTD SVG 20010904//EN"
 "http://www.w3.org/TR/2001/REC-SVG-20010904/DTD/svg10.dtd">
<svg version="1.0" xmlns="http://www.w3.org/2000/svg"
 width="500.000000pt" height="500.000000pt" viewBox="0 0 500.000000 500.000000"
 preserveAspectRatio="xMidYMid meet">

<g transform="translate(0.000000,500.000000) scale(0.100000,-0.100000)"
fill="#000000" stroke="none">
<path d="M538 4874 c-56 -30 -63 -157 -12 -205 36 -34 95 -32 130 3 51 51 41
173 -16 203 -36 19 -67 18 -102 -1z"/>
<path d="M34 4576 c-54 -54 -45 -103 28 -156 56 -41 108 -41 149 -1 55 56 33
124 -56 170 -56 29 -82 26 -121 -13z"/>
<path d="M1018 4584 c-57 -29 -83 -71 -74 -120 15 -75 101 -97 174 -44 61 44
75 81 51 133 -12 27 -58 57 -86 57 -10 -1 -39 -12 -65 -26z"/>
<path d="M490 4571 c-97 -32 -179 -106 -222 -200 -51 -111 -39 -243 32 -346
124 -180 385 -202 541 -46 72 72 100 143 100 251 0 147 -65 250 -201 321 -35
18 -64 23 -135 26 -49 1 -101 -1 -115 -6z m188 -208 c43 -32 65 -69 70 -121 5
-56 -10 -91 -57 -136 -25 -24 -42 -30 -88 -34 -49 -3 -64 0 -93 20 -19 13 -45
39 -57 57 -51 75 -15 187 72 227 40 19 119 12 153 -13z"/>
<path d="M3683 4505 c-130 -35 -237 -123 -293 -240 -130 -273 48 -596 350
-635 99 -12 506 -12 595 0 171 25 292 139 325 308 31 156 -61 332 -208 400
-66 31 -185 41 -258 23 l-46 -12 -47 44 c-118 111 -271 151 -418 112z m232
-214 c34 -19 60 -44 82 -77 52 -81 68 -94 113 -94 27 0 54 9 80 26 54 36 115
42 172 16 143 -63 145 -259 3 -323 -36 -17 -70 -19 -331 -19 l-291 0 -60 30
c-99 50 -151 140 -140 245 12 118 88 200 212 228 39 9 111 -5 160 -32z"/>
<path d="M1927 4325 c-129 -36 -246 -129 -300 -239 -80 -163 -70 -336 28 -482
42 -62 44 -68 28 -80 -30 -22 -57 -28 -62 -13 -11 35 -105 118 -163 144 -54
25 -69 27 -147 23 -71 -3 -95 -9 -139 -33 -128 -70 -202 -224 -172 -359 9 -43
9 -51 -8 -70 -11 -12 -22 -26 -26 -33 -13 -24 -146 -809 -146 -863 1 -94 52
-180 134 -222 39 -20 222 -58 278 -58 27 0 28 -1 27 -52 0 -29 -6 -134 -13
-234 l-12 -181 -113 -233 c-135 -279 -139 -287 -151 -350 -9 -45 -2 -115 16
-177 6 -22 4 -23 -66 -23 l-72 0 -282 -179 c-440 -279 -544 -348 -555 -370
-33 -61 19 -141 92 -141 25 0 40 9 504 306 l303 194 738 0 738 0 31 23 c16 12
158 144 314 293 156 149 298 283 315 297 l31 26 420 3 c341 2 423 6 437 17 20
17 180 220 195 249 45 84 -58 182 -135 128 -11 -8 -52 -55 -90 -105 l-69 -91
-215 0 -216 0 -132 453 c-73 248 -149 510 -169 581 l-37 129 24 16 c158 104
188 293 67 419 -47 49 -100 73 -177 79 l-68 6 -17 61 c-50 178 -65 216 -95
231 -60 31 -120 10 -140 -49 -10 -31 -3 -65 46 -229 5 -15 1 -18 -24 -15 -23
2 -70 42 -205 171 l-176 168 69 68 c82 80 123 159 141 269 39 235 -125 477
-361 531 -61 14 -164 12 -223 -4z m233 -206 c100 -44 160 -137 160 -251 0
-246 -296 -370 -469 -196 -130 130 -99 357 61 439 83 42 163 45 248 8z m-770
-644 c92 -47 104 -174 24 -245 -28 -24 -44 -30 -81 -30 -91 0 -150 67 -141
162 5 51 40 100 83 118 32 14 84 11 115 -5z m701 -103 c29 -13 118 -91 259
-226 155 -149 225 -209 250 -216 19 -5 117 -10 218 -10 169 0 183 -1 202 -20
11 -11 20 -31 20 -45 0 -14 -9 -34 -20 -45 -19 -19 -33 -20 -386 -20 l-366 0
-86 76 c-140 124 -174 136 -231 88 -26 -21 -31 -33 -31 -69 0 -49 5 -56 109
-146 l73 -64 -48 -43 c-97 -85 -279 -159 -448 -183 -47 -7 -88 -10 -90 -8 -5
5 121 735 134 774 47 142 286 228 441 157z m-801 -368 c58 -9 108 -20 111 -23
4 -3 -21 -165 -55 -360 -74 -428 -58 -400 -210 -372 -98 18 -126 33 -126 69 0
7 27 169 60 359 33 190 60 347 60 350 0 3 12 3 28 0 15 -3 74 -13 132 -23z
m1740 -976 c90 -310 166 -569 168 -575 3 -9 -10 -13 -46 -13 l-50 0 -12 48
c-17 74 -49 120 -280 411 l-215 270 -157 76 c-134 64 -158 79 -158 98 0 21 24
175 35 225 l5 22 273 0 273 0 164 -562z m-944 357 c-17 -66 -19 -145 -4 -167
9 -14 91 -60 204 -116 l189 -94 205 -260 c113 -143 209 -266 213 -274 16 -29
9 -103 -12 -138 -23 -37 -74 -66 -115 -66 -67 0 -90 22 -288 271 l-193 243
-163 78 -162 78 -188 31 c-207 34 -253 52 -284 109 -18 35 -25 124 -10 147 4
6 52 16 107 23 172 21 351 75 455 139 45 27 54 27 46 -4z m-457 -586 c57 -11
106 -20 107 -22 1 -1 -3 -74 -10 -162 l-13 -160 -142 -295 c-151 -314 -176
-351 -244 -364 -51 -9 -120 22 -147 66 -39 64 -31 91 112 383 l131 270 9 125
c5 69 11 144 14 167 l5 42 37 -16 c20 -8 84 -24 141 -34z m429 -123 l107 -54
180 -227 c163 -206 239 -285 274 -285 28 0 -3 -36 -147 -172 l-157 -147 -354
-1 c-279 0 -352 3 -348 13 3 6 70 147 150 312 l145 300 6 100 c10 157 17 215
27 215 5 0 58 -24 117 -54z"/>
<path d="M66 4035 c-70 -42 -85 -101 -40 -154 32 -39 87 -42 146 -9 72 41 88
109 39 159 -38 37 -89 39 -145 4z"/>
<path d="M969 4031 c-50 -50 -33 -118 41 -160 60 -33 107 -31 142 8 47 53 31
119 -40 159 -57 32 -106 29 -143 -7z"/>
<path d="M537 3789 c-44 -26 -59 -119 -29 -179 33 -67 124 -70 163 -6 35 57
18 160 -30 186 -25 13 -81 12 -104 -1z"/>
<path d="M4608 2419 c-9 -5 -56 -59 -104 -120 -104 -133 -115 -169 -66 -219
35 -34 83 -40 120 -14 13 9 50 50 83 92 l61 77 124 5 c112 5 126 7 146 28 35
35 32 106 -5 138 -27 23 -33 24 -185 24 -86 0 -165 -5 -174 -11z"/>
<path d="M4199 1921 c-47 -48 -34 -117 28 -146 68 -32 133 10 133 87 0 84 -99
121 -161 59z"/>
</g>
</svg>
