<?xml version="1.0" standalone="no"?>
<!DOCTYPE svg PUBLIC "-//W3C//DTD SVG 20010904//EN"
 "http://www.w3.org/TR/2001/REC-SVG-20010904/DTD/svg10.dtd">
<svg version="1.0" xmlns="http://www.w3.org/2000/svg"
 width="500.000000pt" height="500.000000pt" viewBox="0 0 500.000000 500.000000"
 preserveAspectRatio="xMidYMid meet">

<g transform="translate(0.000000,500.000000) scale(0.100000,-0.100000)"
fill="#000000" stroke="none">
<path d="M2359 4989 c-350 -37 -698 -245 -895 -534 -160 -235 -228 -451 -228
-725 0 -268 66 -484 221 -718 177 -267 502 -476 823 -528 52 -9 105 -18 118
-20 l22 -4 0 -1201 c0 -749 4 -1207 10 -1218 5 -10 23 -24 40 -31 35 -15 84 0
100 31 6 11 10 469 10 1218 l0 1201 23 4 c12 2 65 11 117 20 126 20 232 56
360 122 132 69 223 135 326 240 174 178 301 425 345 674 20 109 17 336 -5 440
-72 345 -264 636 -543 820 -257 170 -544 241 -844 209z m-136 -613 c65 -31
140 -109 170 -174 33 -72 30 -198 -5 -274 -32 -69 -96 -135 -163 -168 -43 -21
-64 -25 -150 -25 -86 0 -106 3 -145 24 -62 32 -127 96 -158 156 -37 73 -43
197 -11 280 35 94 132 180 234 206 60 16 170 4 228 -25z"/>
</g>
</svg>
