<?xml version="1.0" standalone="no"?>
<!DOCTYPE svg PUBLIC "-//W3C//DTD SVG 20010904//EN"
 "http://www.w3.org/TR/2001/REC-SVG-20010904/DTD/svg10.dtd">
<svg version="1.0" xmlns="http://www.w3.org/2000/svg"
 width="512.000000pt" height="512.000000pt" viewBox="0 0 512.000000 512.000000"
 preserveAspectRatio="xMidYMid meet">

<g transform="translate(0.000000,512.000000) scale(0.100000,-0.100000)"
fill="#000000" stroke="none">
<path d="M2434 5106 c-34 -8 -99 -34 -145 -58 l-84 -43 -145 0 c-111 0 -159
-5 -205 -19 -117 -35 -209 -96 -281 -183 -62 -77 -83 -91 -182 -125 -197 -67
-314 -188 -378 -388 -26 -83 -29 -87 -124 -180 -103 -101 -138 -152 -179 -259
-22 -60 -25 -81 -26 -221 l-1 -155 -37 -70 c-47 -89 -67 -169 -67 -268 0 -101
21 -180 73 -281 l42 -80 0 -150 c0 -132 3 -160 23 -218 33 -96 87 -173 176
-253 83 -75 99 -98 123 -179 25 -86 75 -168 143 -236 73 -73 150 -118 260
-150 72 -22 77 -25 180 -130 58 -59 115 -110 127 -114 l23 -7 2 -640 3 -641
34 -30 c28 -25 40 -29 70 -25 20 3 183 82 364 176 180 94 332 171 338 171 5 0
157 -77 337 -171 180 -94 343 -173 363 -176 30 -4 42 0 70 25 l34 30 3 635 2
635 43 27 c23 14 83 68 132 119 83 86 95 95 160 116 109 35 184 79 255 150 74
74 118 151 150 260 21 73 25 78 120 170 107 103 146 159 181 260 20 56 23 86
23 215 l1 150 38 76 c50 99 67 166 67 264 0 103 -20 180 -72 280 l-42 80 -1
160 c-1 142 -4 167 -24 220 -35 90 -105 189 -175 248 -78 65 -97 93 -124 184
-13 43 -43 102 -73 147 -75 113 -164 179 -302 223 -102 33 -132 53 -191 126
-57 69 -120 119 -201 156 -99 47 -159 56 -341 51 -73 -2 -87 1 -145 30 -35 18
-89 41 -119 52 -73 25 -216 32 -296 14z m312 -239 c110 -52 180 -65 284 -56
138 12 244 -24 325 -111 134 -145 172 -172 290 -205 79 -23 132 -54 182 -108
48 -52 69 -89 90 -161 33 -110 60 -148 200 -278 29 -27 63 -72 79 -105 28 -56
29 -63 30 -218 0 -88 4 -169 8 -180 5 -11 29 -63 55 -114 45 -93 46 -97 46
-190 0 -94 -1 -98 -50 -201 l-50 -105 -1 -155 c-1 -214 -11 -240 -149 -375
-113 -111 -135 -142 -160 -230 -48 -166 -132 -251 -295 -298 -91 -27 -150 -70
-243 -180 -34 -40 -66 -65 -114 -89 -67 -33 -68 -33 -223 -34 -171 -1 -178 -3
-305 -65 -87 -43 -92 -44 -185 -44 -93 0 -97 1 -200 50 l-105 50 -155 1 c-213
1 -239 11 -375 149 -55 56 -112 109 -126 118 -15 9 -69 30 -120 47 -164 56
-236 129 -282 290 -23 80 -63 136 -155 219 -63 57 -90 89 -115 140 -32 65 -32
67 -33 216 0 82 -4 164 -9 180 -4 17 -29 71 -54 120 -45 89 -46 91 -46 190 0
97 1 103 42 185 59 123 66 157 59 280 -11 174 32 280 151 371 74 58 128 136
158 231 32 101 47 130 98 185 50 54 100 84 192 113 94 29 157 71 217 144 63
76 92 100 165 133 55 26 66 27 218 28 l160 0 110 52 c134 63 133 63 221 59 60
-2 86 -10 170 -49z m377 -3597 l47 0 0 -500 c0 -275 -3 -500 -7 -500 -5 0
-118 58 -253 129 l-245 128 -5 147 c-5 147 -5 148 -33 172 -38 33 -96 33 -134
0 -28 -24 -28 -25 -33 -172 l-5 -149 -245 -127 c-135 -70 -248 -128 -252 -128
-5 0 -8 222 -8 494 l0 493 115 7 c129 8 134 8 230 -40 95 -47 164 -64 265 -64
103 0 169 17 275 69 109 53 102 51 175 46 36 -3 86 -5 113 -5z"/>
<path d="M2405 4488 c-271 -30 -540 -151 -746 -334 -310 -277 -474 -663 -456
-1074 29 -632 464 -1139 1097 -1276 132 -29 401 -27 539 4 126 29 220 61 326
114 608 305 898 1001 684 1643 -170 510 -613 866 -1151 924 -111 12 -179 12
-293 -1z m280 -198 c398 -46 743 -288 915 -644 218 -449 131 -970 -220 -1324
-451 -454 -1182 -456 -1638 -2 -353 350 -441 876 -222 1326 212 437 685 698
1165 644z"/>
<path d="M2465 3820 c-76 -36 -98 -65 -164 -210 -24 -52 -44 -96 -45 -97 -1
-1 -58 -9 -126 -18 -142 -18 -195 -39 -240 -93 -39 -47 -64 -131 -56 -184 11
-67 41 -112 137 -202 l93 -86 -22 -119 c-28 -150 -27 -174 2 -236 43 -94 120
-139 226 -133 58 3 78 10 178 66 l113 62 88 -50 c122 -69 156 -81 216 -81 94
0 171 49 211 136 29 62 30 86 2 236 l-22 119 93 86 c96 91 124 131 136 201 9
56 -15 137 -55 185 -45 54 -98 75 -240 93 -68 9 -125 17 -126 18 -1 1 -21 45
-45 97 -67 147 -96 183 -173 215 -49 21 -133 19 -181 -5z m131 -207 c9 -16 39
-79 68 -142 30 -67 62 -122 77 -133 17 -13 66 -23 173 -35 142 -16 176 -27
176 -55 0 -6 -54 -63 -120 -126 -140 -134 -134 -112 -94 -320 14 -74 23 -140
20 -148 -10 -27 -54 -13 -177 56 -88 50 -134 70 -159 70 -25 0 -71 -21 -158
-70 -123 -70 -168 -83 -178 -55 -3 8 6 74 20 148 40 206 46 185 -94 320 -66
63 -120 118 -120 123 1 31 24 38 172 56 109 13 160 23 177 36 15 11 47 66 77
133 72 156 80 169 104 169 12 0 27 -11 36 -27z"/>
</g>
</svg>
