<?xml version="1.0" standalone="no"?>
<!DOCTYPE svg PUBLIC "-//W3C//DTD SVG 20010904//EN"
 "http://www.w3.org/TR/2001/REC-SVG-20010904/DTD/svg10.dtd">
<svg version="1.0" xmlns="http://www.w3.org/2000/svg"
 width="500.000000pt" height="500.000000pt" viewBox="0 0 500.000000 500.000000"
 preserveAspectRatio="xMidYMid meet">

<g transform="translate(0.000000,500.000000) scale(0.100000,-0.100000)"
fill="#000000" stroke="none">
<path d="M1901 4990 c-75 -11 -188 -70 -247 -129 -96 -96 -134 -200 -134 -368
l0 -103 -302 0 c-167 0 -332 -5 -368 -11 -187 -29 -331 -168 -370 -354 -38
-185 69 -396 242 -478 31 -15 61 -27 67 -27 7 0 12 -471 14 -1502 2 -1414 4
-1507 21 -1562 63 -210 207 -364 397 -427 l74 -24 1200 0 c1319 0 1235 -4
1370 63 87 43 207 160 252 247 42 80 71 190 77 295 3 47 5 720 6 1497 l0 1411
38 13 c56 18 134 71 176 120 228 264 79 675 -264 729 -36 5 -201 10 -366 10
l-301 0 -6 123 c-3 67 -11 140 -18 162 -52 161 -206 292 -371 315 -76 11
-1110 11 -1187 0z m1209 -241 c60 -27 88 -54 116 -114 20 -42 24 -66 24 -147
l0 -98 -750 0 -750 0 0 93 c0 50 5 110 11 132 13 49 89 126 139 142 24 7 217
11 600 12 548 1 566 0 610 -20z m1043 -605 c92 -31 158 -144 138 -234 -16 -73
-53 -120 -121 -156 -34 -18 -95 -19 -1640 -22 -1145 -2 -1620 1 -1658 9 -71
14 -144 82 -162 148 -29 109 38 228 146 261 16 4 754 9 1640 9 1448 1 1615 -1
1657 -15z m-195 -642 c10 -7 12 -296 10 -1483 -3 -1473 -3 -1474 -24 -1532
-40 -107 -105 -180 -204 -226 l-55 -26 -1159 -3 c-1257 -3 -1226 -4 -1313 51
-85 54 -152 157 -173 267 -11 59 -15 2942 -3 2953 9 10 2906 8 2921 -1z"/>
<path d="M1732 3151 c-16 -17 -32 -44 -36 -62 -3 -17 -6 -527 -5 -1133 0 -826
3 -1110 12 -1135 22 -64 101 -94 161 -62 59 32 56 -27 54 1221 l-3 1142 -33
29 c-46 41 -108 41 -150 0z"/>
<path d="M2421 3150 c-20 -20 -32 -44 -36 -73 -3 -23 -5 -539 -3 -1147 l3
-1105 23 -32 c35 -49 88 -60 150 -30 54 26 52 -24 52 1201 0 795 -3 1142 -11
1159 -15 33 -60 57 -107 57 -32 0 -47 -7 -71 -30z"/>
<path d="M3131 3166 c-52 -29 -50 23 -51 -1199 0 -1228 -2 -1177 52 -1205 50
-26 99 -19 137 19 l31 31 0 1143 c0 866 -3 1150 -12 1170 -22 50 -104 71 -157
41z"/>
</g>
</svg>
