<?xml version="1.0" standalone="no"?>
<!DOCTYPE svg PUBLIC "-//W3C//DTD SVG 20010904//EN"
 "http://www.w3.org/TR/2001/REC-SVG-20010904/DTD/svg10.dtd">
<svg version="1.0" xmlns="http://www.w3.org/2000/svg"
 width="500.000000pt" height="500.000000pt" viewBox="0 0 500.000000 500.000000"
 preserveAspectRatio="xMidYMid meet">
<metadata>
Created by potrace 1.16, written by Peter Selinger 2001-2019
</metadata>
<g transform="translate(0.000000,500.000000) scale(0.100000,-0.100000)"
fill="#000000" stroke="none">
<path d="M571 4833 l-21 -18 -3 -800 -2 -800 -118 -300 c-65 -165 -133 -338
-152 -385 -19 -47 -51 -130 -72 -185 l-38 -100 -3 -247 -3 -246 27 -21 27 -21
2289 0 2290 0 29 29 29 29 0 218 0 217 -51 136 c-28 75 -56 150 -63 166 -8 17
-72 181 -142 365 l-129 335 -5 802 c-5 753 -6 803 -23 820 -17 17 -110 18
-1931 21 -1813 2 -1915 1 -1935 -15z m3729 -832 c0 -374 -3 -686 -6 -695 -6
-14 -111 -16 -1095 -16 l-1089 0 0 -85 0 -86 213 1 c116 0 613 1 1104 0 l891
0 26 -67 c14 -38 31 -86 39 -108 8 -22 58 -152 112 -290 53 -137 105 -272 115
-300 10 -27 21 -58 25 -68 7 -16 -99 -17 -2135 -17 -2036 0 -2142 1 -2135 17
4 10 24 63 45 118 35 93 129 337 184 479 13 34 39 100 56 149 l33 87 88 0 89
0 0 86 0 86 -75 -4 -75 -3 -2 698 -3 697 1798 0 1797 0 0 -679z m390 -1980 c0
-43 -3 -93 -6 -110 l-7 -31 -2178 0 -2178 0 -3 111 c-2 61 -2 111 -1 112 1 1
985 1 2187 -1 l2186 -2 0 -79z"/>
<path d="M3408 4441 c-31 -10 -77 -30 -101 -44 -76 -45 -158 -150 -171 -219
-3 -13 -5 -25 -6 -28 -1 -3 -2 -34 -2 -70 1 -99 2 -100 232 -100 255 0 235
-20 235 239 0 174 -2 202 -17 217 -25 25 -103 27 -170 5z"/>
<path d="M2709 4380 l-136 -69 -106 35 c-59 19 -115 34 -126 34 -15 0 -335
-151 -350 -166 -6 -6 63 -136 76 -141 6 -2 70 25 141 61 71 36 136 66 144 66
8 0 54 -13 103 -30 136 -46 122 -49 378 83 49 25 91 47 93 50 7 7 -64 147 -74
146 -4 0 -68 -31 -143 -69z"/>
<path d="M3693 4198 c-21 -23 -23 -33 -23 -156 l0 -132 -133 0 c-123 0 -135
-2 -156 -22 -21 -19 -23 -27 -19 -98 10 -180 135 -314 326 -351 73 -14 156 -2
239 36 185 84 275 330 186 512 -66 135 -193 225 -328 231 -63 4 -72 2 -92 -20z
m215 -212 c45 -42 64 -86 67 -153 4 -123 -98 -233 -216 -233 -84 0 -142 31
-199 107 -31 41 -26 43 103 43 172 0 167 -4 167 161 l0 130 23 -12 c12 -6 37
-25 55 -43z"/>
<path d="M1422 4139 c-194 -38 -309 -261 -226 -439 14 -30 32 -63 41 -72 15
-17 12 -22 -34 -70 -75 -80 -106 -152 -111 -259 l-4 -87 -61 -4 c-43 -3 -63
-10 -73 -23 -11 -15 -14 -90 -14 -376 l0 -358 22 -15 c20 -14 86 -16 524 -16
479 0 503 1 525 19 l24 19 0 351 c0 347 0 351 -22 372 -15 16 -38 24 -77 27
l-55 4 -4 77 c-2 42 -7 89 -11 106 -12 51 -58 124 -104 167 -45 41 -45 41 -28
67 10 14 29 50 43 80 22 47 25 63 21 135 -7 130 -67 220 -183 271 -59 27 -133
36 -193 24z m137 -183 c32 -15 60 -54 70 -97 19 -83 -44 -166 -133 -176 -99
-12 -181 86 -155 182 26 95 125 136 218 91z m9 -462 c43 -17 97 -67 118 -107
19 -36 37 -132 29 -157 -6 -19 -16 -20 -237 -20 l-231 0 7 62 c9 78 28 124 69
167 63 66 164 89 245 55z m302 -461 c1 -64 1 -405 1 -425 l-1 -28 -385 0 -385
0 0 230 0 230 385 0 c212 0 385 -3 385 -7z"/>
<path d="M2737 4144 c-4 -4 -7 -131 -7 -281 l0 -274 83 3 82 3 0 275 0 275
-75 3 c-42 1 -79 0 -83 -4z"/>
<path d="M2269 3844 c-1 -123 -2 -230 -3 -236 -1 -10 21 -13 79 -13 l80 0 0
235 0 235 -77 2 -78 2 -1 -225z"/>
<path d="M2030 3788 l0 -198 80 0 80 0 0 200 0 201 -80 -3 -80 -3 0 -197z"/>
<path d="M2500 3790 l0 -200 80 0 80 0 0 200 0 200 -80 0 -80 0 0 -200z"/>
<path d="M415 1381 c-73 -34 -146 -111 -169 -178 -32 -94 -16 -214 40 -295
l26 -37 -55 -55 c-86 -88 -97 -133 -97 -411 l0 -224 30 -16 c24 -13 83 -15
357 -15 312 0 330 1 361 20 l33 21 -3 232 -3 233 -32 65 c-19 39 -52 84 -79
109 l-45 42 25 36 c43 63 56 106 56 189 0 62 -5 89 -25 130 -73 158 -264 228
-420 154z m205 -156 c67 -35 94 -139 52 -206 -79 -129 -272 -74 -272 78 0 105
124 178 220 128z m8 -467 c48 -14 102 -66 125 -118 16 -36 21 -73 25 -182 l5
-138 -227 0 c-124 0 -229 -1 -232 -2 -3 -2 -6 60 -5 137 1 132 3 143 29 194
56 108 156 147 280 109z"/>
<path d="M1370 1393 c-64 -23 -161 -122 -183 -187 -33 -97 -18 -213 39 -299
l25 -38 -45 -40 c-28 -25 -58 -66 -78 -107 l-33 -66 -3 -226 c-3 -213 -2 -228
16 -251 l20 -24 338 -3 c364 -3 388 0 405 47 15 39 9 413 -7 468 -18 60 -67
136 -112 173 l-35 29 32 47 c42 64 54 114 49 205 -4 59 -10 86 -31 122 -36 61
-114 128 -173 150 -60 21 -163 21 -224 0z m216 -197 c44 -43 50 -61 44 -126
-8 -97 -132 -156 -221 -104 -95 55 -96 193 -3 255 19 13 47 19 83 19 50 0 57
-3 97 -44z m-16 -438 c49 -18 93 -61 119 -117 23 -50 26 -70 28 -188 l3 -133
-236 0 -237 0 5 140 c5 122 8 146 29 186 55 107 176 154 289 112z"/>
<path d="M2397 1396 c-129 -48 -207 -164 -207 -305 0 -67 24 -161 41 -161 5 0
9 -6 9 -14 0 -7 7 -19 15 -26 13 -11 9 -20 -33 -64 -26 -28 -61 -78 -78 -111
l-29 -60 -3 -232 -3 -232 33 -21 c31 -19 49 -20 356 -20 343 0 367 3 392 49 6
12 10 98 10 209 0 163 -3 197 -20 247 -25 72 -71 145 -117 186 -20 17 -32 34
-27 37 12 10 31 39 56 92 32 65 30 178 -5 253 -29 64 -88 127 -149 158 -54 28
-184 36 -241 15z m181 -176 c127 -78 72 -274 -78 -274 -56 0 -91 20 -127 74
-63 92 10 220 127 220 27 0 58 -8 78 -20z m22 -471 c37 -18 76 -56 105 -102
15 -23 19 -57 23 -178 l5 -149 -232 0 -231 0 0 118 c0 70 6 139 15 171 36 135
189 204 315 140z"/>
<path d="M3385 1381 c-113 -54 -177 -148 -183 -268 -5 -81 7 -127 50 -196 l30
-47 -44 -39 c-45 -40 -98 -131 -104 -179 -10 -83 -16 -328 -10 -395 11 -112
-8 -107 393 -107 312 0 330 1 361 20 l33 21 -3 232 -3 233 -33 66 c-20 41 -50
82 -77 106 l-45 40 35 57 c39 65 50 119 42 211 -6 77 -36 133 -107 197 -92 83
-223 102 -335 48z m226 -178 c68 -64 71 -155 7 -215 -52 -48 -119 -55 -186
-19 -26 14 -60 68 -62 101 -6 66 0 83 44 126 41 42 46 44 100 44 52 0 60 -3
97 -37z m-6 -448 c48 -19 92 -62 116 -112 19 -40 23 -68 27 -185 l5 -138 -234
0 -234 0 5 147 c4 124 8 154 26 187 53 102 179 146 289 101z"/>
<path d="M4333 1389 c-110 -43 -185 -151 -191 -274 -5 -85 8 -136 48 -197 l31
-47 -46 -42 c-26 -24 -59 -69 -78 -108 l-32 -65 -3 -215 c-2 -117 -1 -224 2
-237 13 -52 37 -55 406 -52 310 3 341 5 357 21 16 16 18 40 18 245 l0 227 -32
67 c-18 39 -51 86 -78 112 l-45 45 28 45 c16 25 35 66 42 91 16 58 9 180 -14
224 -28 53 -96 121 -151 149 -70 36 -188 41 -262 11z m213 -180 c55 -51 69
-120 38 -185 -34 -71 -134 -99 -205 -58 -93 55 -96 198 -6 255 46 29 136 23
173 -12z m-10 -450 c43 -13 103 -73 127 -128 21 -47 36 -233 23 -285 l-6 -26
-231 0 -232 0 5 138 c5 149 17 194 66 245 63 67 148 86 248 56z"/>
</g>
</svg>
