<?xml version="1.0" standalone="no"?>
<!DOCTYPE svg PUBLIC "-//W3C//DTD SVG 20010904//EN"
 "http://www.w3.org/TR/2001/REC-SVG-20010904/DTD/svg10.dtd">
<svg version="1.0" xmlns="http://www.w3.org/2000/svg"
 width="500.000000pt" height="500.000000pt" viewBox="0 0 500.000000 500.000000"
 preserveAspectRatio="xMidYMid meet">

<g transform="translate(0.000000,500.000000) scale(0.100000,-0.100000)"
fill="#000000" stroke="none">
<path d="M2315 4994 c-208 -21 -358 -50 -527 -100 -883 -259 -1557 -996 -1737
-1899 -37 -187 -46 -278 -45 -495 0 -280 25 -459 100 -715 236 -802 877 -1443
1679 -1679 257 -75 436 -101 715 -101 278 0 458 26 712 101 883 259 1557 996
1737 1899 37 186 46 278 46 495 0 279 -26 458 -101 715 -237 804 -879 1445
-1682 1679 -242 71 -406 96 -662 100 -107 2 -213 2 -235 0z m381 -395 c497
-48 943 -258 1294 -609 351 -351 561 -798 609 -1294 51 -516 -95 -1035 -409
-1456 -697 -934 -2016 -1126 -2950 -430 -283 212 -525 512 -664 826 -246 557
-246 1172 0 1726 204 461 601 858 1062 1062 335 149 702 210 1058 175z"/>
<path d="M1281 3069 c-44 -18 -82 -51 -104 -92 -22 -42 -22 -46 -22 -477 0
-433 0 -435 23 -477 12 -24 41 -55 64 -70 l42 -28 1216 0 1216 0 42 28 c23 15
52 46 64 70 23 42 23 44 23 477 l0 435 -27 47 c-15 25 -45 57 -65 70 l-38 23
-1205 2 c-744 1 -1214 -2 -1229 -8z m2179 -569 l0 -190 -960 0 -960 0 0 190 0
190 960 0 960 0 0 -190z"/>
</g>
</svg>
