<?xml version="1.0" standalone="no"?>
<!DOCTYPE svg PUBLIC "-//W3C//DTD SVG 20010904//EN"
 "http://www.w3.org/TR/2001/REC-SVG-20010904/DTD/svg10.dtd">
<svg version="1.0" xmlns="http://www.w3.org/2000/svg"
 width="500.000000pt" height="500.000000pt" viewBox="0 0 500.000000 500.000000"
 preserveAspectRatio="xMidYMid meet">

<g transform="translate(0.000000,500.000000) scale(0.100000,-0.100000)"
fill="#000000" stroke="none">
<path d="M3715 4981 c-69 -18 -396 -112 -1240 -358 -377 -109 -856 -248 -1515
-438 -368 -106 -416 -128 -517 -239 -91 -100 -135 -219 -134 -367 0 -78 8
-113 88 -385 l88 -299 5 -1235 5 -1235 28 -69 c69 -175 212 -299 389 -341 95
-22 1295 -22 1338 0 58 30 67 95 21 147 l-29 33 -654 5 -653 5 -56 28 c-62 30
-126 93 -157 154 -39 76 -42 134 -42 820 l0 663 1915 0 1915 0 0 -672 c0 -725
-1 -742 -53 -830 -33 -57 -96 -114 -156 -142 -45 -21 -58 -21 -699 -26 l-654
-5 -29 -33 c-44 -49 -34 -119 22 -148 42 -21 1245 -21 1335 1 179 42 326 169
395 342 l24 58 3 1252 2 1251 -24 29 -24 28 -1684 5 -1683 5 160 47 c88 25
536 155 995 288 1709 495 2006 581 2033 592 37 14 67 54 67 89 0 42 -168 615
-200 684 -73 154 -213 265 -379 301 -87 18 -160 17 -246 -5z m284 -210 c61
-32 133 -101 159 -155 28 -55 165 -524 159 -540 -4 -11 -347 -116 -377 -116
-6 0 -75 62 -153 138 -78 76 -235 228 -349 337 -114 109 -206 201 -203 203 2
2 125 40 272 83 260 77 271 79 358 76 70 -3 100 -8 134 -26z m-659 -512 c179
-171 336 -321 349 -335 14 -13 22 -26 19 -30 -4 -3 -119 -39 -256 -79 l-250
-72 -349 333 c-191 184 -349 338 -351 343 -1 4 48 23 110 41 62 18 169 50 238
71 69 20 134 38 145 38 14 1 127 -101 345 -310z m-714 -234 c192 -184 348
-338 347 -342 -1 -4 -115 -40 -253 -80 l-252 -73 -124 118 c-324 308 -572 548
-577 557 -4 9 460 152 499 154 6 1 168 -150 360 -334z m-1063 103 c116 -108
677 -653 677 -658 0 -3 -115 -39 -256 -79 l-255 -74 -107 105 c-59 57 -216
209 -350 338 -133 128 -240 236 -237 239 5 5 469 145 497 150 4 0 18 -9 31
-21z m-310 -623 c237 -228 257 -250 236 -257 -66 -25 -831 -239 -836 -235 -14
15 -144 491 -150 549 -14 155 84 301 239 355 l63 22 95 -93 c52 -51 211 -204
353 -341z m279 -721 c7 -6 1 -17 -231 -416 l-173 -298 -224 0 -224 0 0 353 c0
195 3 357 7 360 8 8 837 9 845 1z m766 -8 c-2 -7 -93 -169 -203 -360 l-200
-346 -267 0 c-148 0 -268 2 -268 4 0 5 265 467 357 624 l54 92 265 0 c221 0
265 -2 262 -14z m765 7 c2 -5 -87 -165 -198 -358 l-202 -350 -273 -3 -272 -2
20 32 c11 18 100 173 197 343 98 171 185 318 193 328 14 15 40 17 273 17 142
0 260 -3 262 -7z m767 -2 c0 -4 -80 -147 -178 -317 -98 -170 -189 -328 -202
-351 l-24 -43 -268 0 c-147 0 -268 2 -268 5 0 5 212 375 357 623 l54 92 264 0
c146 0 265 -4 265 -9z m678 -353 l2 -358 -431 0 -431 0 14 23 c8 12 97 166
198 342 101 176 190 328 198 338 14 16 35 17 231 15 l216 -3 3 -357z"/>
<path d="M2274 1624 c-17 -8 -36 -26 -43 -40 -14 -32 -16 -1040 -1 -1078 12
-32 69 -61 101 -53 28 7 885 500 911 524 26 23 33 75 14 111 -8 16 -35 41 -58
54 -24 14 -223 128 -443 255 -220 127 -411 234 -425 237 -14 3 -39 -1 -56 -10z
m424 -419 c150 -87 270 -161 265 -166 -9 -9 -542 -319 -549 -319 -2 0 -4 147
-4 326 0 179 3 323 8 321 4 -2 130 -75 280 -162z"/>
<path d="M2526 159 c-65 -77 12 -187 105 -149 63 26 78 95 33 149 -21 26 -33
31 -69 31 -36 0 -48 -5 -69 -31z"/>
</g>
</svg>
