<?xml version="1.0" standalone="no"?>
<!DOCTYPE svg PUBLIC "-//W3C//DTD SVG 20010904//EN"
 "http://www.w3.org/TR/2001/REC-SVG-20010904/DTD/svg10.dtd">
<svg version="1.0" xmlns="http://www.w3.org/2000/svg"
 width="500.000000pt" height="500.000000pt" viewBox="0 0 500.000000 500.000000"
 preserveAspectRatio="xMidYMid meet">

<g transform="translate(0.000000,500.000000) scale(0.100000,-0.100000)"
fill="#000000" stroke="none">
<path d="M3904 4881 c-157 -53 -259 -172 -285 -332 -29 -183 66 -362 235 -440
66 -31 78 -33 171 -33 90 0 107 4 167 31 302 140 333 542 54 727 -96 64 -236
83 -342 47z"/>
<path d="M2085 4483 c-254 -92 -365 -350 -249 -583 61 -125 203 -221 334 -228
252 -15 443 167 442 419 0 117 -28 191 -102 271 -81 89 -167 129 -289 135 -65
3 -98 -1 -136 -14z"/>
<path d="M3088 4070 c-175 -5 -311 -13 -332 -20 -36 -11 -100 -74 -110 -106
-3 -11 -21 -136 -41 -279 -19 -143 -40 -287 -45 -320 -13 -76 -12 -85 1 -85 6
0 72 37 147 82 74 44 156 89 181 98 l46 18 13 93 c7 52 15 109 18 127 l5 32
116 0 115 0 -6 -25 c-4 -14 -24 -63 -45 -108 -59 -124 -59 -118 4 -151 61 -32
113 -84 147 -148 19 -36 23 -58 23 -138 0 -84 -3 -101 -27 -146 -43 -82 -81
-114 -289 -238 l-196 -117 -32 -157 c-51 -257 -96 -461 -103 -467 -4 -4 -134
33 -290 81 -309 95 -365 106 -422 79 -20 -10 -36 -21 -36 -25 0 -13 166 -164
290 -265 74 -60 128 -131 151 -198 19 -57 -14 -42 283 -127 179 -51 246 -52
315 -7 69 46 73 60 168 517 19 96 37 177 39 179 4 4 24 -14 211 -179 65 -58
139 -120 165 -139 26 -18 49 -39 51 -46 5 -10 -57 -350 -178 -980 -39 -205
-39 -233 0 -301 86 -147 326 -132 387 25 5 14 21 89 34 166 28 156 99 538 168
897 25 131 46 255 46 276 0 78 -38 128 -226 298 -97 87 -187 168 -201 179
l-25 21 75 164 c88 194 167 377 167 389 0 5 7 14 15 21 12 10 17 5 30 -26 20
-49 41 -72 89 -96 61 -31 119 -21 213 37 70 43 306 183 635 377 137 80 160
107 166 189 6 78 -27 137 -94 169 -85 42 -106 34 -420 -152 -310 -184 -324
-192 -331 -185 -2 3 -20 46 -39 96 -31 84 -33 94 -23 142 6 28 8 72 4 97 -25
170 -129 271 -365 357 -91 33 -187 37 -642 25z"/>
<path d="M1215 3670 c-163 -4 -271 -12 -290 -19 -46 -19 -83 -59 -100 -110
-17 -54 -105 -748 -105 -834 0 -69 17 -106 65 -143 70 -53 167 -42 229 26 41
46 38 30 90 415 l41 300 120 7 c66 3 120 5 121 5 1 -1 -34 -81 -76 -177 -261
-594 -300 -688 -309 -750 -4 -35 -6 -71 -4 -80 4 -15 -25 -167 -107 -550 -17
-79 -33 -146 -34 -148 -2 -2 -78 19 -168 46 -89 28 -219 67 -288 88 -153 47
-224 50 -291 13 -164 -90 -139 -326 42 -392 59 -22 325 -102 603 -181 289 -83
330 -85 410 -14 60 52 74 94 136 403 28 143 54 263 56 267 5 7 125 -91 270
-221 28 -25 74 -65 102 -89 34 -28 52 -51 52 -65 0 -21 -74 -420 -160 -867
-48 -247 -52 -349 -17 -401 81 -121 250 -132 346 -23 34 39 43 59 60 137 25
111 139 716 171 902 6 33 20 111 31 172 11 62 21 139 23 170 6 94 -16 123
-245 328 -109 98 -199 181 -199 185 0 6 117 269 179 403 23 49 41 94 41 99 0
6 10 26 22 46 21 35 22 35 30 11 26 -69 106 -128 173 -129 42 0 104 31 295
147 91 55 259 155 373 223 115 68 219 136 232 152 74 88 46 220 -59 275 -20
10 -48 14 -86 11 -48 -3 -71 -13 -151 -62 -277 -172 -491 -297 -502 -293 -7 3
-25 40 -42 83 -27 72 -30 90 -30 199 0 107 -3 125 -25 170 -42 86 -94 133
-205 186 -170 81 -178 82 -380 85 -99 1 -297 -2 -440 -6z"/>
</g>
</svg>
