<?xml version="1.0" standalone="no"?>
<!DOCTYPE svg PUBLIC "-//W3C//DTD SVG 20010904//EN"
 "http://www.w3.org/TR/2001/REC-SVG-20010904/DTD/svg10.dtd">
<svg version="1.0" xmlns="http://www.w3.org/2000/svg"
 width="512.000000pt" height="512.000000pt" viewBox="0 0 512.000000 512.000000"
 preserveAspectRatio="xMidYMid meet">

<g transform="translate(0.000000,512.000000) scale(0.100000,-0.100000)"
fill="#000000" stroke="none">
<path d="M2400 5059 c-445 -37 -868 -241 -1185 -570 -535 -557 -672 -1381
-345 -2068 98 -204 195 -344 358 -512 l102 -106 0 -799 c0 -494 4 -812 10
-833 22 -79 112 -132 188 -112 20 6 261 100 534 210 l498 199 497 -199 c274
-110 515 -204 535 -210 76 -20 166 33 188 112 6 21 10 339 10 833 l0 799 103
106 c162 168 259 308 357 512 171 359 218 764 136 1160 -34 161 -75 281 -150
434 -106 215 -218 368 -395 537 -134 129 -286 235 -456 319 -227 111 -432 168
-684 189 -129 11 -164 11 -301 -1z m295 -319 c375 -36 691 -185 955 -449 424
-424 565 -1035 370 -1598 -156 -449 -527 -814 -980 -962 -656 -215 -1376 34
-1761 607 -416 620 -337 1425 190 1952 329 329 777 493 1226 450z m-914 -3225
c510 -244 1075 -240 1582 11 49 24 93 44 98 44 5 0 9 -224 9 -561 0 -445 -3
-560 -12 -556 -7 3 -205 82 -441 176 -235 94 -441 171 -457 171 -16 0 -222
-77 -457 -171 -236 -94 -434 -173 -440 -176 -10 -4 -13 111 -13 556 0 315 4
561 9 561 5 0 60 -25 122 -55z"/>
<path d="M1650 3349 c-32 -13 -68 -47 -86 -81 -20 -38 -18 -165 5 -273 63
-306 262 -561 546 -700 139 -68 239 -95 380 -102 104 -5 112 -4 144 18 76 53
100 132 62 206 -31 62 -74 83 -190 93 -185 16 -304 72 -436 205 -133 132 -189
251 -205 436 -6 73 -14 108 -30 134 -38 62 -124 90 -190 64z"/>
</g>
</svg>
