<?xml version="1.0" standalone="no"?>
<!DOCTYPE svg PUBLIC "-//W3C//DTD SVG 20010904//EN"
 "http://www.w3.org/TR/2001/REC-SVG-20010904/DTD/svg10.dtd">
<svg version="1.0" xmlns="http://www.w3.org/2000/svg"
 width="500.000000pt" height="500.000000pt" viewBox="0 0 500.000000 500.000000"
 preserveAspectRatio="xMidYMid meet">

<g transform="translate(0.000000,500.000000) scale(0.100000,-0.100000)"
fill="#000000" stroke="none">
<path d="M3855 4990 c-57 -12 -123 -37 -170 -64 -58 -35 -138 -123 -173 -192
-48 -96 -57 -151 -57 -344 0 -153 3 -184 22 -245 12 -38 34 -87 48 -107 14
-20 25 -41 25 -46 0 -5 -19 -22 -42 -37 -200 -132 -333 -378 -341 -626 -2 -80
0 -90 21 -112 30 -32 65 -41 107 -27 42 14 65 60 65 132 1 188 133 408 297
496 l58 30 75 -25 c106 -37 225 -36 333 1 l79 26 59 -36 c118 -71 209 -182
257 -315 l27 -74 3 -538 c3 -609 5 -589 -72 -627 -23 -11 -53 -20 -67 -20 -33
0 -64 -23 -77 -57 -6 -15 -37 -435 -68 -933 -31 -498 -61 -923 -66 -944 -5
-22 -25 -55 -43 -73 l-33 -33 -165 0 c-151 0 -166 2 -191 21 -63 50 -59 17
-116 974 -49 826 -59 963 -74 995 -13 29 -46 47 -99 55 -23 4 -52 19 -73 38
-30 27 -36 41 -44 96 -11 82 -41 116 -99 116 -77 0 -110 -63 -90 -173 21 -111
89 -201 185 -243 39 -18 43 -23 49 -62 3 -23 21 -310 40 -637 66 -1142 66
-1137 126 -1232 33 -50 69 -82 139 -119 43 -23 53 -24 245 -24 192 0 202 1
245 24 24 13 58 33 74 45 43 31 103 130 115 189 6 29 33 412 61 852 27 440 53
833 56 873 l6 72 42 19 c86 38 151 114 180 211 23 78 24 1013 1 1145 -35 202
-160 400 -321 511 -30 21 -54 39 -54 41 0 2 13 27 29 56 59 107 66 144 66 357
-1 177 -3 201 -24 260 -31 88 -62 138 -124 199 -110 110 -294 163 -452 131z
m179 -195 c71 -19 133 -60 170 -114 49 -70 55 -102 56 -287 0 -171 0 -171 -30
-232 -33 -65 -76 -109 -143 -144 -61 -33 -203 -33 -264 0 -67 35 -110 79 -143
144 -30 61 -30 62 -30 229 0 144 3 176 20 222 33 89 120 163 217 186 56 13 83
13 147 -4z"/>
<path d="M2236 4089 c-125 -29 -242 -125 -296 -241 -71 -154 -63 -458 15 -594
l24 -40 -61 -45 c-113 -82 -205 -221 -250 -374 -22 -78 -23 -91 -23 -520 0
-428 1 -441 21 -486 29 -61 83 -121 139 -150 39 -21 45 -29 50 -64 3 -22 19
-242 35 -490 41 -601 59 -823 70 -867 25 -89 120 -184 213 -209 24 -6 102 -9
191 -7 142 3 154 5 209 32 71 34 131 105 152 179 9 33 32 302 62 727 l48 675
30 14 c54 25 110 78 140 132 l30 54 3 444 c3 418 2 448 -18 524 -33 132 -83
220 -180 318 -47 47 -96 92 -109 100 l-23 15 21 34 c45 74 61 152 61 306 0 78
-5 167 -11 196 -35 165 -154 289 -322 334 -58 15 -162 17 -221 3z m220 -207
c46 -24 95 -73 120 -122 26 -50 33 -275 10 -351 -50 -174 -269 -239 -406 -121
-71 60 -84 97 -88 256 -3 90 0 154 8 182 21 73 98 148 180 175 40 13 133 3
176 -19z m-266 -824 c77 -31 231 -31 309 0 l55 22 45 -27 c116 -68 217 -216
241 -353 7 -42 10 -201 8 -453 l-3 -389 -33 -29 c-18 -16 -44 -29 -58 -29 -33
0 -81 -25 -94 -50 -6 -11 -33 -336 -60 -722 -28 -387 -52 -717 -55 -735 -3
-18 -17 -46 -31 -63 l-26 -30 -142 0 c-131 0 -144 2 -165 21 -12 11 -26 31
-31 43 -9 23 -26 239 -60 751 -36 536 -51 709 -66 736 -13 26 -58 49 -96 49
-11 0 -35 15 -54 34 l-34 34 0 404 c0 438 3 465 57 578 31 63 138 177 198 208
22 12 40 21 40 22 0 0 25 -10 55 -22z"/>
<path d="M800 3190 c-72 -15 -164 -66 -210 -116 -23 -25 -56 -75 -73 -112
l-32 -67 0 -185 c0 -183 0 -186 29 -248 l30 -64 -35 -26 c-97 -73 -184 -191
-218 -295 -33 -101 -41 -186 -41 -487 0 -312 6 -359 55 -430 23 -33 93 -90
125 -102 7 -2 39 -274 90 -754 15 -142 57 -217 151 -269 52 -29 60 -30 196
-33 115 -3 152 -1 195 14 69 23 148 100 171 168 10 30 33 209 59 459 l42 410
30 16 c49 27 95 72 124 120 l27 46 0 370 c0 401 -2 416 -57 529 -47 98 -125
191 -206 247 l-22 16 32 69 33 69 0 165 c0 188 -11 238 -72 328 -85 125 -267
194 -423 162z m190 -212 c90 -46 127 -146 117 -312 -7 -109 -33 -167 -95 -211
-58 -40 -158 -48 -219 -17 -51 27 -99 81 -112 129 -14 49 -14 237 0 286 12 45
72 115 114 133 49 22 144 17 195 -8z m-195 -744 c69 -19 151 -14 233 12 l52
17 57 -39 c66 -45 132 -131 165 -212 21 -54 23 -72 26 -371 2 -172 1 -324 -2
-338 -9 -34 -42 -63 -71 -63 -39 0 -81 -26 -93 -57 -6 -15 -32 -226 -57 -468
-25 -242 -51 -453 -57 -468 -6 -15 -19 -32 -28 -37 -10 -5 -71 -10 -136 -11
-116 -1 -119 -1 -140 25 -26 30 -22 0 -74 496 -22 212 -42 402 -44 423 -6 51
-39 86 -90 94 -22 3 -50 17 -63 29 l-23 23 0 319 c0 345 4 379 57 471 54 94
166 188 208 176 11 -3 47 -13 80 -21z"/>
<path d="M3225 2931 c-76 -33 -75 -152 2 -182 92 -35 172 87 103 156 -28 27
-75 39 -105 26z"/>
</g>
</svg>
