<?xml version="1.0" standalone="no"?>
<!DOCTYPE svg PUBLIC "-//W3C//DTD SVG 20010904//EN"
 "http://www.w3.org/TR/2001/REC-SVG-20010904/DTD/svg10.dtd">
<svg version="1.0" xmlns="http://www.w3.org/2000/svg"
 width="500.000000pt" height="500.000000pt" viewBox="0 0 500.000000 500.000000"
 preserveAspectRatio="xMidYMid meet">

<g transform="translate(0.000000,500.000000) scale(0.100000,-0.100000)"
fill="#000000" stroke="none">
<path d="M1908 4910 c-42 -13 -96 -48 -116 -78 -11 -15 -50 -92 -87 -172 -80
-172 -111 -220 -173 -265 -61 -45 -103 -58 -297 -95 -217 -41 -230 -46 -277
-88 -79 -71 -91 -136 -68 -352 16 -159 13 -261 -12 -327 -23 -62 -83 -128
-241 -267 -114 -100 -144 -174 -113 -281 18 -59 37 -80 215 -236 61 -54 94
-92 120 -139 l36 -65 -4 -170 c-9 -384 -9 -387 22 -433 48 -74 82 -88 307
-132 132 -26 222 -48 256 -65 87 -43 137 -107 224 -289 43 -89 90 -176 104
-193 40 -47 101 -73 174 -73 57 0 73 6 229 84 181 91 223 106 294 106 69 0
132 -23 302 -110 145 -74 161 -80 217 -80 131 0 169 36 275 256 93 193 141
256 229 299 34 16 124 39 255 65 214 41 252 56 295 113 46 63 50 87 40 240 -5
78 -9 196 -9 262 0 119 0 121 36 185 26 47 59 85 120 139 178 156 197 177 215
236 31 107 1 181 -113 281 -159 140 -218 205 -242 269 -25 64 -25 87 -5 431 5
78 3 122 -6 149 -15 45 -79 118 -118 134 -15 6 -116 29 -225 50 -221 44 -270
63 -338 132 -46 45 -56 63 -185 336 -49 103 -120 151 -224 153 -37 0 -78 -16
-234 -92 l-190 -93 -96 0 -96 0 -190 93 c-197 96 -230 105 -306 82z m874 -500
c267 -56 491 -177 689 -370 205 -201 339 -453 395 -745 24 -123 24 -368 0
-490 -54 -277 -175 -509 -369 -711 -267 -278 -610 -424 -997 -424 -370 0 -696
131 -958 384 -462 446 -561 1113 -250 1679 112 204 313 406 523 527 139 79
340 147 500 169 108 15 354 5 467 -19z"/>
<path d="M2294 4285 c-280 -51 -505 -172 -700 -376 -100 -106 -152 -181 -220
-323 -138 -288 -161 -616 -62 -916 122 -372 423 -677 790 -801 242 -81 555
-81 798 1 565 190 925 777 835 1360 -22 142 -50 232 -114 365 -177 367 -513
619 -918 690 -103 18 -310 18 -409 0z m251 -260 c24 -23 25 -30 25 -150 0
-112 -2 -127 -20 -145 -11 -11 -33 -20 -50 -20 -17 0 -39 9 -50 20 -18 18 -20
33 -20 145 0 120 1 127 25 150 31 32 59 32 90 0z m-416 -95 c25 -13 134 -206
134 -237 0 -54 -80 -86 -115 -45 -33 37 -118 199 -118 225 0 51 54 82 99 57z
m821 -10 c11 -11 20 -32 20 -47 0 -26 -85 -188 -118 -225 -35 -41 -114 -9
-114 46 0 26 93 197 124 228 24 24 63 23 88 -2z m38 -439 c28 -7 330 -355 339
-390 3 -13 1 -33 -6 -43 -35 -57 -778 -942 -798 -951 -16 -7 -30 -7 -46 0 -13
6 -174 193 -357 414 -184 222 -361 435 -392 473 -32 38 -58 79 -58 91 0 27 14
45 183 243 82 94 148 163 160 165 36 7 950 6 975 -2z"/>
<path d="M1980 3253 l-84 -98 119 -3 119 -3 93 93 c51 51 93 96 93 100 0 5
-58 8 -128 8 l-129 0 -83 -97z"/>
<path d="M2680 3342 c0 -4 42 -49 93 -100 l93 -93 119 3 119 3 -84 98 -83 97
-129 0 c-70 0 -128 -3 -128 -8z"/>
<path d="M2417 3237 c-42 -40 -77 -75 -77 -79 0 -11 320 -10 320 1 0 10 -151
151 -160 151 -3 -1 -40 -33 -83 -73z"/>
<path d="M1901 2993 c56 -73 374 -452 376 -449 2 2 -35 107 -83 235 l-86 231
-110 0 c-104 0 -110 -1 -97 -17z"/>
<path d="M2262 2998 c62 -172 234 -628 238 -628 4 0 201 522 238 628 3 9 -49
12 -238 12 -189 0 -241 -3 -238 -12z"/>
<path d="M2882 2983 c-42 -106 -162 -437 -159 -439 2 -3 320 377 376 449 13
16 7 17 -97 17 l-110 0 -10 -27z"/>
<path d="M1223 1413 c-368 -638 -450 -783 -444 -786 3 -2 149 17 323 41 294
42 318 44 341 29 18 -12 52 -87 142 -311 66 -163 122 -296 125 -296 5 0 84
136 507 869 68 117 122 215 120 218 -2 2 -62 -25 -133 -59 l-128 -63 -100 0
c-91 0 -107 3 -160 29 -101 49 -136 94 -239 304 -80 163 -97 190 -132 214 -84
57 -74 66 -222 -189z"/>
<path d="M3564 1608 c-46 -31 -55 -44 -142 -222 -104 -209 -139 -253 -240
-303 -51 -25 -68 -28 -158 -28 l-100 0 -129 63 c-70 34 -129 61 -131 59 -6 -6
617 -1087 626 -1087 4 0 59 132 124 293 65 160 126 301 137 312 19 19 20 19
226 -9 115 -16 261 -36 326 -46 71 -10 117 -13 117 -7 0 8 -194 349 -501 879
-47 81 -80 128 -90 128 -9 0 -39 -15 -65 -32z"/>
</g>
</svg>
