<?xml version="1.0" standalone="no"?>
<!DOCTYPE svg PUBLIC "-//W3C//DTD SVG 20010904//EN"
 "http://www.w3.org/TR/2001/REC-SVG-20010904/DTD/svg10.dtd">
<svg version="1.0" xmlns="http://www.w3.org/2000/svg"
 width="500.000000pt" height="500.000000pt" viewBox="0 0 500.000000 500.000000"
 preserveAspectRatio="xMidYMid meet">

<g transform="translate(0.000000,500.000000) scale(0.100000,-0.100000)"
fill="#000000" stroke="none">
<path d="M2320 4524 c-365 -45 -662 -147 -925 -321 -490 -324 -800 -801 -902
-1388 -24 -140 -24 -490 0 -630 38 -213 92 -384 182 -570 248 -513 684 -886
1234 -1056 779 -241 1643 22 2162 657 339 415 505 969 448 1492 -100 920 -782
1641 -1699 1797 -91 16 -424 28 -500 19z m348 -314 c287 -30 545 -124 792
-287 159 -105 356 -302 463 -463 342 -515 390 -1149 128 -1695 -99 -206 -198
-342 -373 -511 -559 -537 -1414 -625 -2083 -214 -217 133 -442 361 -568 577
-364 621 -321 1362 113 1933 82 107 280 295 391 369 341 228 747 332 1137 291z"/>
<path d="M3535 3426 c-16 -7 -360 -345 -764 -750 l-734 -738 -266 266 c-146
145 -279 269 -294 275 -74 28 -158 2 -197 -61 -24 -39 -26 -107 -6 -146 8 -15
164 -176 348 -359 283 -281 339 -333 376 -344 93 -27 47 -68 922 813 437 440
803 814 813 831 51 92 -17 213 -124 223 -25 3 -57 -2 -74 -10z"/>
</g>
</svg>
