<?xml version="1.0" standalone="no"?>
<!DOCTYPE svg PUBLIC "-//W3C//DTD SVG 20010904//EN"
 "http://www.w3.org/TR/2001/REC-SVG-20010904/DTD/svg10.dtd">
<svg version="1.0" xmlns="http://www.w3.org/2000/svg"
 width="500.000000pt" height="500.000000pt" viewBox="0 0 500.000000 500.000000"
 preserveAspectRatio="xMidYMid meet">

<g transform="translate(0.000000,500.000000) scale(0.100000,-0.100000)"
fill="#000000" stroke="none">
<path d="M2340 4681 c-396 -43 -747 -324 -876 -703 -47 -140 -54 -207 -54
-543 l0 -312 -65 -5 c-181 -15 -356 -175 -395 -362 -7 -37 -10 -305 -8 -882
l4 -829 22 -75 c100 -328 341 -557 672 -637 69 -17 135 -18 850 -18 619 0 789
3 845 14 335 66 595 305 697 641 l22 75 4 829 c2 577 -1 845 -8 882 -38 183
-209 342 -390 362 l-65 7 -6 345 c-4 211 -11 363 -18 390 -59 226 -142 375
-296 525 -148 145 -322 239 -517 279 -93 19 -313 28 -418 17z m380 -328 c218
-52 408 -211 499 -418 53 -119 61 -187 61 -512 l0 -303 -781 0 -780 0 3 333 3
332 31 88 c38 106 82 180 153 258 89 100 227 185 351 219 114 31 336 33 460 3z
m962 -1568 c15 -11 37 -39 48 -61 20 -41 21 -53 18 -840 l-3 -799 -26 -66
c-39 -101 -76 -158 -150 -231 -47 -46 -89 -77 -141 -101 -134 -64 -110 -62
-928 -62 -819 0 -794 -2 -929 62 -149 70 -281 244 -310 407 -7 39 -11 327 -11
830 l0 771 24 39 c49 82 -52 76 1236 73 1127 -2 1145 -2 1172 -22z"/>
<path d="M2362 2309 c-200 -99 -232 -365 -62 -511 l50 -43 0 -278 c0 -308 1
-312 64 -355 24 -16 47 -22 90 -22 56 0 61 2 102 44 l44 43 0 284 0 284 50 43
c68 58 102 127 108 217 8 129 -54 237 -170 294 -52 27 -72 31 -138 31 -66 0
-86 -4 -138 -31z"/>
</g>
</svg>
