<?xml version="1.0" standalone="no"?>
<!DOCTYPE svg PUBLIC "-//W3C//DTD SVG 20010904//EN"
 "http://www.w3.org/TR/2001/REC-SVG-20010904/DTD/svg10.dtd">
<svg version="1.0" xmlns="http://www.w3.org/2000/svg"
 width="500.000000pt" height="500.000000pt" viewBox="0 0 500.000000 500.000000"
 preserveAspectRatio="xMidYMid meet">

<g transform="translate(0.000000,500.000000) scale(0.100000,-0.100000)"
fill="#000000" stroke="none">
<path d="M1112 4859 c-115 -57 -172 -156 -172 -299 l0 -80 -177 0 c-114 0
-202 -5 -244 -14 -185 -40 -339 -183 -393 -365 -14 -49 -16 -215 -16 -1601 0
-1689 -3 -1585 56 -1702 38 -75 134 -170 214 -212 129 -68 82 -66 1345 -66
l1141 0 69 -71 c223 -225 496 -339 815 -339 328 0 600 116 829 355 208 216
311 477 311 785 0 320 -113 591 -339 815 l-71 69 0 937 c0 903 -1 939 -20
1014 -45 176 -170 311 -340 367 -54 18 -99 22 -270 27 l-205 6 -5 95 c-6 116
-30 170 -101 234 -66 60 -129 80 -228 74 -174 -11 -280 -128 -289 -320 l-4
-88 -729 0 -729 0 0 80 c0 143 -57 242 -172 299 -52 27 -72 31 -138 31 -66 0
-86 -4 -138 -31z m176 -180 c64 -22 67 -37 67 -304 0 -217 -2 -243 -19 -267
-27 -40 -83 -55 -128 -34 -60 29 -63 43 -63 301 0 250 3 267 53 298 32 20 48
21 90 6z m2092 -4 c56 -29 60 -51 60 -300 0 -250 -4 -271 -61 -301 -43 -22
-91 -11 -123 27 l-26 31 0 242 c0 233 1 244 21 270 36 46 80 56 129 31z
m-2440 -485 c0 -143 57 -242 172 -299 52 -27 72 -31 138 -31 186 0 310 132
310 330 l0 80 729 0 729 0 4 -87 c9 -193 115 -310 289 -321 99 -6 162 14 228
74 71 64 95 118 101 234 l5 95 200 0 c191 0 202 -1 245 -24 61 -32 116 -86
148 -146 27 -49 27 -53 27 -250 l0 -200 -1975 0 -1975 0 0 195 c0 177 2 199
21 241 38 82 107 144 193 175 24 9 97 13 224 14 l187 0 0 -80z m3330 -1330 c0
-325 -4 -580 -9 -580 -5 0 -34 11 -66 25 -31 14 -100 38 -153 52 -90 25 -111
27 -292 27 -179 0 -203 -2 -292 -26 -392 -107 -712 -426 -814 -813 -22 -82
-27 -129 -31 -260 -6 -187 14 -309 73 -456 19 -48 34 -89 34 -93 0 -3 -484 -6
-1075 -6 -1056 0 -1075 0 -1129 20 -72 27 -139 88 -173 158 l-28 57 -3 1238
-2 1237 1980 0 1980 0 0 -580z m-393 -681 c108 -14 258 -67 355 -125 105 -62
248 -203 310 -304 101 -163 142 -306 142 -500 0 -267 -88 -476 -279 -665 -371
-367 -953 -363 -1320 9 -124 125 -208 276 -252 452 -23 94 -23 314 0 408 119
481 564 790 1044 725z"/>
<path d="M886 3216 c-52 -19 -86 -45 -114 -86 -35 -53 -44 -104 -40 -240 3
-120 4 -129 33 -175 20 -33 47 -57 82 -77 51 -29 55 -30 195 -29 160 1 204 14
254 74 47 56 54 86 54 232 0 148 -9 187 -58 238 -56 59 -95 71 -237 74 -95 2
-141 -1 -169 -11z m262 -289 c2 -58 -1 -94 -9 -103 -9 -11 -33 -14 -103 -12
l-91 3 -3 89 c-2 49 0 96 2 103 4 11 28 13 103 11 l98 -3 3 -88z"/>
<path d="M1711 3213 c-52 -19 -115 -80 -133 -131 -8 -24 -13 -86 -13 -172 0
-148 11 -184 72 -242 51 -49 93 -59 238 -59 145 0 187 10 238 59 62 58 72 93
72 247 0 127 -2 145 -24 188 -26 54 -68 90 -130 112 -59 20 -259 19 -320 -2z
m264 -298 l0 -100 -100 0 -100 0 -3 89 c-2 49 0 96 2 103 4 11 28 13 103 11
l98 -3 0 -100z"/>
<path d="M2570 3221 c-74 -24 -128 -71 -154 -133 -21 -49 -22 -293 -3 -341 21
-49 63 -93 110 -116 37 -18 63 -21 185 -22 140 -1 144 0 195 29 35 20 62 45
82 77 28 46 30 55 33 169 5 145 -8 209 -49 259 -55 67 -96 81 -244 84 -71 1
-141 -1 -155 -6z m238 -303 l-3 -103 -88 -3 c-57 -2 -94 1 -103 9 -10 8 -14
35 -14 89 0 114 -5 110 111 110 l100 0 -3 -102z"/>
<path d="M3388 3216 c-127 -47 -162 -121 -157 -329 4 -117 6 -126 34 -172 20
-33 47 -57 82 -77 51 -29 55 -30 195 -29 160 1 204 14 254 74 47 56 54 86 54
232 0 148 -9 187 -58 238 -56 59 -95 71 -237 74 -92 2 -141 -1 -167 -11z m260
-289 c2 -58 -1 -94 -9 -103 -9 -11 -33 -14 -103 -12 l-91 3 -3 89 c-2 49 0 96
2 103 4 11 28 13 103 11 l98 -3 3 -88z"/>
<path d="M843 2360 c-36 -20 -61 -45 -80 -77 -27 -47 -28 -52 -28 -198 0 -127
3 -155 19 -185 26 -49 55 -79 101 -103 36 -20 56 -22 185 -22 163 0 198 10
258 79 46 53 54 93 50 252 -3 134 -4 142 -31 182 -15 23 -46 54 -69 69 -40 27
-46 28 -197 31 l-156 3 -52 -31z m296 -184 c8 -9 11 -46 9 -103 l-3 -88 -100
0 -100 0 -3 89 c-2 49 -1 95 2 103 8 19 179 18 195 -1z"/>
<path d="M1700 2374 c-45 -20 -86 -59 -113 -109 -19 -35 -22 -56 -22 -175 0
-157 9 -192 67 -249 54 -54 112 -71 248 -71 130 0 184 16 240 72 58 58 74 120
68 267 -4 92 -9 124 -25 156 -27 51 -68 90 -115 109 -52 22 -298 22 -348 0z
m275 -289 l0 -100 -100 0 -100 0 -3 89 c-2 49 0 96 2 103 4 11 28 13 103 11
l98 -3 0 -100z"/>
<path d="M865 1541 c-51 -23 -111 -89 -124 -138 -14 -50 -14 -257 0 -308 15
-53 91 -129 144 -144 22 -6 97 -11 166 -11 119 0 130 2 180 28 42 21 61 40 87
82 l32 54 0 146 0 146 -32 54 c-26 42 -45 61 -87 82 -51 27 -60 28 -190 28
-110 0 -144 -4 -176 -19z m266 -191 c17 -9 19 -22 19 -100 0 -107 -3 -110
-109 -110 -104 0 -101 -4 -101 110 0 69 4 100 13 103 23 10 158 7 178 -3z"/>
<path d="M1712 1547 c-48 -18 -99 -63 -124 -110 -21 -38 -23 -56 -23 -187 0
-164 12 -201 80 -258 52 -42 97 -52 236 -52 103 0 132 4 169 21 98 44 131 102
138 240 9 196 -22 278 -127 332 -52 25 -62 27 -185 26 -74 0 -145 -6 -164 -12z
m252 -193 c13 -5 16 -23 16 -98 0 -58 -4 -96 -12 -104 -16 -16 -170 -16 -186
0 -7 7 -12 44 -12 98 0 54 5 91 12 98 13 13 153 17 182 6z"/>
<path d="M3705 1968 c-55 -30 -55 -24 -55 -406 l0 -354 29 -29 29 -29 352 0
c390 0 388 0 410 66 9 25 9 43 0 68 -21 64 -28 65 -337 68 l-278 3 -2 275 c-3
301 -5 314 -60 337 -39 16 -61 16 -88 1z"/>
</g>
</svg>
