<?xml version="1.0" standalone="no"?>
<!DOCTYPE svg PUBLIC "-//W3C//DTD SVG 20010904//EN"
 "http://www.w3.org/TR/2001/REC-SVG-20010904/DTD/svg10.dtd">
<svg version="1.0" xmlns="http://www.w3.org/2000/svg"
 width="500.000000pt" height="500.000000pt" viewBox="0 0 500.000000 500.000000"
 preserveAspectRatio="xMidYMid meet">

<g transform="translate(0.000000,500.000000) scale(0.100000,-0.100000)"
fill="#000000" stroke="none">
<path d="M1122 4595 c-283 -52 -524 -182 -721 -391 -389 -411 -504 -1055 -287
-1620 148 -388 421 -753 845 -1134 359 -321 706 -575 1269 -929 201 -126 211
-131 272 -131 61 0 70 5 275 133 816 513 1321 922 1706 1382 370 442 549 932
509 1390 -13 148 -32 242 -76 374 -158 477 -516 809 -989 917 -109 25 -379 30
-490 9 -240 -44 -440 -140 -627 -299 -87 -74 -184 -183 -254 -284 -27 -39 -51
-71 -54 -71 -3 0 -32 39 -65 86 -83 120 -249 285 -363 361 -164 109 -316 172
-501 206 -102 20 -344 20 -449 1z m345 -376 c320 -43 570 -236 766 -590 20
-37 51 -102 68 -145 51 -129 101 -173 197 -174 62 0 117 25 148 67 12 16 36
64 53 107 122 306 357 569 596 671 234 99 509 96 737 -8 288 -131 482 -393
560 -752 19 -92 17 -362 -5 -462 -115 -534 -538 -1045 -1362 -1645 -245 -178
-699 -478 -725 -478 -22 0 -434 269 -650 424 -352 252 -536 403 -773 635 -377
368 -586 704 -664 1064 -22 100 -24 370 -5 462 50 229 148 421 289 562 205
206 484 301 770 262z"/>
</g>
</svg>
