<?xml version="1.0" standalone="no"?>
<!DOCTYPE svg PUBLIC "-//W3C//DTD SVG 20010904//EN"
 "http://www.w3.org/TR/2001/REC-SVG-20010904/DTD/svg10.dtd">
<svg version="1.0" xmlns="http://www.w3.org/2000/svg"
 width="500.000000pt" height="500.000000pt" viewBox="0 0 500.000000 500.000000"
 preserveAspectRatio="xMidYMid meet">
<metadata>
Created by potrace 1.16, written by Peter Selinger 2001-2019
</metadata>
<g transform="translate(0.000000,500.000000) scale(0.100000,-0.100000)"
fill="#000000" stroke="none">
<path d="M2329 4985 c-128 -35 -311 -150 -382 -240 l-28 -35 -475 0 c-451 0
-478 -1 -535 -20 -33 -12 -79 -33 -102 -47 -64 -40 -143 -126 -162 -176 -20
-54 -30 -57 -184 -57 -157 0 -245 -33 -336 -124 -56 -56 -86 -107 -109 -187
-14 -47 -16 -262 -16 -2023 0 -1890 1 -1973 18 -2005 51 -95 207 -94 260 2 16
30 17 160 22 1992 5 1904 6 1961 24 1988 32 47 70 60 191 65 l110 4 19 -49
c27 -67 124 -162 206 -201 78 -36 156 -52 262 -52 l78 0 0 -765 0 -764 -53
-39 c-135 -100 -276 -292 -337 -460 -114 -312 -62 -671 141 -969 60 -88 497
-533 589 -600 210 -152 422 -223 664 -223 294 0 530 99 723 304 42 45 90 99
106 121 24 33 98 167 102 185 1 3 13 42 28 88 15 45 29 102 33 125 15 109 38
207 61 254 36 77 110 152 209 213 189 116 322 284 389 490 22 69 28 110 33
216 5 146 -5 226 -45 347 l-26 79 324 324 324 324 254 153 c207 125 258 159
273 187 16 31 18 61 18 291 l0 257 -47 53 c-85 98 -208 220 -235 235 -40 21
-516 21 -557 0 -39 -21 -104 -115 -201 -291 -12 -22 -55 -97 -96 -166 -74
-123 -79 -129 -379 -429 l-304 -304 -103 35 c-100 33 -108 34 -278 36 -160 1
-182 -1 -260 -23 -144 -42 -299 -138 -389 -240 -22 -26 -71 -91 -108 -146
-127 -189 -184 -226 -403 -264 -79 -13 -145 -22 -147 -20 -3 3 -6 1188 -3
1381 0 6 75 9 212 7 l212 -3 60 -60 c158 -158 316 -222 551 -222 201 -1 350
61 505 209 171 164 252 432 201 664 -62 280 -239 474 -515 564 -69 23 -94 26
-210 25 -72 -1 -152 -7 -177 -14z m31 -721 l0 -405 -52 28 c-75 40 -151 120
-189 200 -28 58 -34 82 -37 158 -6 138 35 242 135 337 30 29 124 88 139 88 2
0 4 -183 4 -406z m393 357 c81 -56 133 -124 167 -218 19 -52 22 -77 18 -156
-3 -82 -8 -103 -37 -161 -39 -79 -115 -159 -189 -199 l-52 -28 0 405 0 406 26
-10 c14 -6 44 -23 67 -39z m-970 -357 l2 -142 -386 2 -386 1 -39 27 c-51 36
-66 61 -66 114 0 57 28 103 77 125 37 17 69 19 418 16 l377 -2 3 -141z m2864
-366 l63 -62 0 -121 c0 -66 -4 -125 -8 -131 -4 -6 -83 -58 -175 -114 l-169
-103 -119 119 c-65 65 -119 123 -118 129 0 5 17 38 37 72 20 34 65 109 100
167 l63 106 132 0 131 0 63 -62z m-707 -537 c0 -4 41 -48 90 -97 l90 -89 -667
-667 c-367 -368 -670 -668 -673 -668 -3 1 -21 23 -40 51 -19 27 -61 70 -94 96
l-58 46 668 668 c368 368 672 669 676 669 5 0 8 -4 8 -9z m-1012 -545 c9 -10
-679 -696 -703 -701 -249 -48 -379 -135 -472 -317 -149 -291 -27 -665 259
-797 108 -50 157 -61 270 -61 161 0 292 54 404 165 97 97 152 202 170 325 6
43 20 59 352 392 190 191 348 346 350 344 2 -2 8 -34 13 -72 12 -84 -9 -208
-50 -298 -37 -82 -125 -175 -236 -249 -126 -84 -156 -110 -213 -180 -96 -119
-148 -245 -172 -417 -26 -190 -88 -317 -215 -445 -136 -137 -304 -205 -504
-205 -117 0 -216 27 -344 91 -100 52 -107 58 -356 303 -265 263 -309 316 -373
452 -49 105 -67 200 -63 324 5 157 28 229 113 358 72 108 161 189 270 245 101
52 162 70 287 87 180 25 324 93 444 211 50 50 131 151 131 164 0 15 83 116
131 159 109 98 228 138 392 132 59 -2 111 -7 115 -10z m-511 -1042 c40 -23 98
-86 121 -129 19 -37 30 -125 21 -168 -21 -97 -81 -172 -172 -212 -52 -24 -69
-27 -127 -23 -144 11 -255 117 -267 257 -21 228 228 389 424 275z"/>
</g>
</svg>
