<?xml version="1.0" standalone="no"?>
<!DOCTYPE svg PUBLIC "-//W3C//DTD SVG 20010904//EN"
 "http://www.w3.org/TR/2001/REC-SVG-20010904/DTD/svg10.dtd">
<svg version="1.0" xmlns="http://www.w3.org/2000/svg"
 width="500.000000pt" height="500.000000pt" viewBox="0 0 500.000000 500.000000"
 preserveAspectRatio="xMidYMid meet">

<g transform="translate(0.000000,500.000000) scale(0.100000,-0.100000)"
fill="#000000" stroke="none">
<path d="M1223 4565 c-115 -31 -220 -104 -286 -197 -59 -85 -86 -153 -98 -251
-6 -52 -9 -513 -7 -1257 3 -1110 4 -1178 22 -1230 30 -89 65 -150 120 -208 64
-68 112 -101 201 -138 l70 -29 1630 -3 c1152 -2 1649 0 1695 8 94 16 200 70
269 138 64 63 99 119 133 208 l23 59 3 1222 c2 1061 0 1231 -13 1288 -43 188
-191 341 -376 390 -80 22 -3307 21 -3386 0z m3296 -408 c13 -6 32 -23 43 -37
17 -24 18 -58 16 -776 l-3 -751 -340 396 c-343 399 -391 447 -473 471 -119 35
-245 14 -334 -57 -26 -21 -219 -245 -429 -498 -209 -253 -387 -466 -394 -474
-11 -11 -37 10 -162 134 -86 85 -167 156 -194 170 -98 50 -226 52 -328 4 -33
-16 -132 -108 -358 -333 l-313 -310 0 994 c0 775 3 1001 13 1020 7 14 28 33
47 42 33 17 130 18 1610 18 1230 0 1580 -3 1599 -13z"/>
<path d="M1790 3949 c-70 -14 -151 -58 -208 -116 -205 -205 -142 -546 125
-671 52 -24 69 -27 168 -27 98 0 116 3 167 27 167 78 259 234 245 415 -19 246
-251 420 -497 372z"/>
<path d="M446 2885 c-38 -126 -151 -506 -253 -843 -101 -338 -186 -639 -189
-670 -18 -173 88 -367 246 -451 61 -33 176 -65 1195 -336 499 -133 1597 -427
1985 -531 260 -70 383 -63 525 32 64 42 112 97 147 169 26 52 205 611 210 655
l3 25 -1580 5 -1580 5 -70 24 c-286 96 -447 264 -543 566 -13 43 -16 155 -21
815 l-6 765 -69 -230z"/>
</g>
</svg>
