<?xml version="1.0" standalone="no"?>
<!DOCTYPE svg PUBLIC "-//W3C//DTD SVG 20010904//EN"
 "http://www.w3.org/TR/2001/REC-SVG-20010904/DTD/svg10.dtd">
<svg version="1.0" xmlns="http://www.w3.org/2000/svg"
 width="500.000000pt" height="500.000000pt" viewBox="0 0 500.000000 500.000000"
 preserveAspectRatio="xMidYMid meet">

<g transform="translate(0.000000,500.000000) scale(0.100000,-0.100000)"
fill="#000000" stroke="none">
<path d="M951 4982 c-57 -28 -75 -63 -79 -148 l-4 -74 -52 0 c-107 -1 -176
-60 -176 -151 0 -91 67 -149 173 -149 l57 0 0 -57 c0 -108 52 -168 145 -168
92 0 145 60 145 166 l0 57 70 4 c105 6 164 58 164 146 0 90 -62 143 -169 148
l-60 3 -5 75 c-4 54 -12 84 -26 103 -25 35 -79 63 -119 63 -16 0 -45 -8 -64
-18z"/>
<path d="M485 3960 c-45 -18 -85 -83 -85 -137 0 -92 -85 -199 -179 -227 -30
-9 -69 -16 -86 -16 -42 0 -96 -37 -118 -80 -16 -32 -17 -65 -15 -347 3 -297 4
-313 24 -339 34 -46 66 -63 135 -73 111 -15 178 -62 218 -151 26 -57 26 -123
0 -180 -40 -89 -107 -136 -218 -151 -72 -10 -104 -28 -138 -79 -23 -32 -23
-38 -23 -339 0 -271 2 -310 18 -341 23 -47 70 -76 136 -84 83 -9 131 -33 179
-86 43 -48 67 -103 67 -154 0 -38 23 -87 55 -116 l27 -25 2006 -3 c1976 -2
2008 -2 2039 18 44 27 63 59 73 127 11 79 23 105 67 154 45 50 99 76 177 85
68 8 114 36 138 84 16 31 18 69 18 333 0 326 -2 342 -58 389 -21 18 -48 28
-89 33 -114 13 -187 62 -229 150 -31 64 -31 125 0 191 42 90 110 133 238 149
56 7 104 43 124 92 11 25 14 101 14 330 0 264 -2 302 -18 333 -23 47 -70 76
-136 84 -83 9 -131 33 -179 86 -43 48 -67 103 -67 154 0 38 -23 87 -55 116
l-27 25 -2006 2 c-1104 1 -2016 -2 -2027 -7z m2084 -631 c25 -14 93 -96 230
-280 l194 -260 26 24 c94 88 420 361 439 368 40 15 103 10 137 -11 68 -42 66
-15 63 -759 -3 -659 -3 -670 -24 -698 -11 -15 -36 -36 -55 -45 -32 -17 -104
-18 -1079 -18 -1166 0 -1088 -5 -1138 69 l-22 35 2 675 c3 658 4 677 23 703
37 50 117 72 177 49 13 -5 123 -95 245 -199 l221 -191 197 262 c129 173 207
268 228 279 43 23 92 22 136 -3z"/>
<path d="M2320 2720 c-94 -127 -181 -239 -193 -250 -12 -11 -38 -26 -59 -32
-65 -19 -99 -1 -270 147 -87 74 -160 135 -163 135 -3 0 -5 -175 -5 -390 l0
-390 870 0 870 0 0 390 c0 215 -2 390 -5 390 -3 0 -76 -61 -163 -135 -171
-148 -205 -166 -270 -147 -21 6 -47 20 -59 31 -12 11 -99 124 -193 251 -95
126 -176 230 -180 230 -5 0 -85 -104 -180 -230z"/>
<path d="M3995 752 c-58 -37 -69 -58 -73 -137 l-4 -72 -70 -5 c-106 -8 -163
-60 -163 -148 0 -88 57 -140 164 -148 l71 -5 0 -67 c0 -79 24 -124 80 -152
107 -54 209 24 210 160 l0 62 53 0 c134 0 215 111 159 220 -23 47 -70 71 -147
78 l-65 5 0 54 c0 100 -51 163 -139 170 -33 3 -54 -1 -76 -15z"/>
</g>
</svg>
