<?xml version="1.0" standalone="no"?>
<!DOCTYPE svg PUBLIC "-//W3C//DTD SVG 20010904//EN"
 "http://www.w3.org/TR/2001/REC-SVG-20010904/DTD/svg10.dtd">
<svg version="1.0" xmlns="http://www.w3.org/2000/svg"
 width="500.000000pt" height="500.000000pt" viewBox="0 0 500.000000 500.000000"
 preserveAspectRatio="xMidYMid meet">

<g transform="translate(0.000000,500.000000) scale(0.100000,-0.100000)"
fill="#000000" stroke="none">
<path d="M3735 4621 c-252 -42 -475 -204 -585 -426 -57 -115 -82 -218 -83
-345 -1 -58 2 -117 6 -132 l7 -28 -561 -280 -561 -281 -51 48 c-352 332 -923
316 -1273 -34 -117 -117 -205 -273 -250 -439 -14 -54 -18 -103 -18 -224 1
-139 3 -164 27 -243 54 -176 136 -307 271 -434 147 -137 327 -220 529 -242
247 -28 515 56 697 217 33 29 66 52 73 50 12 -3 337 -191 790 -457 l249 -146
4 -79 c8 -154 64 -308 158 -440 154 -216 441 -351 706 -332 352 25 644 262
742 603 19 64 23 103 23 213 0 163 -14 223 -87 370 -46 94 -62 116 -152 206
-90 89 -113 106 -207 153 -117 58 -247 91 -359 91 -269 0 -533 -140 -680 -360
-24 -36 -44 -67 -46 -69 -2 -2 -34 14 -71 36 -37 22 -187 108 -333 193 -146
84 -329 190 -407 236 l-141 84 23 69 c52 152 58 369 15 521 -12 41 -24 84 -26
95 -5 18 59 52 526 286 l531 266 41 -48 c157 -186 438 -294 682 -261 499 66
812 556 655 1026 -83 251 -285 444 -541 516 -82 23 -245 34 -323 21z m191
-352 c89 -16 162 -55 230 -123 179 -179 176 -446 -5 -620 -216 -205 -557 -145
-688 122 -37 75 -38 78 -38 192 0 114 1 117 38 192 44 91 112 157 203 200 97
45 163 55 260 37z m-2496 -1221 c253 -61 440 -302 440 -566 0 -252 -188 -492
-436 -557 -75 -19 -210 -19 -287 1 -375 97 -554 543 -347 863 141 218 386 318
630 259z m2471 -1398 c194 -37 347 -193 381 -388 51 -299 -227 -580 -527 -532
-233 37 -395 227 -395 464 0 135 45 241 142 333 65 61 138 100 222 118 76 17
109 18 177 5z"/>
</g>
</svg>
