<?xml version="1.0" standalone="no"?>
<!DOCTYPE svg PUBLIC "-//W3C//DTD SVG 20010904//EN"
 "http://www.w3.org/TR/2001/REC-SVG-20010904/DTD/svg10.dtd">
<svg version="1.0" xmlns="http://www.w3.org/2000/svg"
 width="500.000000pt" height="500.000000pt" viewBox="0 0 500.000000 500.000000"
 preserveAspectRatio="xMidYMid meet">
<metadata>
Created by potrace 1.16, written by Peter Selinger 2001-2019
</metadata>
<g transform="translate(0.000000,500.000000) scale(0.100000,-0.100000)"
fill="#000000" stroke="none">
<path d="M4747 4546 c-53 -19 -71 -38 -210 -216 -66 -85 -124 -157 -129 -160
-4 -3 -24 -29 -45 -58 -21 -28 -67 -89 -103 -135 l-65 -84 -358 -153 c-389
-166 -385 -163 -371 -237 12 -66 67 -70 197 -12 50 23 216 94 367 159 l275
117 73 94 c40 52 100 131 134 177 34 45 65 82 69 82 3 0 25 -17 47 -37 l40
-38 -99 -160 c-54 -88 -116 -180 -137 -205 -30 -35 -92 -75 -266 -175 -125
-71 -246 -143 -268 -159 l-41 -28 6 -57 c3 -31 26 -150 50 -266 25 -115 57
-270 72 -344 15 -74 29 -140 32 -148 4 -11 -36 -13 -215 -13 l-220 0 -23 38
c-12 20 -99 160 -192 309 -158 255 -171 273 -202 279 -27 5 -87 -12 -277 -75
l-243 -81 -223 0 -222 0 0 39 0 40 213 3 212 3 100 44 c55 24 199 86 320 138
121 52 228 103 238 115 26 31 22 82 -9 107 -15 12 -36 21 -48 21 -11 0 -93
-31 -181 -69 -88 -38 -216 -93 -285 -122 -69 -29 -134 -58 -145 -66 -16 -10
-177 -13 -845 -13 -782 0 -827 -1 -865 -19 -127 -59 -163 -212 -72 -309 l21
-23 -28 -167 c-15 -92 -30 -176 -33 -188 -3 -17 -49 -35 -286 -111 -155 -50
-324 -103 -375 -119 -110 -33 -132 -50 -132 -103 0 -44 13 -57 86 -94 58 -29
88 -61 134 -141 58 -102 127 -140 275 -151 120 -9 129 -12 202 -67 100 -74
155 -98 233 -99 l65 0 193 -235 193 -235 -126 -150 c-100 -120 -125 -156 -125
-180 0 -17 18 -69 40 -116 22 -47 40 -88 40 -90 0 -2 -15 -3 -32 -1 -31 3 -37
10 -90 114 l-57 111 27 39 c15 21 37 50 50 64 12 14 22 28 22 32 0 3 6 13 13
20 36 39 97 140 97 161 0 42 -36 77 -78 77 -20 0 -43 -4 -50 -9 -13 -8 -63
-77 -182 -249 -45 -66 -50 -79 -50 -128 0 -48 9 -73 80 -214 44 -87 88 -164
99 -170 11 -5 81 -10 159 -10 126 0 142 2 166 21 39 31 34 70 -29 209 l-54
122 92 109 92 110 35 -43 c19 -23 64 -77 100 -119 36 -42 120 -144 188 -227
68 -84 133 -159 145 -167 18 -12 64 -15 263 -15 229 0 243 1 268 21 35 28 36
82 1 119 l-25 26 92 125 c316 428 518 714 518 734 0 70 -92 101 -142 47 -29
-32 -210 -275 -358 -482 -162 -227 -233 -320 -243 -320 -5 0 -28 14 -51 32
-22 17 -43 33 -45 35 -2 1 12 26 31 55 19 29 81 130 138 223 57 94 116 190
132 215 16 25 84 137 151 249 l122 203 380 304 380 304 247 0 246 0 7 -49 c11
-83 -4 -104 -274 -376 -236 -237 -249 -252 -247 -285 1 -23 64 -157 178 -383
l175 -347 -38 -10 c-22 -6 -57 -15 -80 -21 -23 -6 -42 -9 -43 -7 -1 2 -39 71
-83 153 -121 225 -134 249 -216 396 -116 209 -116 220 -15 359 125 173 218
314 218 331 0 59 -59 100 -108 76 -22 -10 -205 -252 -289 -381 -41 -64 -56
-119 -51 -199 4 -79 15 -106 153 -352 12 -22 40 -71 60 -110 21 -38 60 -109
86 -158 27 -48 49 -90 49 -95 0 -4 13 -27 30 -52 l29 -44 -109 -112 c-70 -70
-110 -119 -110 -132 0 -34 20 -69 47 -81 33 -15 583 -15 616 0 41 19 47 48 47
236 l0 175 -187 374 -187 374 231 233 c260 260 275 282 277 397 0 37 -12 121
-28 195 -15 72 -50 234 -77 360 -28 127 -59 273 -70 325 -11 52 -22 100 -24
106 -2 6 103 71 232 144 275 157 284 165 419 386 148 243 295 494 310 530 17
40 18 112 3 151 -12 34 -55 80 -89 98 -41 21 -111 26 -153 11z m92 -164 c10
-20 11 -18 -56 -140 l-30 -52 -29 21 c-16 13 -33 26 -37 30 -13 10 103 159
124 159 10 0 23 -8 28 -18z m-2799 -1382 l0 -40 -531 0 c-346 0 -537 4 -550
10 -21 12 -25 40 -7 58 9 9 145 12 550 12 l538 0 0 -40z m1114 -123 c21 -34
50 -80 64 -102 14 -22 35 -56 47 -75 42 -69 72 -116 118 -187 26 -40 47 -77
47 -81 0 -5 -48 -46 -107 -93 -59 -46 -224 -177 -367 -291 l-259 -207 -70
-113 c-206 -333 -280 -452 -304 -484 -13 -17 -23 -34 -23 -37 0 -6 -146 -249
-175 -290 -11 -15 -21 -5 -88 90 -41 60 -83 117 -91 128 -9 11 -29 38 -46 60
-16 22 -33 45 -38 50 -4 6 -72 97 -151 204 l-144 195 29 23 c16 13 55 41 86
62 54 37 62 39 160 46 170 12 220 41 305 172 83 130 76 147 -102 229 -357 166
-415 184 -455 144 -25 -25 -26 -81 -2 -103 9 -8 103 -54 207 -102 105 -47 193
-90 198 -94 4 -4 -8 -25 -26 -46 l-33 -38 -114 -9 c-133 -10 -176 -26 -287
-107 -85 -62 -103 -65 -222 -27 -104 33 -168 33 -272 0 -108 -34 -137 -33
-191 5 -24 17 -65 47 -91 66 -61 44 -97 54 -225 62 -81 5 -109 10 -128 26 -33
25 -136 179 -126 188 4 3 30 13 57 22 28 8 159 50 292 91 l241 76 245 0 c218
0 247 2 266 18 12 9 71 114 130 232 l108 215 544 5 544 5 190 67 c105 37 197
67 205 67 8 0 32 -27 54 -62z m-1791 -232 l-78 -154 -162 -1 c-124 0 -163 3
-163 13 0 17 40 258 46 280 5 15 24 17 220 17 l215 0 -78 -155z m-41 -1018
c84 -25 73 -15 187 -172 56 -78 368 -504 407 -556 135 -182 158 -208 214 -249
l62 -45 -77 -3 c-72 -3 -78 -1 -96 23 -12 14 -26 31 -32 38 -13 14 -97 116
-109 132 -4 6 -19 24 -34 40 -74 85 -586 699 -674 809 -14 18 -13 19 30 13 25
-3 80 -17 122 -30z m2618 -939 c0 -91 5 -88 -149 -88 l-136 0 43 43 c36 35 55
45 125 64 118 31 117 31 117 -19z"/>
<path d="M3015 4116 c-231 -107 -246 -436 -25 -560 51 -29 62 -31 151 -31 86
0 101 3 154 30 187 95 221 353 68 502 -85 82 -240 109 -348 59z m216 -159 c99
-66 88 -211 -21 -267 -52 -26 -84 -25 -136 5 -105 62 -112 195 -14 263 46 31
124 31 171 -1z"/>
<path d="M756 4040 c-88 -44 -128 -109 -129 -211 -1 -58 3 -73 29 -115 35 -57
107 -109 164 -119 28 -5 40 -12 40 -24 0 -9 9 -45 21 -78 25 -76 78 -138 150
-178 49 -27 63 -30 144 -30 83 0 95 2 153 34 76 41 118 92 143 172 23 73 24
140 3 194 -9 22 -16 46 -16 53 -2 28 -91 112 -146 139 -49 24 -69 28 -144 28
-82 0 -87 1 -93 22 -8 35 -66 94 -110 114 -55 25 -157 25 -209 -1z m159 -155
c35 -35 33 -76 -6 -109 -17 -14 -40 -26 -51 -26 -25 0 -78 52 -78 77 0 19 25
62 44 75 23 16 67 7 91 -17z m323 -149 c36 -19 78 -65 87 -96 30 -97 -43 -200
-142 -200 -53 0 -81 11 -116 45 -55 56 -60 146 -10 206 47 55 124 74 181 45z"/>
</g>
</svg>
