<?xml version="1.0" standalone="no"?>
<!DOCTYPE svg PUBLIC "-//W3C//DTD SVG 20010904//EN"
 "http://www.w3.org/TR/2001/REC-SVG-20010904/DTD/svg10.dtd">
<svg version="1.0" xmlns="http://www.w3.org/2000/svg"
 width="500.000000pt" height="500.000000pt" viewBox="0 0 500.000000 500.000000"
 preserveAspectRatio="xMidYMid meet">

<g transform="translate(0.000000,500.000000) scale(0.100000,-0.100000)"
fill="#000000" stroke="none">
<path d="M2360 4990 c-215 -21 -459 -106 -646 -225 -233 -149 -420 -367 -541
-631 -104 -226 -131 -409 -133 -911 l0 -103 -165 0 c-179 0 -207 -6 -231 -51
-21 -42 -21 -2691 1 -2762 48 -158 174 -272 331 -297 36 -6 622 -10 1529 -10
1601 0 1555 -1 1653 56 78 46 130 102 170 182 l37 76 3 1360 c2 1013 -1 1368
-9 1389 -21 50 -51 57 -234 57 l-165 0 0 203 c0 329 -21 503 -82 682 -168 494
-587 861 -1103 964 -118 23 -297 33 -415 21z m350 -641 c251 -62 474 -262 569
-508 47 -122 55 -191 56 -466 l0 -250 -835 0 -835 0 -3 190 c-6 393 36 556
193 751 206 255 532 363 855 283z m-90 -2075 c115 -33 227 -137 269 -250 59
-157 27 -316 -91 -440 l-49 -52 30 -269 c17 -148 31 -291 31 -317 0 -56 -20
-91 -62 -105 -39 -14 -457 -15 -491 -2 -74 28 -79 67 -48 327 11 87 25 206 31
262 l11 104 -51 54 c-214 226 -121 592 175 687 88 28 148 28 245 1z"/>
</g>
</svg>
