<?xml version="1.0" standalone="no"?>
<!DOCTYPE svg PUBLIC "-//W3C//DTD SVG 20010904//EN"
 "http://www.w3.org/TR/2001/REC-SVG-20010904/DTD/svg10.dtd">
<svg version="1.0" xmlns="http://www.w3.org/2000/svg"
 width="500.000000pt" height="500.000000pt" viewBox="0 0 500.000000 500.000000"
 preserveAspectRatio="xMidYMid meet">

<g transform="translate(0.000000,500.000000) scale(0.100000,-0.100000)"
fill="#000000" stroke="none">
<path d="M424 4355 c-150 -33 -285 -136 -358 -273 -69 -132 -66 -59 -66 -1572
0 -894 4 -1387 11 -1430 29 -187 168 -351 352 -419 l72 -26 2065 0 2065 0 72
26 c178 65 310 216 349 398 21 99 20 2784 -1 2884 -43 204 -208 369 -412 412
-97 21 -4054 21 -4149 0z m4151 -302 c71 -38 118 -103 131 -180 l6 -39 -984
-656 c-540 -360 -999 -663 -1018 -673 -116 -60 -304 -60 -419 0 -19 9 -477
312 -1018 673 -1091 728 -1004 659 -962 752 27 60 64 98 124 126 l50 24 2025
-3 2025 -2 40 -22z m-3373 -1175 c497 -330 924 -612 950 -625 225 -113 519
-106 726 16 26 15 446 294 934 619 489 326 890 592 893 592 3 0 4 -537 3
-1192 -3 -1142 -4 -1194 -22 -1228 -26 -49 -64 -88 -111 -113 l-40 -22 -2020
-3 c-1855 -2 -2024 -1 -2064 14 -55 21 -106 66 -134 118 l-22 41 -3 1193 c-1
655 0 1192 3 1192 3 0 411 -271 907 -602z"/>
</g>
</svg>
