<?xml version="1.0" standalone="no"?>
<!DOCTYPE svg PUBLIC "-//W3C//DTD SVG 20010904//EN"
 "http://www.w3.org/TR/2001/REC-SVG-20010904/DTD/svg10.dtd">
<svg version="1.0" xmlns="http://www.w3.org/2000/svg"
 width="500.000000pt" height="500.000000pt" viewBox="0 0 500.000000 500.000000"
 preserveAspectRatio="xMidYMid meet">

<g transform="translate(0.000000,500.000000) scale(0.100000,-0.100000)"
fill="#000000" stroke="none">
<path d="M225 4986 c-98 -31 -159 -88 -194 -180 l-21 -57 0 -2249 0 -2249 21
-57 c27 -73 85 -135 152 -165 l52 -24 1730 -3 c1914 -3 1787 -7 1877 63 31 23
56 55 77 96 l31 62 0 173 c0 95 4 175 8 178 5 3 123 -110 263 -250 140 -140
272 -265 294 -278 165 -96 382 -25 462 151 23 49 25 64 21 151 -4 78 -9 105
-28 137 -13 22 -205 223 -427 446 l-405 406 27 53 c95 188 138 369 138 580 -1
322 -92 564 -319 848 l-34 44 0 566 0 566 -487 488 c-268 268 -502 495 -519
503 -28 13 -194 15 -1356 14 -1037 0 -1332 -3 -1363 -13z m2577 -548 c3 -354
4 -364 26 -413 29 -63 73 -109 137 -143 l50 -27 373 -3 372 -3 0 -415 0 -415
-42 26 c-131 80 -302 146 -453 176 -105 21 -369 19 -475 -4 -392 -85 -711
-330 -888 -682 -143 -287 -171 -627 -76 -937 5 -17 -28 -18 -601 -18 -664 0
-650 1 -675 -59 -16 -39 -5 -86 27 -111 25 -20 40 -20 678 -20 l652 0 50 -82
c184 -300 483 -505 848 -584 122 -26 350 -24 484 5 107 23 236 68 330 116 l54
27 44 -44 44 -43 -3 -268 -3 -269 -28 -24 -28 -24 -1718 0 -1718 0 -26 25
c-15 16 -27 41 -30 68 -8 57 -8 4372 0 4419 3 21 17 49 31 63 l25 25 1268 0
1267 0 4 -362z m808 -390 c0 -5 -117 -8 -261 -8 -284 0 -314 5 -338 56 -7 17
-11 115 -11 297 l0 272 305 -305 c168 -168 305 -308 305 -312z m-384 -1018
c268 -42 550 -230 708 -470 110 -167 164 -339 173 -550 4 -114 2 -152 -16
-239 -76 -367 -313 -654 -653 -793 -233 -95 -507 -103 -748 -21 -463 156 -772
636 -720 1118 20 187 74 339 177 493 205 308 569 495 928 476 50 -3 118 -9
151 -14z m1186 -2237 c207 -208 381 -388 387 -400 6 -12 11 -43 11 -69 0 -41
-5 -51 -39 -85 -34 -34 -44 -39 -85 -39 -26 0 -57 5 -69 11 -22 11 -777 759
-777 770 0 9 174 186 185 187 6 1 179 -168 387 -375z"/>
<path d="M591 4276 c-56 -31 -66 -99 -22 -148 l29 -33 947 -3 c645 -2 959 1
986 8 73 20 97 106 45 159 l-26 26 -968 2 c-790 2 -971 0 -991 -11z"/>
<path d="M589 3595 c-14 -8 -32 -28 -39 -44 -40 -96 77 -175 151 -102 78 79
-14 199 -112 146z"/>
<path d="M1004 3598 c-62 -30 -61 -138 3 -167 17 -8 247 -11 779 -11 837 0
791 -4 814 65 14 42 -8 96 -46 114 -33 15 -1519 15 -1550 -1z"/>
<path d="M577 2910 c-51 -40 -43 -126 14 -155 42 -22 986 -22 1028 0 57 29 65
115 14 155 -25 19 -40 20 -528 20 -488 0 -503 -1 -528 -20z"/>
<path d="M604 2250 c-32 -13 -64 -59 -64 -91 0 -18 11 -41 29 -61 l29 -33 462
-3 c403 -2 465 -1 494 13 75 36 72 147 -5 174 -38 13 -912 14 -945 1z"/>
<path d="M577 880 c-49 -39 -41 -131 12 -160 27 -14 895 -14 922 0 24 13 49
61 49 95 0 16 -12 38 -29 56 l-29 29 -450 0 c-437 0 -450 -1 -475 -20z"/>
<path d="M1798 870 c-27 -28 -30 -36 -25 -73 11 -84 99 -116 158 -58 21 22 29
39 29 66 0 27 -8 44 -29 66 -41 41 -91 40 -133 -1z"/>
<path d="M2915 2823 c-295 -46 -551 -243 -664 -509 -54 -128 -65 -186 -65
-344 0 -129 3 -155 28 -235 46 -152 139 -302 243 -395 186 -166 430 -246 664
-220 206 23 361 95 508 234 171 163 263 376 264 611 2 390 -243 720 -618 830
-71 21 -116 28 -210 30 -66 2 -133 1 -150 -2z m313 -214 c167 -51 324 -184
401 -340 162 -329 32 -724 -291 -884 -201 -99 -402 -100 -597 -4 -105 52 -229
170 -284 269 -104 190 -111 425 -17 609 43 85 113 175 177 227 70 56 198 118
273 133 30 6 64 13 75 15 41 10 198 -5 263 -25z"/>
<path d="M2989 2395 c-31 -17 -54 -65 -45 -99 12 -48 38 -67 115 -82 44 -8 91
-24 113 -39 46 -31 96 -104 103 -154 17 -110 41 -141 105 -141 64 0 105 58 94
133 -17 115 -55 194 -129 269 -99 99 -278 156 -356 113z"/>
</g>
</svg>
