<?xml version="1.0" standalone="no"?>
<!DOCTYPE svg PUBLIC "-//W3C//DTD SVG 20010904//EN"
 "http://www.w3.org/TR/2001/REC-SVG-20010904/DTD/svg10.dtd">
<svg version="1.0" xmlns="http://www.w3.org/2000/svg"
 width="500.000000pt" height="500.000000pt" viewBox="0 0 500.000000 500.000000"
 preserveAspectRatio="xMidYMid meet">

<g transform="translate(0.000000,500.000000) scale(0.100000,-0.100000)"
fill="#000000" stroke="none">
<path d="M3225 4990 c-33 -5 -98 -21 -145 -36 -540 -167 -843 -731 -683 -1272
14 -48 28 -95 30 -104 3 -10 1 -18 -4 -18 -6 0 -189 60 -408 134 l-397 135
-691 -276 c-381 -151 -745 -295 -809 -320 l-118 -46 0 -1593 0 -1594 128 46
c70 25 258 92 417 149 160 56 467 166 684 244 l393 142 722 -236 c396 -130
789 -259 871 -286 83 -27 157 -49 166 -49 9 0 144 50 300 111 744 289 1257
491 1287 504 l32 15 0 1620 c0 1300 -2 1620 -13 1620 -7 0 -152 -56 -322 -124
-171 -68 -311 -123 -313 -122 -1 2 8 43 20 92 32 125 32 381 0 496 -103 377
-387 657 -757 749 -92 23 -298 33 -390 19z m351 -311 c128 -39 221 -95 314
-189 126 -126 184 -240 211 -410 21 -138 -7 -316 -71 -442 -26 -51 -176 -284
-547 -852 -59 -89 -108 -155 -113 -150 -4 5 -65 97 -135 204 -331 506 -507
782 -525 825 -169 394 9 834 402 992 138 56 324 65 464 22z m-623 -1939 l277
-427 0 -975 0 -976 -122 40 c-68 22 -395 129 -728 238 l-605 199 -3 1314 -2
1315 452 -151 453 -150 278 -427z m-1483 -597 l0 -1308 -218 -77 c-119 -43
-381 -136 -581 -208 -200 -71 -368 -130 -373 -130 -4 0 -8 578 -8 1283 l0
1284 578 230 c317 127 583 231 590 232 9 1 12 -267 12 -1306z m3238 0 l-3
-1308 -180 -71 c-420 -166 -958 -374 -981 -380 l-24 -6 0 965 0 965 133 203
c72 111 207 318 298 458 l166 256 279 111 c153 62 287 112 297 113 16 1 17
-66 15 -1306z"/>
<path d="M3255 4396 c-235 -75 -366 -317 -295 -547 62 -204 238 -328 446 -317
70 4 94 10 157 41 357 177 322 701 -54 818 -70 22 -193 24 -254 5z m183 -290
c49 -26 75 -62 80 -114 12 -126 -112 -215 -208 -149 -48 32 -72 69 -77 118
-11 111 108 195 205 145z"/>
</g>
</svg>
