<?xml version="1.0" standalone="no"?>
<!DOCTYPE svg PUBLIC "-//W3C//DTD SVG 20010904//EN"
 "http://www.w3.org/TR/2001/REC-SVG-20010904/DTD/svg10.dtd">
<svg version="1.0" xmlns="http://www.w3.org/2000/svg"
 width="500.000000pt" height="500.000000pt" viewBox="0 0 500.000000 500.000000"
 preserveAspectRatio="xMidYMid meet">

<g transform="translate(0.000000,500.000000) scale(0.100000,-0.100000)"
fill="#000000" stroke="none">
<path d="M2335 4790 c-332 -30 -643 -144 -907 -331 -260 -185 -451 -409 -593
-694 -146 -295 -204 -569 -192 -900 18 -463 191 -875 506 -1207 187 -197 412
-351 658 -451 80 -32 143 -76 183 -127 33 -41 109 -200 286 -595 52 -115 106
-222 121 -237 56 -58 149 -60 205 -4 13 14 89 168 168 343 79 175 161 353 182
397 49 98 114 164 199 202 35 16 112 53 172 81 505 245 869 706 991 1254 173
780 -147 1553 -824 1992 -273 177 -580 269 -935 281 -71 3 -170 1 -220 -4z
m445 -104 c565 -95 1041 -443 1294 -946 81 -163 134 -315 168 -482 20 -97 23
-143 22 -328 0 -194 -3 -227 -27 -341 -83 -390 -262 -704 -557 -973 -136 -125
-276 -214 -482 -307 -251 -113 -255 -119 -479 -616 -109 -243 -180 -388 -192
-394 -39 -22 -67 -2 -99 69 -17 37 -95 210 -174 385 -85 191 -158 338 -181
368 -57 75 -127 124 -270 188 -233 106 -357 188 -526 351 -218 209 -368 447
-461 731 -100 307 -113 663 -35 971 160 634 642 1122 1271 1287 62 17 149 35
193 40 44 6 94 13 110 15 58 8 341 -3 425 -18z"/>
<path d="M2356 4250 c-579 -73 -1030 -488 -1153 -1060 -25 -118 -25 -391 0
-507 58 -269 175 -484 371 -678 263 -261 562 -385 927 -385 275 0 506 70 739
225 98 65 284 250 347 345 112 167 191 366 218 549 105 692 -357 1351 -1044
1491 -115 23 -305 33 -405 20z m364 -106 c407 -72 756 -353 915 -739 115 -278
123 -588 23 -875 -31 -88 -104 -237 -139 -280 l-20 -25 -37 45 c-173 209 -366
344 -595 415 -48 15 -87 30 -87 34 0 3 21 19 46 35 194 123 299 376 250 606
-46 220 -218 401 -431 455 -76 19 -214 19 -288 0 -161 -42 -311 -162 -381
-305 -134 -274 -51 -591 199 -756 l56 -37 -100 -33 c-117 -38 -217 -87 -316
-152 -70 -47 -210 -179 -278 -262 l-36 -45 -20 25 c-35 43 -108 192 -139 280
-241 691 164 1432 877 1602 154 36 336 41 501 12z m-96 -420 c178 -46 327
-202 365 -382 57 -275 -138 -551 -421 -593 -332 -49 -626 264 -557 593 57 275
341 452 613 382z m166 -1108 c237 -66 462 -220 608 -415 l41 -55 -36 -40
c-222 -249 -557 -396 -903 -396 -326 0 -614 117 -847 344 l-95 92 59 74 c179
225 420 369 702 421 25 4 120 6 211 4 140 -3 179 -7 260 -29z"/>
</g>
</svg>
