<?xml version="1.0" standalone="no"?>
<!DOCTYPE svg PUBLIC "-//W3C//DTD SVG 20010904//EN"
 "http://www.w3.org/TR/2001/REC-SVG-20010904/DTD/svg10.dtd">
<svg version="1.0" xmlns="http://www.w3.org/2000/svg"
 width="500.000000pt" height="500.000000pt" viewBox="0 0 500.000000 500.000000"
 preserveAspectRatio="xMidYMid meet">

<g transform="translate(0.000000,500.000000) scale(0.100000,-0.100000)"
fill="#000000" stroke="none">
<path d="M2328 4985 c-457 -72 -823 -435 -904 -898 -21 -122 -14 -329 15 -440
105 -397 404 -695 796 -795 l110 -28 5 -1056 5 -1056 25 -27 c75 -81 187 -73
254 18 21 28 21 31 23 1075 l3 1047 107 27 c734 188 1057 1033 637 1664 -231
348 -657 534 -1076 469z m305 -310 c262 -46 485 -226 588 -474 48 -115 62
-198 56 -331 -11 -212 -78 -363 -231 -515 -70 -70 -110 -101 -175 -134 -129
-67 -187 -82 -336 -88 -167 -6 -243 9 -384 78 -94 46 -116 62 -201 148 -108
109 -163 200 -202 336 -19 66 -23 104 -23 215 0 121 3 144 28 220 126 386 495
614 880 545z"/>
<path d="M2425 4351 c-53 -33 -68 -58 -73 -121 -4 -48 0 -65 17 -94 25 -40 92
-76 143 -76 39 0 91 -31 119 -70 10 -14 23 -53 28 -87 12 -75 29 -102 80 -131
67 -38 143 -23 194 37 34 41 41 80 27 166 -28 179 -158 328 -332 380 -72 21
-165 20 -203 -4z"/>
<path d="M1780 1529 c-563 -69 -892 -143 -1169 -263 -205 -89 -364 -216 -418
-332 -34 -75 -42 -178 -19 -257 63 -218 396 -413 908 -531 252 -58 537 -100
883 -128 195 -16 875 -16 1070 0 636 52 1098 152 1410 307 285 140 405 287
393 479 -6 87 -37 161 -97 228 -214 240 -718 406 -1497 493 -153 17 -188 11
-233 -40 -66 -75 -46 -196 39 -240 15 -8 110 -23 211 -35 591 -66 1113 -226
1243 -380 37 -45 33 -67 -24 -121 -132 -128 -548 -262 -1030 -334 -566 -83
-1332 -83 -1900 0 -500 74 -926 215 -1046 348 -41 45 -42 65 -8 107 131 155
646 313 1243 380 101 11 196 27 211 35 16 8 39 29 52 47 31 44 33 134 2 174
-48 65 -96 79 -224 63z"/>
</g>
</svg>
