<?xml version="1.0" standalone="no"?>
<!DOCTYPE svg PUBLIC "-//W3C//DTD SVG 20010904//EN"
 "http://www.w3.org/TR/2001/REC-SVG-20010904/DTD/svg10.dtd">
<svg version="1.0" xmlns="http://www.w3.org/2000/svg"
 width="500.000000pt" height="500.000000pt" viewBox="0 0 500.000000 500.000000"
 preserveAspectRatio="xMidYMid meet">

<g transform="translate(0.000000,500.000000) scale(0.100000,-0.100000)"
fill="#000000" stroke="none">
<path d="M3125 4544 c-311 -52 -590 -207 -798 -444 -358 -407 -433 -1002 -189
-1486 335 -665 1133 -933 1797 -604 542 268 840 863 728 1454 -92 490 -465
904 -938 1041 -189 54 -421 70 -600 39z m465 -324 c103 -26 270 -104 354 -164
76 -55 200 -182 253 -261 83 -124 141 -267 163 -407 20 -124 8 -343 -24 -453
-107 -360 -380 -625 -744 -722 -85 -23 -117 -26 -252 -26 -135 0 -167 3 -252
26 -363 97 -637 363 -744 722 -36 121 -45 348 -19 476 38 192 128 367 258 505
97 103 168 157 283 216 101 52 194 84 297 104 105 20 318 12 427 -16z"/>
<path d="M3205 3912 c-124 -46 -208 -119 -260 -225 -78 -161 -63 -292 38 -338
54 -24 88 -24 138 1 49 26 75 67 84 134 8 61 25 90 68 116 86 53 197 -8 197
-107 0 -84 -40 -126 -134 -141 -64 -10 -100 -31 -126 -75 -18 -28 -20 -51 -20
-193 0 -151 1 -163 23 -195 32 -48 81 -71 140 -66 89 8 135 63 144 176 l6 71
55 31 c30 17 76 52 101 78 215 221 145 583 -137 714 -58 27 -81 31 -167 34
-79 3 -110 -1 -150 -15z"/>
<path d="M3261 2638 c-57 -38 -75 -72 -75 -133 0 -61 18 -95 75 -133 28 -20
43 -23 87 -20 86 7 145 69 145 152 0 85 -59 147 -147 154 -41 3 -57 -1 -85
-20z"/>
<path d="M787 3739 c-207 -30 -383 -184 -450 -394 l-22 -70 0 -900 0 -900 22
-70 c63 -198 226 -350 416 -388 l62 -13 5 -205 c5 -203 5 -206 32 -246 49 -75
120 -113 208 -113 63 0 112 27 245 132 354 282 451 341 650 395 l100 27 680 6
c666 6 681 6 746 28 141 47 266 156 329 287 45 94 60 159 60 259 0 59 -4 79
-23 106 -62 93 -194 96 -260 8 -15 -19 -22 -50 -27 -110 -7 -93 -29 -145 -82
-195 -73 -71 -39 -67 -788 -74 -731 -6 -709 -5 -895 -65 -178 -58 -321 -141
-533 -307 -67 -54 -125 -97 -127 -97 -3 0 -5 73 -5 163 0 89 -5 178 -10 197
-5 20 -26 51 -45 70 -34 33 -37 34 -147 41 -62 3 -129 13 -149 22 -52 22 -105
72 -131 125 l-23 47 0 870 0 870 30 54 c30 54 61 83 125 117 32 18 71 19 522
24 472 5 487 6 515 26 43 32 65 81 60 137 -5 60 -30 95 -87 125 -44 22 -46 22
-495 21 -247 -1 -476 -5 -508 -10z"/>
<path d="M1046 3130 c-120 -37 -143 -207 -37 -277 34 -23 37 -23 385 -23 333
0 353 1 384 20 97 59 96 192 -1 264 -27 20 -41 21 -365 23 -185 1 -350 -2
-366 -7z"/>
<path d="M1035 2516 c-37 -16 -82 -68 -91 -102 -10 -39 2 -100 25 -132 44 -62
44 -62 539 -62 l449 0 33 23 c56 37 75 72 74 132 0 63 -36 118 -90 141 -48 20
-894 20 -939 0z"/>
<path d="M1021 1898 c-59 -30 -84 -76 -78 -144 4 -60 32 -105 81 -128 30 -14
96 -16 571 -16 586 0 566 -2 618 59 38 46 44 101 15 158 -12 26 -36 56 -51 67
-28 20 -42 21 -570 24 l-542 2 -44 -22z"/>
</g>
</svg>
