<?xml version="1.0" standalone="no"?>
<!DOCTYPE svg PUBLIC "-//W3C//DTD SVG 20010904//EN"
 "http://www.w3.org/TR/2001/REC-SVG-20010904/DTD/svg10.dtd">
<svg version="1.0" xmlns="http://www.w3.org/2000/svg"
 width="500.000000pt" height="500.000000pt" viewBox="0 0 500.000000 500.000000"
 preserveAspectRatio="xMidYMid meet">

<g transform="translate(0.000000,500.000000) scale(0.100000,-0.100000)"
fill="#000000" stroke="none">
<path d="M2020 4364 c-373 -47 -668 -191 -931 -453 -232 -233 -362 -471 -430
-791 -31 -143 -33 -435 -5 -585 90 -485 398 -896 835 -1114 508 -255 1096
-217 1570 101 51 35 100 67 107 73 11 8 126 -103 496 -472 424 -423 488 -482
520 -488 118 -22 205 65 183 183 -6 32 -65 96 -488 520 -374 375 -480 485
-472 496 222 317 306 532 336 857 37 400 -105 831 -377 1144 -226 259 -532
437 -872 506 -95 19 -388 33 -472 23z m383 -319 c366 -64 694 -296 874 -619
101 -180 150 -356 159 -566 36 -832 -756 -1470 -1563 -1259 -471 123 -835 517
-918 996 -20 113 -19 315 1 433 44 258 157 473 349 665 187 188 408 305 660
349 108 19 331 20 438 1z"/>
</g>
</svg>
