<?xml version="1.0" standalone="no"?>
<!DOCTYPE svg PUBLIC "-//W3C//DTD SVG 20010904//EN"
 "http://www.w3.org/TR/2001/REC-SVG-20010904/DTD/svg10.dtd">
<svg version="1.0" xmlns="http://www.w3.org/2000/svg"
 width="500.000000pt" height="500.000000pt" viewBox="0 0 500.000000 500.000000"
 preserveAspectRatio="xMidYMid meet">

<g transform="translate(0.000000,500.000000) scale(0.100000,-0.100000)"
fill="#000000" stroke="none">
<path d="M823 4980 c-63 -38 -63 -41 -63 -442 0 -342 1 -365 20 -395 30 -50
66 -63 175 -63 109 0 145 13 175 63 19 30 20 53 20 395 0 401 0 404 -63 442
-26 16 -50 20 -132 20 -82 0 -106 -4 -132 -20z"/>
<path d="M2973 4980 c-63 -38 -63 -41 -63 -442 0 -342 1 -365 20 -395 30 -50
66 -63 175 -63 109 0 145 13 175 63 19 30 20 53 20 395 0 401 0 404 -63 442
-26 16 -50 20 -132 20 -82 0 -106 -4 -132 -20z"/>
<path d="M207 4535 c-84 -31 -162 -110 -192 -195 -22 -63 -23 -3116 0 -3179
16 -46 22 -54 86 -121 82 -85 10 -80 1127 -80 l985 0 -8 47 c-4 27 -10 113
-14 193 l-6 145 -825 5 c-919 6 -856 0 -934 76 -76 74 -71 -2 -74 1072 l-3
962 1681 0 1680 0 0 -365 0 -365 98 -1 c53 -1 106 -3 117 -5 11 -1 46 -6 78
-9 l57 -7 0 800 c0 765 -1 802 -19 844 -26 59 -60 102 -112 141 -67 51 -96 57
-270 57 l-159 0 0 -152 c0 -178 -12 -262 -45 -327 -29 -58 -96 -120 -155 -145
-25 -10 -56 -23 -69 -29 -37 -18 -208 -14 -264 6 -109 39 -160 79 -210 167
-35 61 -47 145 -47 328 l0 152 -680 0 -680 0 0 -152 c0 -241 -23 -328 -106
-411 -45 -45 -96 -69 -195 -93 -62 -15 -85 -16 -158 -6 -105 13 -172 44 -228
105 -84 91 -103 167 -103 405 l0 152 -157 -1 c-109 0 -170 -5 -196 -14z"/>
<path d="M1020 3171 c-93 -29 -198 -127 -220 -206 -18 -65 -9 -171 19 -225 91
-178 312 -234 469 -120 152 110 161 363 18 486 -72 62 -200 91 -286 65z"/>
<path d="M1911 3158 c-160 -61 -235 -252 -162 -411 141 -306 591 -213 591 123
0 222 -218 369 -429 288z"/>
<path d="M2847 3161 c-102 -41 -166 -119 -188 -228 -43 -208 113 -385 325
-371 124 8 233 87 270 195 20 60 20 166 0 226 -21 61 -84 132 -148 164 -69 36
-189 42 -259 14z"/>
<path d="M3570 2404 c-146 -26 -345 -109 -475 -197 -216 -146 -383 -376 -464
-639 -69 -226 -69 -490 0 -713 129 -425 432 -706 894 -830 82 -22 329 -31 435
-16 344 51 656 246 838 525 205 314 258 700 145 1051 -28 88 -98 234 -146 305
-183 272 -460 450 -796 514 -102 20 -325 20 -431 0z m452 -433 c84 -27 207
-96 276 -155 117 -100 197 -215 245 -354 30 -83 31 -95 31 -247 1 -178 -8
-224 -71 -349 -83 -166 -188 -273 -349 -357 -140 -74 -184 -84 -364 -84 -144
0 -161 2 -243 29 -205 67 -384 225 -481 426 -19 39 -33 70 -31 70 2 0 -3 21
-11 48 -9 26 -18 103 -21 173 -7 165 11 258 77 394 96 197 255 334 465 399
111 35 113 35 270 31 108 -2 155 -8 207 -24z"/>
<path d="M3412 1597 c-50 -51 -92 -95 -92 -99 0 -4 65 -73 145 -153 80 -81
145 -152 145 -158 0 -6 -65 -74 -145 -150 -80 -77 -145 -145 -145 -151 0 -6
43 -54 95 -106 l95 -95 155 155 156 155 148 -155 149 -155 103 101 103 102
-155 150 -154 151 148 148 c81 82 147 153 147 158 0 6 -43 53 -95 105 l-95 95
-142 -148 c-79 -81 -149 -147 -156 -147 -7 0 -79 64 -158 143 -80 78 -148 143
-152 145 -4 1 -49 -40 -100 -91z"/>
<path d="M980 2220 c-64 -23 -127 -81 -161 -148 -20 -39 -24 -62 -24 -137 0
-75 4 -98 23 -135 55 -104 151 -170 263 -178 119 -8 218 41 286 145 38 56 38
56 38 162 0 99 -2 109 -28 153 -82 137 -243 193 -397 138z"/>
<path d="M1908 2219 c-147 -52 -226 -238 -167 -396 61 -162 241 -243 404 -182
204 75 261 347 108 510 -78 84 -219 111 -345 68z"/>
</g>
</svg>
