<?xml version="1.0" standalone="no"?>
<!DOCTYPE svg PUBLIC "-//W3C//DTD SVG 20010904//EN"
 "http://www.w3.org/TR/2001/REC-SVG-20010904/DTD/svg10.dtd">
<svg version="1.0" xmlns="http://www.w3.org/2000/svg"
 width="500.000000pt" height="500.000000pt" viewBox="0 0 500.000000 500.000000"
 preserveAspectRatio="xMidYMid meet">

<g transform="translate(0.000000,500.000000) scale(0.100000,-0.100000)"
fill="#000000" stroke="none">
<path d="M4285 4353 c-46 -24 -76 -54 -96 -98 -18 -38 -19 -109 -19 -1753 0
-1862 -3 -1750 53 -1810 77 -83 227 -83 304 0 56 60 53 -51 53 1808 0 1859 3
1748 -53 1808 -55 59 -174 81 -242 45z"/>
<path d="M2610 3518 c-62 -32 -102 -92 -108 -162 -8 -100 -2 -108 276 -388
l256 -258 -1214 0 c-817 0 -1227 -4 -1253 -11 -82 -22 -147 -110 -147 -199 0
-89 65 -177 147 -199 26 -7 436 -11 1253 -11 l1214 0 -256 -257 c-278 -281
-284 -289 -276 -389 12 -140 163 -225 293 -165 27 13 187 166 487 467 467 470
468 471 468 554 0 83 -1 84 -468 553 -246 247 -464 457 -484 468 -52 27 -131
25 -188 -3z"/>
</g>
</svg>
