<?xml version="1.0" standalone="no"?>
<!DOCTYPE svg PUBLIC "-//W3C//DTD SVG 20010904//EN"
 "http://www.w3.org/TR/2001/REC-SVG-20010904/DTD/svg10.dtd">
<svg version="1.0" xmlns="http://www.w3.org/2000/svg"
 width="500.000000pt" height="500.000000pt" viewBox="0 0 500.000000 500.000000"
 preserveAspectRatio="xMidYMid meet">

<g transform="translate(0.000000,500.000000) scale(0.100000,-0.100000)"
fill="#000000" stroke="none">
<path d="M2352 4855 c-30 -7 -93 -32 -140 -55 -85 -42 -97 -53 -429 -385 -221
-222 -349 -358 -364 -386 -48 -94 -34 -232 32 -312 51 -62 110 -90 198 -94
115 -6 137 8 364 235 106 105 196 192 200 192 4 0 7 -355 7 -790 l0 -790 -27
-5 c-145 -31 -331 -112 -468 -203 -311 -207 -530 -543 -603 -925 -15 -80 -17
-150 -15 -544 2 -439 3 -454 24 -502 41 -96 139 -160 245 -161 120 0 202 49
253 152 l31 61 0 396 c0 218 5 428 10 466 40 282 218 527 474 650 136 66 198
79 356 80 176 0 294 -32 437 -116 67 -40 189 -152 238 -219 52 -70 112 -198
137 -287 20 -73 22 -108 27 -533 7 -512 4 -493 86 -576 50 -49 116 -74 199
-74 106 1 203 64 247 163 l24 52 0 450 c0 384 -3 463 -18 542 -39 213 -137
436 -262 604 -179 240 -460 430 -752 510 l-83 22 0 789 0 789 38 -30 c20 -17
109 -104 197 -192 179 -182 220 -209 316 -209 156 0 266 103 276 260 4 51 0
78 -18 125 -21 56 -45 82 -368 405 -322 321 -352 348 -427 388 -45 23 -110 48
-145 57 -77 18 -224 18 -297 0z"/>
</g>
</svg>
