<?xml version="1.0" standalone="no"?>
<!DOCTYPE svg PUBLIC "-//W3C//DTD SVG 20010904//EN"
 "http://www.w3.org/TR/2001/REC-SVG-20010904/DTD/svg10.dtd">
<svg version="1.0" xmlns="http://www.w3.org/2000/svg"
 width="500.000000pt" height="500.000000pt" viewBox="0 0 500.000000 500.000000"
 preserveAspectRatio="xMidYMid meet">

<g transform="translate(0.000000,500.000000) scale(0.100000,-0.100000)"
fill="#000000" stroke="none">
<path d="M1782 4889 c-85 -14 -154 -53 -219 -122 -72 -78 -111 -151 -178 -331
-28 -78 -65 -166 -81 -196 -28 -53 -31 -55 -84 -67 -30 -6 -98 -12 -151 -12
-215 -2 -382 -33 -476 -88 -127 -74 -205 -239 -188 -397 8 -75 38 -206 70
-309 14 -43 30 -110 36 -149 l11 -70 -44 -45 c-23 -25 -88 -79 -143 -121 -286
-217 -378 -391 -315 -593 38 -123 125 -226 316 -371 54 -42 119 -96 142 -121
l44 -45 -11 -70 c-6 -39 -22 -106 -36 -149 -32 -103 -62 -234 -70 -309 -17
-153 56 -314 177 -390 93 -59 267 -93 487 -95 53 0 121 -6 151 -12 53 -12 56
-14 84 -67 16 -30 53 -118 81 -196 66 -180 106 -253 177 -329 65 -70 140 -112
226 -125 129 -22 254 24 472 170 128 86 209 130 240 130 32 0 128 -52 247
-134 254 -174 415 -210 577 -130 126 62 200 169 289 415 54 149 64 173 94 220
20 33 28 38 86 48 35 6 102 11 149 11 193 0 376 33 458 83 147 90 216 247 191
433 -12 86 -30 161 -67 277 -13 43 -29 110 -35 149 l-11 70 44 45 c23 25 88
79 143 121 120 91 221 190 264 257 40 62 71 162 71 225 0 63 -31 163 -71 225
-42 67 -152 174 -269 261 -52 40 -115 92 -138 117 l-44 45 11 70 c6 39 22 106
35 149 37 116 55 191 67 277 25 186 -44 343 -191 433 -83 50 -258 82 -469 84
-53 0 -121 6 -151 12 -53 12 -56 14 -84 67 -16 30 -53 118 -81 196 -67 180
-106 253 -178 331 -115 123 -269 159 -433 100 -70 -26 -145 -67 -264 -147
-128 -86 -209 -130 -240 -130 -31 0 -111 43 -244 132 -221 147 -339 189 -474
167z m1583 -1678 c49 -22 93 -65 111 -108 19 -45 17 -121 -5 -168 -13 -27
-197 -217 -572 -591 -579 -576 -577 -574 -659 -574 -78 0 -96 14 -399 314
-192 191 -300 305 -312 331 -20 43 -25 119 -10 158 27 70 120 136 191 137 88
0 104 -11 323 -228 l207 -206 468 465 c355 354 475 468 502 476 54 17 111 14
155 -6z"/>
</g>
</svg>
