<?xml version="1.0" standalone="no"?>
<!DOCTYPE svg PUBLIC "-//W3C//DTD SVG 20010904//EN"
 "http://www.w3.org/TR/2001/REC-SVG-20010904/DTD/svg10.dtd">
<svg version="1.0" xmlns="http://www.w3.org/2000/svg"
 width="500.000000pt" height="500.000000pt" viewBox="0 0 500.000000 500.000000"
 preserveAspectRatio="xMidYMid meet">

<g transform="translate(0.000000,500.000000) scale(0.100000,-0.100000)"
fill="#000000" stroke="none">
<path d="M614 4805 c-310 -67 -554 -329 -604 -645 -8 -55 -10 -458 -8 -1530 4
-1629 -3 -1488 77 -1655 109 -227 306 -381 550 -430 66 -14 252 -15 1482 -13
l1405 3 36 24 c135 93 106 307 -49 350 -23 7 -181 11 -408 11 l-370 0 -223
290 -223 291 29 37 c16 20 157 199 312 397 156 198 463 589 683 868 220 280
403 505 407 500 4 -4 135 -150 292 -323 156 -173 351 -389 433 -480 213 -238
245 -270 290 -291 105 -49 233 9 265 119 8 26 10 313 8 942 -4 1006 0 942 -73
1097 -106 225 -283 372 -519 433 -78 20 -104 20 -1905 19 -1483 0 -1838 -3
-1887 -14z m3767 -408 c88 -43 143 -98 186 -185 l38 -76 3 -500 c1 -276 1
-555 0 -621 l-3 -120 -388 430 c-407 450 -445 486 -521 485 -40 -1 -102 -23
-128 -47 -23 -21 -338 -419 -1098 -1388 -173 -220 -342 -435 -376 -477 l-62
-78 -192 250 c-298 389 -347 448 -382 466 -45 24 -133 24 -181 0 -29 -14 -75
-66 -185 -210 -80 -105 -188 -245 -238 -310 -105 -136 -124 -182 -104 -257 32
-121 155 -181 265 -130 49 23 60 35 215 236 152 197 139 183 150 165 5 -8 32
-44 59 -80 28 -36 217 -281 421 -545 l369 -480 -752 -3 c-832 -2 -808 -4 -912
62 -61 40 -105 93 -143 173 l-27 58 0 1460 0 1460 31 65 c38 80 78 128 144
170 98 63 -30 59 1945 57 l1810 -2 56 -28z"/>
<path d="M1222 4100 c-106 -28 -187 -75 -268 -155 -230 -229 -230 -590 1 -820
227 -227 576 -233 810 -13 159 149 222 369 164 578 -29 105 -70 173 -158 260
-151 149 -347 203 -549 150z m223 -389 c76 -35 115 -95 115 -177 0 -151 -173
-244 -299 -161 -59 39 -86 90 -86 164 0 52 4 68 30 104 57 81 155 109 240 70z"/>
<path d="M4092 1991 c-34 -10 -87 -34 -116 -52 -73 -45 -493 -460 -512 -504
-34 -83 -3 -186 74 -240 36 -25 53 -30 100 -29 35 0 70 7 92 18 19 10 94 77
167 149 l132 130 3 -574 c3 -553 4 -575 23 -608 11 -19 37 -48 58 -65 35 -28
45 -31 111 -31 62 0 78 4 113 27 24 16 49 44 62 70 21 44 21 54 21 606 0 332
4 562 9 562 5 0 62 -57 128 -126 65 -69 136 -135 158 -147 118 -61 268 16 282
147 11 92 -2 111 -302 416 -129 132 -186 183 -231 207 -119 63 -249 79 -372
44z"/>
</g>
</svg>
