<?xml version="1.0" standalone="no"?>
<!DOCTYPE svg PUBLIC "-//W3C//DTD SVG 20010904//EN"
 "http://www.w3.org/TR/2001/REC-SVG-20010904/DTD/svg10.dtd">
<svg version="1.0" xmlns="http://www.w3.org/2000/svg"
 width="500.000000pt" height="500.000000pt" viewBox="0 0 500.000000 500.000000"
 preserveAspectRatio="xMidYMid meet">

<g transform="translate(0.000000,500.000000) scale(0.100000,-0.100000)"
fill="#000000" stroke="none">
<path d="M1650 4545 l0 -126 68 3 67 3 0 120 0 120 -67 3 -68 3 0 -126z"/>
<path d="M977 4469 l-48 -30 22 -37 c12 -20 37 -65 56 -99 19 -35 39 -65 44
-69 5 -3 34 9 65 26 52 30 54 33 41 54 -8 11 -35 58 -61 104 -26 45 -53 82
-59 82 -7 0 -34 -14 -60 -31z"/>
<path d="M2333 4407 c-28 -51 -53 -99 -55 -106 -3 -13 74 -68 97 -70 11 -1
125 188 125 206 0 10 -90 63 -106 63 -5 0 -32 -42 -61 -93z"/>
<path d="M4029 4466 c-148 -56 -242 -163 -269 -305 -6 -35 -10 -570 -10 -1515
l0 -1462 219 -385 219 -384 -1135 -3 c-1116 -2 -1134 -2 -1173 18 -47 24 -84
71 -100 125 -7 26 -10 108 -8 230 l3 190 108 5 c108 5 109 5 138 38 l29 32 0
155 0 155 34 14 c44 18 56 42 56 111 0 82 36 244 75 342 57 141 116 225 275
388 169 174 222 244 290 386 187 392 144 842 -115 1204 -54 75 -201 218 -281
272 -202 138 -419 203 -671 203 -670 0 -1202 -557 -1169 -1225 9 -184 47 -329
129 -490 58 -114 132 -211 266 -344 233 -232 331 -432 356 -729 8 -87 18 -107
61 -118 l24 -6 0 -144 c0 -217 13 -236 165 -244 l90 -5 5 -230 c5 -213 7 -233
28 -276 36 -74 87 -125 160 -161 l67 -33 1216 -3 c1150 -2 1218 -1 1237 15 11
10 131 212 267 449 l245 431 -2 1514 -3 1514 -32 66 c-39 80 -111 150 -191
187 -57 27 -58 27 -312 29 -193 2 -264 -1 -291 -11z m551 -140 c49 -26 98 -74
123 -121 20 -37 22 -57 25 -257 l3 -218 -420 0 -421 0 0 208 c0 199 1 209 25
257 29 60 39 73 85 107 60 44 82 47 320 45 198 -2 229 -4 260 -21z m-2605
-210 c315 -81 593 -323 709 -619 89 -226 100 -478 29 -702 -58 -184 -129 -290
-327 -496 -106 -108 -167 -181 -204 -241 -90 -145 -155 -330 -169 -480 l-6
-68 -108 0 -109 0 0 498 c0 273 -3 527 -6 564 l-7 67 29 11 c86 31 134 73 176
153 32 60 33 194 1 253 -36 67 -70 101 -135 133 -110 55 -235 38 -327 -45
-156 -140 -112 -401 81 -484 l48 -21 0 -564 0 -565 -109 0 -109 0 -12 82 c-26
177 -97 361 -200 514 -30 44 -113 138 -186 212 -73 73 -154 164 -179 202 -275
413 -233 933 104 1302 151 165 388 285 636 322 79 12 282 -3 380 -28z m2265
-1591 c0 -844 -3 -1066 -12 -1069 -7 -2 -44 -11 -83 -20 -38 -10 -112 -37
-162 -61 l-93 -44 0 1130 0 1129 175 0 175 0 0 -1065z m490 -61 c0 -619 -3
-1124 -7 -1122 -154 76 -191 91 -261 105 l-82 16 0 1064 0 1063 175 0 175 0 0
-1126z m-2939 606 c104 -53 114 -203 18 -271 -46 -32 -134 -34 -176 -3 -89 66
-99 179 -21 251 49 46 116 55 179 23z m129 -1830 l0 -130 -202 2 -203 3 -3
114 c-1 63 0 121 2 128 4 10 50 13 206 13 l200 0 0 -130z m2515 75 c76 -16
220 -83 253 -118 l21 -22 -157 -275 c-87 -151 -176 -308 -197 -347 -22 -40
-42 -73 -45 -73 -4 0 -373 643 -397 692 -6 13 107 80 184 110 122 47 222 57
338 33z"/>
<path d="M465 3965 c-8 -14 -22 -37 -31 -52 -16 -25 -16 -27 2 -40 52 -39 197
-114 203 -107 4 5 20 30 35 56 l27 47 -42 26 c-54 34 -164 95 -172 95 -4 0
-13 -11 -22 -25z"/>
<path d="M2840 3934 c-52 -31 -97 -58 -100 -60 -5 -6 41 -92 57 -105 8 -7 44
9 117 51 l105 62 -29 51 c-16 29 -35 53 -42 54 -7 1 -56 -23 -108 -53z"/>
<path d="M202 3208 l3 -63 123 0 124 0 1 63 2 62 -128 0 -128 0 3 -62z"/>
<path d="M2980 3205 l0 -65 125 0 125 0 0 65 0 65 -125 0 -125 0 0 -65z"/>
</g>
</svg>
