<?xml version="1.0" standalone="no"?>
<!DOCTYPE svg PUBLIC "-//W3C//DTD SVG 20010904//EN"
 "http://www.w3.org/TR/2001/REC-SVG-20010904/DTD/svg10.dtd">
<svg version="1.0" xmlns="http://www.w3.org/2000/svg"
 width="500.000000pt" height="500.000000pt" viewBox="0 0 500.000000 500.000000"
 preserveAspectRatio="xMidYMid meet">

<g transform="translate(0.000000,500.000000) scale(0.100000,-0.100000)"
fill="#000000" stroke="none">
<path d="M2320 4766 c-132 -30 -223 -69 -338 -149 -125 -86 -191 -172 -363
-473 -56 -98 -166 -289 -244 -424 -173 -297 -463 -799 -793 -1370 -135 -234
-284 -493 -332 -576 -99 -170 -146 -260 -184 -354 -72 -176 -85 -342 -40 -515
91 -358 356 -612 704 -676 109 -20 3445 -21 3535 -1 261 58 453 189 592 403
94 145 143 308 143 477 0 180 -50 328 -195 577 -45 77 -134 230 -197 340 -64
110 -216 373 -339 585 -491 849 -594 1027 -762 1320 -301 524 -340 580 -476
679 -112 81 -215 127 -354 156 -82 18 -279 18 -357 1z m305 -401 c158 -42 230
-112 379 -371 60 -104 160 -277 222 -384 62 -107 288 -499 502 -870 214 -371
416 -720 448 -775 246 -423 387 -678 402 -725 62 -204 -47 -455 -244 -562
-113 -61 -11 -58 -1839 -58 -1110 0 -1685 4 -1715 11 -168 39 -315 183 -359
354 -16 59 -13 199 4 260 9 29 77 158 151 286 75 129 183 317 241 419 116 203
347 603 398 690 18 30 116 199 218 375 451 783 662 1143 694 1187 34 47 100
101 160 132 89 45 232 58 338 31z"/>
<path d="M2445 3379 c-55 -13 -128 -65 -159 -112 -44 -69 -51 -126 -37 -320 6
-94 23 -369 36 -610 17 -296 30 -449 39 -470 55 -129 222 -158 313 -54 42 48
50 81 58 237 3 74 19 344 35 600 34 566 33 580 -60 664 -67 61 -147 84 -225
65z"/>
<path d="M2420 1555 c-148 -47 -218 -220 -144 -356 44 -81 133 -137 220 -138
102 -2 220 80 244 170 26 96 -4 213 -72 276 -54 51 -169 73 -248 48z"/>
</g>
</svg>
