<?xml version="1.0" standalone="no"?>
<!DOCTYPE svg PUBLIC "-//W3C//DTD SVG 20010904//EN"
 "http://www.w3.org/TR/2001/REC-SVG-20010904/DTD/svg10.dtd">
<svg version="1.0" xmlns="http://www.w3.org/2000/svg"
 width="500.000000pt" height="500.000000pt" viewBox="0 0 500.000000 500.000000"
 preserveAspectRatio="xMidYMid meet">

<g transform="translate(0.000000,500.000000) scale(0.100000,-0.100000)"
fill="#000000" stroke="none">
<path d="M3325 4986 c-17 -7 -43 -28 -58 -45 l-27 -33 0 -196 c0 -228 6 -248
85 -283 39 -17 51 -18 87 -8 51 13 103 64 112 109 3 18 6 103 6 188 0 135 -3
161 -20 197 -34 71 -115 102 -185 71z"/>
<path d="M2275 4796 c-102 -32 -203 -110 -252 -194 -56 -95 -78 -232 -52 -327
6 -22 22 -66 36 -97 l26 -58 -23 -97 c-33 -146 -130 -431 -195 -576 -98 -217
-247 -457 -414 -667 -41 -52 -290 -311 -552 -575 -517 -521 -514 -518 -539
-655 -20 -108 8 -234 71 -325 15 -22 139 -151 276 -286 272 -270 297 -288 431
-311 142 -24 271 23 402 148 l81 78 387 -386 c222 -221 406 -396 432 -411 218
-125 503 -32 613 200 30 64 32 74 32 183 0 110 -1 118 -34 185 -29 59 -61 97
-214 252 l-180 182 76 81 c88 93 132 174 147 270 21 136 -24 266 -130 383
l-60 65 87 58 c281 183 631 333 956 409 l119 28 46 -23 c185 -90 390 -55 526
90 133 142 154 364 50 533 -32 52 -1687 1711 -1767 1772 -75 57 -163 85 -266
84 -42 0 -94 -6 -116 -13z m183 -290 c33 -18 1715 -1702 1731 -1733 30 -58 -1
-144 -65 -180 -45 -26 -82 -29 -127 -9 -19 8 -388 371 -884 867 -755 757 -852
858 -858 891 -22 120 100 218 203 164z m461 -1271 c349 -349 633 -636 630
-638 -2 -2 -60 -21 -129 -41 -392 -116 -794 -327 -1115 -585 -55 -44 -105 -81
-110 -81 -6 0 -151 141 -322 313 l-312 312 50 60 c263 314 481 714 614 1128
25 76 45 145 45 153 0 8 3 14 8 14 4 0 292 -286 641 -635z m-1244 -1245 l310
-310 -360 -360 c-198 -199 -375 -370 -393 -381 -39 -25 -106 -28 -147 -6 -17
8 -130 116 -251 239 -243 244 -254 261 -233 343 9 34 66 95 382 413 204 204
374 372 377 372 3 0 145 -140 315 -310z m798 -389 c67 -69 67 -69 67 -126 l0
-57 -72 -74 -72 -75 -98 98 c-54 54 -98 103 -98 109 0 12 188 194 200 194 4 0
37 -31 73 -69z m-116 -703 c198 -200 369 -378 378 -397 37 -74 0 -166 -80
-197 -89 -34 -86 -36 -505 382 l-375 374 100 100 c55 55 104 100 110 100 5 0
173 -163 372 -362z"/>
<path d="M1305 1816 c-16 -8 -87 -72 -157 -142 -101 -104 -128 -136 -133 -166
-20 -107 65 -193 172 -173 31 6 61 29 171 138 140 139 161 173 147 238 -13 60
-87 120 -147 119 -13 -1 -36 -7 -53 -14z"/>
<path d="M4205 4696 c-16 -8 -107 -92 -202 -187 -143 -146 -172 -180 -178
-211 -14 -73 21 -137 89 -163 85 -33 100 -24 289 163 93 92 175 179 183 194
32 60 8 155 -48 192 -35 23 -98 28 -133 12z"/>
<path d="M4205 3816 c-76 -33 -109 -116 -76 -191 35 -79 55 -85 276 -85 171 0
193 2 222 20 99 60 93 204 -10 251 -36 16 -66 19 -212 18 -119 0 -179 -4 -200
-13z"/>
</g>
</svg>
