<?xml version="1.0" standalone="no"?>
<!DOCTYPE svg PUBLIC "-//W3C//DTD SVG 20010904//EN"
 "http://www.w3.org/TR/2001/REC-SVG-20010904/DTD/svg10.dtd">
<svg version="1.0" xmlns="http://www.w3.org/2000/svg"
 width="500.000000pt" height="500.000000pt" viewBox="0 0 500.000000 500.000000"
 preserveAspectRatio="xMidYMid meet">

<g transform="translate(0.000000,500.000000) scale(0.100000,-0.100000)"
fill="#000000" stroke="none">
<path d="M491 4975 c-180 -40 -352 -177 -429 -343 -61 -133 -56 26 -60 -2087
-2 -1314 1 -1952 8 -1998 37 -242 203 -436 435 -510 l70 -22 1022 0 1021 0 44
30 c58 41 89 100 89 167 0 63 -10 93 -46 136 -60 72 19 66 -1085 72 -945 5
-997 6 -1029 24 -51 27 -90 75 -106 130 -22 75 -22 3777 0 3852 16 55 55 103
106 130 32 18 84 19 1029 24 1104 6 1025 0 1085 72 36 43 46 73 46 136 0 67
-31 126 -89 167 l-44 30 -1001 2 c-824 1 -1013 -1 -1066 -12z"/>
<path d="M3467 3940 c-114 -36 -173 -180 -119 -286 12 -24 203 -219 476 -487
251 -247 456 -453 456 -458 0 -5 -524 -10 -1243 -11 l-1243 -3 -36 -24 c-123
-85 -123 -257 0 -342 l36 -24 1243 -3 c722 -1 1243 -6 1243 -11 0 -5 -205
-211 -456 -458 -272 -267 -464 -464 -476 -487 -45 -88 -15 -201 70 -261 38
-26 52 -30 111 -30 57 0 74 4 107 27 60 40 1306 1275 1334 1322 34 56 34 136
0 192 -28 46 -1273 1281 -1331 1320 -41 28 -125 40 -172 24z"/>
</g>
</svg>
