<?xml version="1.0" standalone="no"?>
<!DOCTYPE svg PUBLIC "-//W3C//DTD SVG 20010904//EN"
 "http://www.w3.org/TR/2001/REC-SVG-20010904/DTD/svg10.dtd">
<svg version="1.0" xmlns="http://www.w3.org/2000/svg"
 width="500.000000pt" height="500.000000pt" viewBox="0 0 500.000000 500.000000"
 preserveAspectRatio="xMidYMid meet">
<metadata>
Created by potrace 1.16, written by Peter Selinger 2001-2019
</metadata>
<g transform="translate(0.000000,500.000000) scale(0.100000,-0.100000)"
fill="#000000" stroke="none">
<path d="M3939 4672 l-214 -129 -36 29 c-120 97 -305 88 -420 -19 -68 -64 -94
-127 -93 -233 0 -91 15 -134 69 -198 l26 -31 -65 -108 c-35 -59 -73 -124 -84
-143 -11 -19 -39 -69 -63 -110 -37 -64 -44 -85 -47 -142 -6 -98 7 -124 116
-237 93 -97 99 -101 139 -101 42 0 46 4 245 200 l203 200 48 -48 49 -49 -16
-38 c-19 -45 -21 -141 -3 -182 6 -16 39 -74 71 -130 63 -109 89 -130 143 -119
21 5 130 108 376 354 315 316 347 351 347 380 0 51 -14 68 -93 113 -39 23 -88
52 -107 64 -72 46 -172 51 -242 14 -18 -9 -28 -4 -73 41 l-52 52 198 196 c195
194 219 226 205 270 -8 24 -170 188 -211 213 -23 15 -50 19 -116 19 l-85 0
-215 -128z m352 -52 c15 -12 38 -34 50 -51 l21 -30 -201 -197 c-259 -254 -255
-225 -68 -410 121 -120 137 -132 169 -132 27 0 47 9 78 35 23 19 49 35 58 35
10 0 38 -14 64 -30 l47 -29 -248 -251 c-136 -137 -252 -250 -257 -250 -15 0
-54 74 -54 102 0 14 14 42 30 63 22 28 30 48 30 78 0 38 -7 47 -117 158 -127
130 -166 155 -208 139 -14 -5 -114 -98 -222 -206 l-195 -195 -49 51 c-27 29
-49 61 -49 72 0 11 65 128 145 261 107 179 145 251 145 275 0 25 -12 45 -54
91 -36 39 -57 72 -61 94 -18 97 48 177 145 177 49 0 84 -17 125 -60 17 -17 43
-39 59 -47 25 -13 33 -13 70 1 22 9 138 74 256 146 118 71 226 129 238 130 13
0 37 -9 53 -20z"/>
<path d="M2047 4360 c-193 -60 -327 -240 -327 -439 0 -85 8 -121 53 -234 23
-60 28 -80 18 -86 -7 -5 -47 -11 -89 -14 -259 -18 -546 -121 -792 -284 -157
-104 -357 -303 -459 -457 -62 -94 -137 -236 -194 -366 -76 -177 -120 -593 -87
-826 7 -49 14 -100 15 -114 1 -14 4 -32 7 -40 3 -8 15 -55 27 -105 38 -158
158 -396 287 -568 80 -107 255 -274 374 -359 422 -299 950 -388 1477 -247 259
69 511 218 728 431 l129 128 59 0 c48 0 62 4 82 25 33 32 32 75 0 114 l-26 30
27 43 c61 95 162 328 178 408 2 14 11 57 20 95 46 218 56 391 31 582 -30 225
-66 353 -150 530 -176 371 -444 641 -819 825 -55 26 -101 50 -103 52 -2 1 21
54 51 117 74 155 96 227 96 315 0 183 -106 342 -283 425 -61 28 -78 31 -173
33 -73 1 -121 -3 -157 -14z m263 -176 c148 -68 214 -222 161 -375 -27 -79
-154 -326 -243 -472 l-35 -58 -25 33 c-52 71 -215 362 -254 458 -37 89 -39
194 -6 263 75 151 255 219 402 151z m-356 -852 c122 -199 168 -263 202 -280
57 -27 87 -4 171 130 40 62 75 122 79 132 9 23 35 16 146 -39 316 -157 552
-390 711 -703 48 -94 112 -266 132 -357 20 -88 35 -209 35 -282 l0 -82 -46 -7
c-66 -10 -186 1 -247 22 -72 25 -177 135 -296 308 -52 75 -114 155 -139 176
-94 83 -223 105 -454 76 -202 -26 -234 -13 -308 124 -55 102 -114 157 -201
188 -171 60 -185 133 -69 344 67 121 75 149 73 256 l-1 92 76 0 77 0 59 -98z
m-379 23 c9 -62 1 -90 -51 -187 -109 -201 -122 -367 -38 -467 31 -38 110 -88
176 -113 69 -25 101 -57 146 -143 92 -175 205 -217 485 -180 80 10 154 15 181
11 78 -12 131 -58 218 -186 223 -331 370 -428 638 -418 l89 3 -5 -45 c-7 -57
-47 -207 -74 -275 -4 -11 -14 -36 -21 -55 -21 -59 -87 -187 -134 -260 -36 -56
-50 -70 -69 -70 -63 0 -104 -49 -91 -108 5 -26 -2 -36 -89 -119 -161 -155
-353 -269 -574 -342 -161 -54 -261 -72 -438 -78 -210 -8 -330 9 -536 78 -220
72 -412 187 -576 343 -95 91 -192 200 -192 215 0 5 37 20 83 35 131 40 230
119 292 231 26 48 41 97 69 238 47 237 59 262 195 395 105 103 110 110 131
180 32 105 26 242 -15 327 -37 79 -155 195 -307 303 -70 49 -140 109 -175 149
-32 36 -74 83 -94 104 -42 45 -44 40 51 124 84 75 220 165 340 225 96 48 309
123 366 129 7 0 15 -19 19 -44z m-866 -588 c43 -63 143 -154 261 -238 133 -95
220 -175 248 -232 26 -52 30 -167 8 -220 -7 -19 -50 -67 -95 -108 -148 -133
-173 -189 -237 -514 -7 -38 -18 -79 -23 -90 -5 -11 -16 -36 -25 -57 -23 -51
-107 -123 -173 -148 -58 -22 -152 -45 -158 -38 -18 19 -90 186 -118 273 -96
294 -103 599 -21 890 47 167 108 301 214 463 60 92 67 93 119 19z"/>
<path d="M2135 4058 c-66 -24 -105 -81 -105 -155 0 -92 63 -153 158 -153 29 0
66 7 82 15 37 19 69 72 76 126 7 55 -26 125 -71 151 -40 22 -103 30 -140 16z"/>
<path d="M1876 2019 c-71 -17 -206 -92 -267 -147 -77 -70 -109 -132 -109 -209
0 -80 31 -139 126 -246 164 -183 174 -203 174 -339 0 -83 18 -176 50 -263 27
-73 116 -167 176 -186 63 -20 216 -20 282 0 130 40 243 108 352 213 59 56 69
62 109 63 34 0 48 6 67 28 28 32 31 73 8 105 -14 21 -13 28 14 100 82 212 62
403 -54 515 -33 32 -123 77 -155 77 -5 0 -42 7 -82 16 -69 16 -75 20 -148 93
-131 132 -240 183 -404 187 -55 2 -117 -1 -139 -7z m246 -176 c52 -20 138 -85
197 -148 53 -57 137 -99 246 -121 97 -20 129 -37 152 -84 26 -52 23 -176 -6
-260 -28 -81 -37 -93 -61 -80 -33 18 -75 11 -99 -14 -32 -34 -31 -93 0 -119
l24 -19 -66 -63 c-105 -99 -247 -160 -360 -153 -62 3 -72 7 -103 37 -51 49
-77 138 -86 296 -10 173 -33 223 -168 370 -138 149 -147 178 -81 250 107 116
277 161 411 108z"/>
<path d="M2175 1518 c-29 -16 -35 -28 -35 -70 0 -30 11 -50 64 -116 106 -130
142 -148 197 -93 31 31 36 63 16 97 -23 38 -147 182 -163 188 -24 9 -57 7 -79
-6z"/>
<path d="M4415 3218 c-57 -33 -56 -94 4 -173 21 -27 48 -66 59 -86 51 -85 172
-70 172 21 0 34 -62 137 -120 200 -48 52 -75 61 -115 38z"/>
<path d="M4677 2750 c-60 -18 -68 -53 -37 -163 10 -40 22 -89 25 -109 11 -72
92 -102 140 -53 31 30 31 55 4 182 -27 127 -61 164 -132 143z"/>
<path d="M4718 2214 c-16 -8 -30 -26 -33 -42 -4 -15 -10 -46 -16 -69 -5 -23
-9 -55 -9 -72 0 -17 -5 -41 -11 -55 -14 -29 3 -81 30 -95 28 -15 68 -16 94 -2
29 15 51 88 63 203 9 85 1 114 -36 133 -36 18 -47 18 -82 -1z"/>
<path d="M4549 1679 c-16 -17 -29 -35 -29 -39 0 -5 -20 -41 -45 -81 -54 -87
-58 -127 -19 -158 36 -29 85 -27 115 3 39 39 129 197 129 226 0 41 -42 80 -86
80 -27 0 -43 -7 -65 -31z"/>
<path d="M4199 1247 c-30 -24 -75 -60 -101 -81 -42 -33 -48 -42 -48 -76 0 -45
35 -80 80 -80 31 0 130 61 195 121 38 35 45 47 45 80 0 29 -6 42 -26 58 -43
34 -84 27 -145 -22z"/>
<path d="M3736 1000 c-32 -10 -76 -22 -97 -25 -44 -8 -89 -53 -89 -89 0 -30
27 -65 58 -77 38 -14 233 35 273 68 38 32 40 83 4 118 -29 30 -65 31 -149 5z"/>
</g>
</svg>
