<?xml version="1.0" standalone="no"?>
<!DOCTYPE svg PUBLIC "-//W3C//DTD SVG 20010904//EN"
 "http://www.w3.org/TR/2001/REC-SVG-20010904/DTD/svg10.dtd">
<svg version="1.0" xmlns="http://www.w3.org/2000/svg"
 width="500.000000pt" height="500.000000pt" viewBox="0 0 500.000000 500.000000"
 preserveAspectRatio="xMidYMid meet">

<g transform="translate(0.000000,500.000000) scale(0.100000,-0.100000)"
fill="#000000" stroke="none">
<path d="M2275 4834 c-551 -59 -1044 -293 -1430 -679 -352 -352 -570 -776
-658 -1275 -18 -106 -21 -163 -21 -380 -1 -222 2 -271 22 -383 63 -349 178
-637 367 -922 307 -460 783 -805 1312 -950 239 -66 348 -80 633 -80 222 0 272
3 383 23 448 81 812 252 1152 543 341 292 602 703 720 1133 65 240 79 351 80
631 0 278 -10 367 -70 600 -203 791 -845 1444 -1633 1661 -217 59 -339 76
-592 79 -124 2 -243 1 -265 -1z m477 -399 c571 -75 1057 -380 1380 -865 133
-200 230 -435 283 -690 33 -154 45 -440 26 -597 -72 -590 -378 -1085 -877
-1418 -430 -288 -994 -386 -1517 -264 -709 166 -1280 737 -1446 1446 -68 294
-68 612 0 906 166 710 737 1280 1448 1446 218 51 485 65 703 36z"/>
<path d="M1251 2876 c-47 -17 -108 -71 -131 -116 -18 -36 -20 -59 -20 -260 0
-200 2 -224 20 -259 25 -50 89 -105 139 -119 28 -9 358 -12 1243 -12 1331 0
1257 -3 1326 63 19 18 43 50 55 72 21 37 22 54 22 255 0 203 -1 217 -22 256
-28 53 -91 107 -142 122 -57 17 -2442 15 -2490 -2z"/>
</g>
</svg>
