<?xml version="1.0" standalone="no"?>
<!DOCTYPE svg PUBLIC "-//W3C//DTD SVG 20010904//EN"
 "http://www.w3.org/TR/2001/REC-SVG-20010904/DTD/svg10.dtd">
<svg version="1.0" xmlns="http://www.w3.org/2000/svg"
 width="500.000000pt" height="500.000000pt" viewBox="0 0 500.000000 500.000000"
 preserveAspectRatio="xMidYMid meet">

<g transform="translate(0.000000,500.000000) scale(0.100000,-0.100000)"
fill="#000000" stroke="none">
<path d="M2393 4986 c-132 -32 -247 -126 -310 -253 -34 -68 -37 -82 -41 -183
l-4 -108 -67 -22 c-100 -33 -255 -111 -356 -178 -343 -230 -586 -587 -674
-994 -32 -149 -41 -326 -41 -821 0 -389 -2 -463 -15 -494 -9 -22 -75 -98 -158
-183 -79 -80 -167 -172 -196 -204 -156 -175 -185 -408 -78 -626 40 -82 151
-197 226 -235 124 -62 94 -59 630 -65 l495 -5 18 -74 c65 -265 278 -472 540
-525 367 -75 726 156 816 525 l18 74 495 5 c536 6 506 3 630 65 75 38 186 153
226 235 101 206 80 431 -56 600 -19 25 -109 120 -198 211 -94 96 -170 182
-178 203 -13 30 -15 111 -15 503 0 508 -8 658 -40 808 -89 409 -328 764 -669
993 -107 71 -243 141 -348 178 l-83 29 0 81 c0 95 -24 186 -69 256 -105 166
-309 249 -498 204z m194 -370 c24 -26 33 -45 33 -71 l0 -35 -120 0 -120 0 0
34 c0 37 37 91 74 107 42 18 99 3 133 -35z m98 -461 c263 -40 491 -152 679
-334 197 -191 310 -396 367 -664 21 -96 23 -137 28 -687 8 -735 -14 -661 288
-973 105 -109 193 -209 204 -232 27 -58 24 -121 -8 -186 -33 -65 -87 -105
-158 -118 -71 -14 -3094 -14 -3166 -1 -75 14 -128 53 -161 119 -33 64 -36 127
-10 183 9 21 48 70 87 110 38 40 124 129 191 198 130 135 182 218 203 322 6
32 12 272 14 603 3 467 6 564 21 640 32 171 96 329 194 480 66 101 248 280
357 351 256 166 568 234 870 189z m155 -3552 c-1 -68 -94 -179 -188 -225 -60
-30 -75 -33 -152 -33 -71 0 -95 5 -142 27 -73 34 -141 97 -173 161 -46 94 -72
87 315 87 317 0 340 -1 340 -17z"/>
</g>
</svg>
