<?xml version="1.0" standalone="no"?>
<!DOCTYPE svg PUBLIC "-//W3C//DTD SVG 20010904//EN"
 "http://www.w3.org/TR/2001/REC-SVG-20010904/DTD/svg10.dtd">
<svg version="1.0" xmlns="http://www.w3.org/2000/svg"
 width="500.000000pt" height="500.000000pt" viewBox="0 0 500.000000 500.000000"
 preserveAspectRatio="xMidYMid meet">

<g transform="translate(0.000000,500.000000) scale(0.100000,-0.100000)"
fill="#000000" stroke="none">
<path d="M2305 4834 c-16 -2 -73 -9 -125 -15 -408 -45 -812 -203 -1130 -441
-181 -134 -380 -349 -510 -549 -89 -137 -202 -374 -254 -531 -141 -423 -164
-916 -65 -1361 98 -444 318 -841 635 -1147 349 -337 777 -535 1324 -612 142
-20 525 -17 675 5 524 78 946 276 1288 606 452 437 697 1038 697 1711 0 416
-90 794 -271 1139 -341 650 -924 1056 -1683 1172 -124 19 -502 34 -581 23z
m406 -394 c692 -70 1235 -434 1533 -1028 211 -422 264 -957 141 -1442 -117
-461 -393 -852 -782 -1108 -632 -414 -1575 -414 -2206 0 -464 305 -752 780
-832 1372 -21 159 -16 469 10 611 105 572 378 1001 825 1295 236 155 548 263
865 298 114 13 325 14 446 2z"/>
<path d="M2298 3871 c-304 -66 -553 -256 -663 -504 -55 -126 -61 -299 -12
-393 50 -98 137 -148 258 -148 65 -1 84 3 134 29 72 37 123 104 156 204 54
166 135 275 229 306 75 25 188 17 256 -18 132 -67 176 -174 120 -293 -28 -60
-54 -87 -253 -268 -211 -191 -282 -290 -324 -454 -26 -103 -26 -261 0 -318 48
-106 144 -167 266 -167 152 -1 247 85 274 249 23 136 53 177 272 379 228 209
287 274 334 370 51 104 69 182 68 310 0 91 -4 124 -26 190 -83 252 -291 435
-583 511 -137 36 -376 43 -506 15z"/>
<path d="M2380 1756 c-97 -26 -174 -98 -211 -195 -30 -79 -24 -205 13 -276 57
-110 148 -166 278 -173 149 -7 250 50 312 176 30 60 33 75 32 152 0 91 -13
133 -61 203 -70 101 -227 150 -363 113z"/>
</g>
</svg>
