<?xml version="1.0" standalone="no"?>
<!DOCTYPE svg PUBLIC "-//W3C//DTD SVG 20010904//EN"
 "http://www.w3.org/TR/2001/REC-SVG-20010904/DTD/svg10.dtd">
<svg version="1.0" xmlns="http://www.w3.org/2000/svg"
 width="500.000000pt" height="500.000000pt" viewBox="0 0 500.000000 500.000000"
 preserveAspectRatio="xMidYMid meet">

<g transform="translate(0.000000,500.000000) scale(0.100000,-0.100000)"
fill="#000000" stroke="none">
<path d="M2335 3826 c-174 -40 -295 -107 -420 -231 -164 -164 -244 -355 -245
-583 -1 -462 369 -832 830 -832 459 0 830 371 830 830 0 377 -255 709 -620
805 -88 23 -296 29 -375 11z m267 -327 c187 -39 348 -200 387 -387 64 -306
-177 -602 -489 -602 -270 0 -500 230 -500 500 0 225 164 433 383 486 66 16
152 17 219 3z"/>
<path d="M662 3320 c-170 -45 -337 -178 -415 -327 -97 -186 -103 -417 -17
-598 106 -222 318 -366 559 -382 115 -8 230 16 341 69 68 33 100 57 170 127
93 93 134 161 170 276 88 288 -37 610 -298 764 -103 61 -186 84 -317 87 -96 3
-134 0 -193 -16z m300 -338 c70 -31 141 -102 174 -175 53 -117 31 -251 -57
-351 -157 -180 -444 -136 -548 84 -21 45 -26 70 -26 135 0 71 4 89 33 147 45
92 121 154 217 179 50 13 157 4 207 -19z"/>
<path d="M3996 3320 c-140 -37 -269 -123 -352 -233 -161 -212 -187 -471 -71
-707 59 -121 178 -241 297 -298 371 -178 799 0 931 388 31 91 37 251 14 354
-52 238 -244 436 -481 496 -100 26 -243 26 -338 0z m318 -349 c74 -36 118 -82
155 -161 37 -78 37 -191 0 -270 -103 -219 -391 -264 -548 -84 -88 99 -110 235
-58 349 84 182 275 253 451 166z"/>
<path d="M2025 1849 c-112 -27 -284 -115 -374 -191 -138 -116 -248 -293 -292
-467 -48 -188 5 -291 149 -291 92 0 140 52 166 180 26 122 74 211 164 299 85
85 164 130 273 156 93 21 685 22 778 0 214 -51 393 -233 433 -440 22 -119 30
-139 64 -172 100 -94 244 -50 274 84 10 44 -13 174 -50 275 -81 223 -236 393
-453 498 -180 86 -210 90 -661 89 -351 0 -399 -2 -471 -20z"/>
<path d="M580 1760 c-263 -33 -468 -207 -556 -470 -26 -79 -25 -190 2 -227 34
-46 82 -73 131 -73 99 0 153 51 177 169 18 86 49 144 107 195 83 76 105 81
367 84 188 3 242 0 286 -12 78 -23 136 -21 176 7 77 52 99 131 61 211 -45 93
-138 117 -461 122 -124 1 -254 -1 -290 -6z"/>
<path d="M3945 1764 c-78 -8 -190 -36 -223 -56 -47 -29 -75 -89 -69 -151 5
-54 28 -91 77 -124 40 -28 98 -30 176 -7 45 13 97 15 287 12 213 -3 236 -5
279 -25 101 -47 179 -152 194 -262 8 -61 35 -106 84 -139 29 -20 44 -23 93
-20 127 9 181 107 143 259 -51 198 -180 361 -351 444 -125 60 -166 67 -420 70
-126 1 -248 1 -270 -1z"/>
</g>
</svg>
