<?xml version="1.0" standalone="no"?>
<!DOCTYPE svg PUBLIC "-//W3C//DTD SVG 20010904//EN"
 "http://www.w3.org/TR/2001/REC-SVG-20010904/DTD/svg10.dtd">
<svg version="1.0" xmlns="http://www.w3.org/2000/svg"
 width="500.000000pt" height="500.000000pt" viewBox="0 0 500.000000 500.000000"
 preserveAspectRatio="xMidYMid meet">

<g transform="translate(0.000000,500.000000) scale(0.100000,-0.100000)"
fill="#000000" stroke="none">
<path d="M1460 4729 c-241 -16 -380 -45 -516 -108 -232 -109 -435 -306 -548
-531 -122 -243 -140 -448 -134 -1530 l4 -665 26 -96 c86 -316 318 -562 618
-657 105 -33 108 -33 276 -41 88 -5 170 -14 182 -20 31 -17 37 -53 18 -120
-71 -254 107 -493 369 -494 114 -1 155 21 519 280 484 346 470 341 1071 353
358 7 409 10 483 29 288 73 538 248 705 494 63 92 97 160 136 271 65 185 66
196 66 976 -1 754 -4 827 -54 1023 -70 273 -296 554 -561 696 -163 87 -310
122 -590 140 -192 13 -1878 12 -2070 0z m1985 -309 c304 -14 414 -39 560 -124
91 -54 237 -200 291 -291 115 -197 133 -358 134 -1180 0 -634 -10 -740 -85
-901 -111 -243 -318 -417 -574 -486 -68 -18 -119 -21 -471 -28 -427 -8 -478
-14 -643 -69 -142 -48 -237 -105 -564 -338 -336 -240 -348 -246 -393 -198
l-24 25 18 70 c39 149 4 293 -93 390 -89 89 -188 119 -396 120 -105 0 -144 7
-235 42 -171 66 -307 211 -367 392 l-27 81 -4 590 c-4 634 8 1077 33 1217 31
176 95 298 230 433 182 182 331 237 685 255 219 11 1697 11 1925 0z"/>
<path d="M1554 3088 c-86 -59 -117 -162 -75 -253 70 -151 266 -168 359 -31 27
41 32 57 32 108 0 125 -83 208 -208 208 -51 0 -67 -5 -108 -32z"/>
<path d="M2415 3106 c-63 -27 -125 -122 -125 -190 0 -105 102 -206 210 -206
108 0 210 101 210 206 0 70 -63 164 -127 191 -41 17 -129 16 -168 -1z"/>
<path d="M3245 3103 c-75 -39 -115 -104 -115 -186 0 -179 203 -271 337 -154
105 92 94 246 -21 325 -42 28 -57 32 -110 32 -36 -1 -73 -7 -91 -17z"/>
</g>
</svg>
