<?xml version="1.0" standalone="no"?>
<!DOCTYPE svg PUBLIC "-//W3C//DTD SVG 20010904//EN"
 "http://www.w3.org/TR/2001/REC-SVG-20010904/DTD/svg10.dtd">
<svg version="1.0" xmlns="http://www.w3.org/2000/svg"
 width="500.000000pt" height="500.000000pt" viewBox="0 0 500.000000 500.000000"
 preserveAspectRatio="xMidYMid meet">

<g transform="translate(0.000000,500.000000) scale(0.100000,-0.100000)"
fill="#000000" stroke="none">
<path d="M2140 4564 c-98 -26 -197 -81 -274 -154 -78 -75 -125 -145 -165 -248
-26 -67 -26 -67 -31 -447 l-5 -380 -380 -5 c-380 -5 -380 -5 -447 -31 -203
-79 -352 -243 -403 -444 -23 -89 -23 -1871 0 -1960 56 -221 239 -404 460 -460
89 -23 1871 -23 1960 0 102 26 201 81 279 155 78 75 125 145 165 248 26 67 26
67 31 447 l5 380 380 5 c380 5 380 5 447 31 203 79 352 243 403 444 23 89 23
1871 0 1960 -56 221 -239 404 -460 460 -87 22 -1881 21 -1965 -1z m1905 -416
c39 -21 82 -64 103 -103 16 -27 17 -110 17 -920 0 -981 4 -913 -61 -979 -63
-62 -57 -61 -429 -61 l-340 0 -5 380 c-5 380 -5 380 -31 447 -39 100 -86 172
-159 242 -73 70 -132 107 -229 145 -66 26 -68 26 -446 31 l-380 5 -3 305 c-2
168 0 324 3 347 7 46 48 114 85 140 61 43 54 43 970 40 793 -2 878 -4 905 -19z
m-2375 -1613 c5 -378 5 -380 31 -446 38 -97 75 -156 145 -229 70 -73 142 -120
242 -159 67 -26 67 -26 447 -31 l380 -5 0 -340 c0 -372 1 -366 -61 -429 -66
-65 2 -61 -979 -61 -981 0 -913 -4 -979 61 -65 66 -61 3 -64 944 -2 470 0 874
3 896 11 75 77 151 151 174 16 5 175 8 354 7 l325 -2 5 -380z m1142 352 c31
-18 57 -44 75 -75 l28 -47 0 -340 0 -340 -340 0 c-372 0 -366 -1 -429 61 -61
62 -61 59 -64 418 -2 181 -1 335 2 343 5 12 59 14 343 11 l338 -3 47 -28z"/>
</g>
</svg>
