<?xml version="1.0" standalone="no"?>
<!DOCTYPE svg PUBLIC "-//W3C//DTD SVG 20010904//EN"
 "http://www.w3.org/TR/2001/REC-SVG-20010904/DTD/svg10.dtd">
<svg version="1.0" xmlns="http://www.w3.org/2000/svg"
 width="500.000000pt" height="500.000000pt" viewBox="0 0 500.000000 500.000000"
 preserveAspectRatio="xMidYMid meet">

<g transform="translate(0.000000,500.000000) scale(0.100000,-0.100000)"
fill="#000000" stroke="none">
<path d="M1142 4599 c-188 -31 -364 -134 -468 -272 -107 -142 -154 -283 -154
-457 0 -337 209 -617 526 -705 32 -9 111 -19 174 -22 133 -6 230 13 351 68 64
30 70 35 80 73 30 114 45 157 77 221 53 106 108 183 186 259 l71 69 -3 73 c-6
169 -79 339 -198 464 -170 177 -419 266 -642 229z"/>
<path d="M3648 4600 c-179 -28 -365 -133 -464 -261 -98 -127 -164 -294 -164
-413 0 -50 1 -52 51 -86 71 -48 186 -174 235 -256 54 -91 111 -235 120 -302 4
-29 14 -62 23 -72 47 -55 299 -86 447 -56 237 48 409 181 512 396 53 110 72
196 72 325 0 294 -162 541 -436 666 -118 54 -277 77 -396 59z"/>
<path d="M2405 3836 c-230 -46 -411 -178 -514 -375 -152 -293 -101 -644 129
-870 78 -78 152 -124 261 -162 399 -142 821 60 955 456 35 106 44 264 20 380
-54 266 -270 491 -537 560 -85 22 -231 27 -314 11z"/>
<path d="M990 3089 c-200 -7 -291 -24 -416 -76 -215 -90 -380 -247 -480 -458
-52 -110 -70 -165 -84 -247 -9 -59 -15 -938 -6 -938 3 0 76 -20 163 -45 232
-66 451 -110 690 -139 116 -14 221 -26 232 -26 20 0 21 5 21 113 0 249 32 417
110 584 77 166 230 349 365 438 85 56 216 124 278 144 44 15 46 29 11 62 -40
37 -108 136 -147 214 -47 94 -76 193 -84 282 -4 53 -11 76 -22 82 -21 12 -411
18 -631 10z"/>
<path d="M3545 3093 l-101 -4 -13 -96 c-24 -183 -92 -329 -224 -481 -30 -35
-35 -47 -26 -58 6 -8 18 -14 25 -14 22 0 193 -84 264 -131 82 -53 220 -191
289 -289 143 -203 201 -404 201 -701 0 -94 4 -160 10 -164 5 -3 74 1 152 10
401 45 546 78 801 186 l77 33 0 433 c0 351 -3 448 -15 508 -77 372 -365 666
-727 741 -128 27 -397 37 -713 27z"/>
<path d="M2035 2309 c-253 -52 -437 -176 -587 -393 -88 -127 -140 -277 -158
-455 -15 -154 -13 -826 3 -839 16 -13 301 -97 419 -123 349 -77 572 -102 888
-102 358 -1 614 33 891 118 130 39 280 100 291 118 12 19 9 795 -3 883 -30
218 -128 406 -294 562 -133 125 -259 190 -447 231 -91 20 -126 21 -505 20
-357 -1 -419 -3 -498 -20z"/>
</g>
</svg>
